<?xml version="1.0" encoding="utf-8"?>
<!-- Generator: Adobe Illustrator 17.0.0, SVG Export Plug-In . SVG Version: 6.00 Build 0)  -->
<!DOCTYPE svg PUBLIC "-//W3C//DTD SVG 1.1//EN" "http://www.w3.org/Graphics/SVG/1.1/DTD/svg11.dtd">
<svg version="1.1" id="Layer_1" xmlns="http://www.w3.org/2000/svg" xmlns:xlink="http://www.w3.org/1999/xlink" x="0px" y="0px"
	 width="268px" height="144px" viewBox="0 0 268 144" enable-background="new 0 0 268 144" xml:space="preserve">
<path fill="#0A0A0A" d="M0,0h268v144H0V0z M0,54.207l39.013,0.01h4.169c0-4.579-3.712-8.291-8.291-8.291H10.291
	C5.712,45.926,2,42.214,2,37.635l-2-0.01V54.207z"/>
<path fill="none" stroke="#606060" stroke-width="2.5" stroke-linecap="round" stroke-linejoin="round" stroke-miterlimit="10" d="
	M165.097,104.908c-2.5-0.542-3.4-3.239-2.667-5.333c0.83-2.37,5.344-5.063,7.435-6.284c2.766-1.615,5.622-2.626,8.624-3.389
	c2.917-0.741,5.944-1.156,8.956-0.965c2.918,0.184,5.791,0.943,8.374,2.325c2.563,1.371,4.697,3.319,6.584,5.509
	c1.797,2.085,3.351,4.4,5.405,6.253c2.194,1.98,4.823,3.211,7.676,3.925c3.382,0.847,6.908,1.055,10.379,1.199
	c3.384,0.141,6.772,0.189,10.157,0.279c0.767,0.02,1.533,0.042,2.3,0.063c-2.023,3.478-5.64,7.128-15.275,7.128
	c-2.22,0-11.379-0.312-13.667-1.216c1.854,2.025,4.656,6.502,5.614,9.079c1.406,3.781,0.848,9.384-0.625,11.188
	c-0.809-2.448-2.103-5.449-3.533-7.615c-1.394-2.112-3.258-3.813-5.275-5.318c-2.064-1.54-4.262-2.936-6.506-4.197
	c-2.313-1.301-4.724-2.39-7.301-3.051c-2.639-0.677-9.699-1.134-10.06-1.149c-0.622,3.938-9.149,10.911-10.012,11.675
	c-5.438-4.875-12.951-8.064-15.906-9.281c0.997-2.193,2.29-3.905,3.815-5.786c0.434-0.535,0.886-1.129,1.341-1.704"/>
<path fill="none" stroke="#606060" stroke-width="2.5" stroke-linecap="round" stroke-linejoin="round" stroke-miterlimit="10" d="
	M171.805,100.387c2.833-1.445,5.846-3.399,9.08-3.695c2.867-0.262,6.282,1.759,5.001,5.052c-0.621,1.598-2.243,2.559-3.643,3.393"/>
<path fill="none" stroke="#606060" stroke-width="2.5" stroke-linecap="round" stroke-linejoin="round" stroke-miterlimit="10" d="
	M181.742,113.325c0.043-2.119-0.212-3.929,0.229-6.03c0.624-2.973,0.701-7.241,2.208-9.908"/>
<path fill="none" stroke="#606060" stroke-width="2.5" stroke-linecap="round" stroke-linejoin="round" stroke-miterlimit="10" d="
	M175.867,98.2c0.743,1.114,1.055,2.24,1.038,3.577c-0.031,2.486-1.119,4.456-1.995,6.704c-1.04,2.669-2.582,8.155-6.344,7.641
	c-2.466-0.337-3.188-4.872-0.85-5.881c1.592-0.687,4.16,1.523,4.486,2.921c0.113,0.484,0.057,0.923-0.118,1.307"/>
<path fill="none" stroke="#606060" stroke-width="2.5" stroke-linecap="round" stroke-linejoin="round" stroke-miterlimit="10" d="
	M171.93,106.262c1.112,0.082,2.113,0.36,3.188,0.438"/>
<path fill="none" stroke="#606060" stroke-width="2.5" stroke-linecap="round" stroke-linejoin="round" stroke-miterlimit="10" d="
	M229.68,115.2c-0.289,2.628-1.219,4.701-2.731,6.805c-0.357,0.497-0.738,0.966-1.147,1.423c0.022-1.904-0.592-4.477-1.367-6.215
	c-0.243-0.545-0.432-0.961-0.88-1.388"/>
<path fill="none" stroke="#606060" stroke-width="2.5" stroke-linecap="round" stroke-linejoin="round" stroke-miterlimit="10" d="
	M213.117,120.262c1.332-0.943,3.182-1.366,4.803-1.227c-0.506,2.154-0.535,4.189-2.303,5.789"/>
<path fill="none" stroke="#606060" stroke-width="2.5" stroke-linecap="round" stroke-linejoin="round" stroke-miterlimit="10" d="
	M193.393,106.348c2.473,2.174,6.654-0.157,5.943-3.449c-0.402-1.863-2.828-3.394-4.595-2.849
	C192.113,100.862,191.256,104.469,193.393,106.348z"/>
<path fill="none" stroke="#606060" stroke-width="2.5" stroke-linecap="round" stroke-linejoin="round" stroke-miterlimit="10" d="
	M166.367,113.887c-0.098-1.22,0.028-3.719-1.313-4.313"/>
<path fill="none" stroke="#606060" stroke-width="2.5" stroke-linecap="round" stroke-linejoin="round" stroke-miterlimit="10" d="
	M148.18,76.408c-2.767,4.077-2.062,6.971,1.781,9.867c3.131,2.36,6.499,5.419,7.018,9.568c0.318,2.542-0.96,4.374-2.716,6.064"/>
<path fill="none" stroke="#606060" stroke-width="2.5" stroke-linecap="round" stroke-linejoin="round" stroke-miterlimit="10" d="
	M121.68,57.992c-0.774,2.751-1.378,5.528,0.344,8.046c1.502,2.195,4.018,3.821,6.089,5.436c2.037,1.589,4.145,2.833,6.418,4.047
	c2.381,1.272,4.724,2.817,5.698,5.472c0.938,2.555,0.117,4.825-1.619,6.776c-0.194,0.218-0.156,0.335-0.359,0.544"/>
<path fill="none" stroke="#606060" stroke-width="2.5" stroke-linecap="round" stroke-linejoin="round" stroke-miterlimit="10" d="
	M88.93,44.95c-1.556,6.551,1.242,7.672,6.667,10.024c3.13,1.357,5.474,2.36,8.932,3.409c2.866,0.869,5.682,2.133,7.589,4.661
	c1.791,2.374,1.207,5.515,1.188,8.281"/>
<path fill="none" stroke="#606060" stroke-width="2.5" stroke-linecap="round" stroke-linejoin="round" stroke-miterlimit="10" d="
	M46.013,37.492c-1.27,9.211,6.391,9.774,13.738,10.675c4.306,0.528,8.646,1.108,12.906,1.938c5.096,0.992,11.674,3.035,8.679,9.37"
	/>
<line fill="none" stroke="#606060" stroke-width="2.5" stroke-linecap="round" stroke-miterlimit="10" x1="-44.522" y1="37.62" x2="0" y2="37.62"/>
<line fill="none" stroke="#606060" stroke-width="2.5" stroke-linecap="round" stroke-miterlimit="10" x1="0" y1="54.202" x2="-44.522" y2="54.202"/>
<path fill="none" stroke="#606060" stroke-width="2.5" stroke-linecap="round" stroke-linejoin="round" stroke-miterlimit="10" d="
	M174.867,90.512c-2.164-1.981-5.477-4.92-8.386-2.465c-2.627,2.217-1.684,5.718,0.336,7.933c2.146,2.353,5.58,4.26,5.639,7.841
	c0.082,4.962-5.513,7.357-9.579,5.26c-2.047-1.055-3.845-2.518-5.558-4.041c-6.584-5.85-13.014-11.841-19.871-17.382
	c-6.342-5.125-13.048-9.8-20.117-13.869c-7.383-4.25-15.145-7.85-23.198-10.636c-8.562-2.962-17.419-4.948-26.391-6.166
	c-9.525-1.293-17.249-2.776-28.728-2.776L0,54.202"/>
<path fill="none" stroke="#606060" stroke-width="2.5" stroke-linecap="round" stroke-linejoin="round" stroke-miterlimit="10" d="
	M2,37.63c0,4.579,3.712,8.291,8.291,8.291h24.599c4.579,0,8.291,3.712,8.291,8.291"/>
<path fill="none" stroke="#606060" stroke-width="2.5" stroke-linecap="round" stroke-linejoin="round" stroke-miterlimit="10" d="
	M183.992,88.825c-2.729-9.281-10.731-16.017-10.762-15.971c-0.979,1.462-2.532,2.817-3.925,3.876
	c-1.439,1.093-3.06,1.917-4.797,2.419c-1.843,0.533-3.779,0.713-5.692,0.616c-1.894-0.096-3.766-0.471-5.568-1.055
	c-5.698-1.849-9.51-5.822-14.179-9.317c-3.071-2.299-6.185-4.544-9.388-6.657c-6.143-4.052-12.623-7.506-19.426-10.312
	c-15.109-6.232-31.461-11.101-47.632-13.515c-10.335-1.543-20.853-1.289-31.271-1.289c-7.231,0-31.352,0-31.352,0"/>
</svg>
