<?xml version="1.0" encoding="utf-8"?>
<!-- Generator: Adobe Illustrator 17.0.0, SVG Export Plug-In . SVG Version: 6.00 Build 0)  -->
<!DOCTYPE svg PUBLIC "-//W3C//DTD SVG 1.1//EN" "http://www.w3.org/Graphics/SVG/1.1/DTD/svg11.dtd">
<svg version="1.1" id="Layer_1" xmlns="http://www.w3.org/2000/svg" xmlns:xlink="http://www.w3.org/1999/xlink" x="0px" y="0px"
	 width="211px" height="111px" viewBox="0 0 211 111" enable-background="new 0 0 211 111" xml:space="preserve">
<path fill="#0A0A0A" d="M211,111.085H0V-0.085h211V111.085z M86.204,6.901v-6.986H70.313l-0.859,26.441
	c2.16-0.072,4.617-0.158,6.432-1.504c3.47-2.572,1.979-7.643,2.742-11.318c0.875-4.212,3.533-5.961,7.576-6.465"/>
<g>
	<g>
		<path fill="none" stroke="#606060" stroke-width="2.5" stroke-miterlimit="10" d="M78.18,23.158"/>
	</g>
</g>
<path fill="none" stroke="#606060" stroke-width="2.5" stroke-linecap="round" stroke-linejoin="round" stroke-miterlimit="10" d="
	M86.45,0c0,8.938,0.105,15.577,0.105,22.959c0,4.811-3,8.579-5.57,12.559c-1.403,2.173-2.796,4.348-4.138,6.56"/>
<path fill="none" stroke="#606060" stroke-width="2.5" stroke-linecap="round" stroke-linejoin="round" stroke-miterlimit="10" d="
	M73.18,35.077c2.807,0.577,9.004-5.056,11.5-6.5"/>
<path fill="none" stroke="#606060" stroke-width="2.5" stroke-linecap="round" stroke-linejoin="round" stroke-miterlimit="10" d="
	M69.878,0c0,6.25-0.005,19.654-0.005,25.91"/>
<path fill="none" stroke="#606060" stroke-width="2.5" stroke-linecap="round" stroke-linejoin="round" stroke-miterlimit="10" d="
	M56.782,38.101c-0.781-3.517-9.824-1.868-5.962,2.152C52.696,42.204,57.544,41.53,56.782,38.101z"/>
<path fill="none" stroke="#606060" stroke-width="2.5" stroke-linecap="round" stroke-linejoin="round" stroke-miterlimit="10" d="
	M54.347,36.244c0-6.901,0.192-13.675,0.525-20.475c4.611-0.052,9.524,1.298,13.975-0.192"/>
<path fill="none" stroke="#606060" stroke-width="2.5" stroke-linecap="round" stroke-linejoin="round" stroke-miterlimit="10" d="
	M56.513,40.41c1.269-0.595,2.538-1.278,3.853-1.762c6.569-2.419,7.274,2.381,8.822,7.697c-3.062,2.251-6.316,4.293-10.101,5.033
	c-7.818,1.528-14.85-3.339-22.612-3.241c-7.219,0.091-16.731,3.74-16.619,12.344c-5.608-5.751-2.706-11.48,2.886-15.781
	c1.401-1.078,2.864-2.081,4.287-3.131c-0.473,0.349-3.487-0.314-4.181-0.33c-1.373-0.032-2.762,0.04-4.116-0.24
	c-2.524-0.521-5.67-2.526-7.197-4.63"/>
<path fill="none" stroke="#606060" stroke-width="2.5" stroke-linecap="round" stroke-linejoin="round" stroke-miterlimit="10" d="
	M7.18,32.244c-3.69-3.291-3.74-8.155-3.798-12.649c6.715,5.837,23.496,10.273,25.936,10.12c1.202-2.606,1.287-3.994,3.748-5.783
	c2.406-1.75,4.02-1.23,4.469-1.625c0.604-0.531,0.613-2.411,0.839-3.141c0.392-1.267,1.07-2.081,2.089-2.975
	c1.347-1.181,3.112-1.983,3.314,0.438c0.183,2.183-0.76,4.588-1.432,6.63c0.881-1.269,1.769-2.549,2.812-3.693
	c1.315-1.44,4.123-3.81,5.162-0.839c0.891,2.55-0.506,5.536-1.788,7.68c1.748-0.402,3.839-0.497,5.65-0.497"/>
<path fill="none" stroke="#606060" stroke-width="2.5" stroke-linecap="round" stroke-linejoin="round" stroke-miterlimit="10" d="
	M38.677,39.142c3.14,2.484,7.27-0.759,5.079-4.322C41.322,30.865,34.032,35.468,38.677,39.142z"/>
<path fill="none" stroke="#606060" stroke-width="2.5" stroke-linecap="round" stroke-linejoin="round" stroke-miterlimit="10" d="
	M6.252,40.235c0.615,0.772,1.905,1.557,2.678,0.544c0.706-0.925,0.261-2.421,1.087-3.486c1.304-1.681,2.634-2.534,1.796-4.822
	c-1.231-3.363-3.886-1.671-5.437,0.376C4.739,35.005,4.467,37.998,6.252,40.235z"/>
<path fill="none" stroke="#606060" stroke-width="2.5" stroke-linecap="round" stroke-linejoin="round" stroke-miterlimit="10" d="
	M16.034,34.994c0.955,1.687,1.235,3.172,1.25,5.125"/>
<path fill="none" stroke="#606060" stroke-width="2.5" stroke-linecap="round" stroke-linejoin="round" stroke-miterlimit="10" d="
	M16.159,53.806c-2.846-1.149-5.505-3.311-5.233-6.694c0.072-0.901,0.371-1.781,0.672-2.628c-0.001-0.047-0.002-0.046-0.003,0.001
	c1.042,2.089,2.492,3.087,4.781,3.499c0.692,0.125,1.396,0.19,2.096,0.258"/>
<path fill="none" stroke="#606060" stroke-width="2.5" stroke-linecap="round" stroke-linejoin="round" stroke-miterlimit="10" d="
	M60.263,50.994c-0.027,4.485,0.655,8.967,0.494,13.436c0.747-0.348,1.443-0.749,2.177-1.105c3.245-1.574,6.709-2.697,9.805-4.571
	c4.148-2.51,7.731-5.365,12.507-6.659c-0.088,0.024,2.386,7.661,2.695,8.284c1.511,3.047,3.347,6.032,5.18,8.896
	c2.452,3.83,5.413,7.308,9.475,9.484c1.559,0.835,3.258,1.479,4.963,1.944c4.995,1.361,10.294,1.329,15.417,0.937
	c6.476-0.496,61.285-10.77,88.022-10.77"/>
<path fill="none" stroke="#606060" stroke-width="2.5" stroke-linecap="round" stroke-linejoin="round" stroke-miterlimit="10" d="
	M62.222,36.619c0.002-2.843-1.61-8.977,3.209-7.526c6.457,1.943,9.094,10.982,11.645,16.455c1.986,4.262,2.47,8.754,3.394,13.315
	c0.794,3.919,2.026,7.434,3.475,11.135c1.922,4.907,4.886,9.269,8.467,13.117c4.39,4.718,10.239,8.908,16.296,11.121
	c11.418,4.172,24.764,2.868,36.693,2.685c3.67-0.056,41.864-3.802,65.601-3.802"/>
<path fill="none" stroke="#606060" stroke-width="2.5" stroke-linecap="round" stroke-linejoin="round" stroke-miterlimit="10" d="
	M62.097,30.827c0.019-2.027-0.249-6.03,2.333-6.713c2.356-0.623,4.447,2.09,5.205,3.941c0.574,1.403,0.742,2.942,0.879,4.439"/>
<path fill="none" stroke="#606060" stroke-width="2.5" stroke-linecap="round" stroke-linejoin="round" stroke-miterlimit="10" d="
	M69.609,26.39c0.24,2.572,0.092,2.515,0.404,5.104"/>
<path fill="none" stroke="#606060" stroke-width="2.5" stroke-linecap="round" stroke-linejoin="round" stroke-miterlimit="10" d="
	M69.013,26.077c2.16-0.071,4.617-0.157,6.432-1.488c3.47-2.545,1.979-7.562,2.742-11.199c0.875-4.167,3.533-5.898,7.576-6.397"/>
<path fill="none" stroke="#606060" stroke-width="2.5" stroke-linecap="round" stroke-linejoin="round" stroke-miterlimit="10" d="
	M123.472,96.619c-0.785-2.205-0.072-5.533-0.134-7.865c-1.596-0.032-3.252-0.419-4.919-0.582c-0.053-2.025,0.023-4.18-0.322-6.178"
	/>
<path fill="none" stroke="#606060" stroke-width="2.5" stroke-linecap="round" stroke-linejoin="round" stroke-miterlimit="10" d="
	M127.93,81.827c0.717,4.994,0.08,10.075,0.833,15.083"/>
<path fill="none" stroke="#606060" stroke-width="2.5" stroke-linecap="round" stroke-linejoin="round" stroke-miterlimit="10" d="
	M134.972,96.075c0.001-4.892-0.372-9.963,0.032-14.831c1.652,1.181,3.534,1.881,5.048,3.308c0.379,0.357,0.78,0.729,1.101,1.133
	c-0.903,1.433-2.43,3.459-2.062,5.27c0.327,1.604,2.205,2.5,3.314,3.531c0.664,0.617,1.271,1.293,1.878,1.965"/>
<path fill="none" stroke="#606060" stroke-width="2.5" stroke-linecap="round" stroke-linejoin="round" stroke-miterlimit="10" d="
	M149.788,95.8c-0.518-5.941-0.976-10.497-1.566-16.432"/>
<path fill="none" stroke="#606060" stroke-width="2.5" stroke-linecap="round" stroke-linejoin="round" stroke-miterlimit="10" d="
	M156.034,95.181c-0.123-1.13-0.176-2.269-0.3-3.4c-0.241-2.198-0.42-4.316-0.484-6.526c-0.074-2.566-0.286-5.084-0.467-7.636"/>
<path fill="none" stroke="#606060" stroke-width="2.5" stroke-linecap="round" stroke-linejoin="round" stroke-miterlimit="10" d="
	M167.284,75.494c0.128,1.236,0.128,2.48,0.253,3.716c0.226,2.237,0.547,4.456,0.723,6.699c0.219,2.795,0.425,5.893,1.211,8.585"/>
<path fill="none" stroke="#606060" stroke-width="2.5" stroke-linecap="round" stroke-linejoin="round" stroke-miterlimit="10" d="
	M178.722,93.681c-0.76-1.544-1.605-3.05-2.571-4.476c-0.91-1.344-2.372-2.383-3.181-3.754c-1.072-1.817,0.527-2.889,0.959-4.581
	c0.459-1.796-1.112-2.057-2.355-2.904c-1.371-0.935-2.315-1.834-3.977-2.284"/>
<path fill="none" stroke="#606060" stroke-width="2.5" stroke-linecap="round" stroke-linejoin="round" stroke-miterlimit="10" d="
	M155.347,81.244c4.716,0.141,7.421,4.956,3.828,8.738c-0.724,0.762-1.74,1.272-2.715,1.637c-0.201,0.228,0.204,0.078,0.387,0.25"/>
<path fill="none" stroke="#606060" stroke-width="2.5" stroke-linecap="round" stroke-linejoin="round" stroke-miterlimit="10" d="
	M180.159,79.931c0.153,0.007,0.272,0.071,0.375,0.188"/>
<path fill="none" stroke="#606060" stroke-width="2.5" stroke-linecap="round" stroke-linejoin="round" stroke-miterlimit="10" d="
	M181.284,85.806c0.014,0.206,0.032,0.363,0.063,0.563"/>
<g>
	<path fill="#FFFFFF" d="M78.621,23.158"/>
</g>
<path fill="#FFFFFF" d="M86.906,24.329"/>
<path fill="#FFFFFF" d="M70.313,24.329"/>
</svg>
