<?xml version="1.0" encoding="utf-8"?>
<!-- Generator: Adobe Illustrator 17.0.0, SVG Export Plug-In . SVG Version: 6.00 Build 0)  -->
<!DOCTYPE svg PUBLIC "-//W3C//DTD SVG 1.1//EN" "http://www.w3.org/Graphics/SVG/1.1/DTD/svg11.dtd">
<svg version="1.1" id="Layer_1" xmlns="http://www.w3.org/2000/svg" xmlns:xlink="http://www.w3.org/1999/xlink" x="0px" y="0px"
	 width="211px" height="118px" viewBox="0 0 211 118" enable-background="new 0 0 211 118" xml:space="preserve">
<path fill="#0A0A0A" d="M-0.006,0.003h211.061V118H-0.006V0.003z M211.028,37.82c0,0-24.343,0.02-34.229,0.009l0.022,0.19
	c0,4.579,3.712,8.291,8.291,8.291l16.966-0.182c4.579,0,8.291,3.712,8.291,8.291l0-0.018c0.411-0.001,0.646-0.003,0.646-0.003
	L211.028,37.82z M-0.006,44.033c0,0,37.158-0.272,46.497,0.237c0-0.032,0,0.032,0,0c-0.052-4.534-3.744-8.194-8.291-8.194H13.602
	c-4.579,0-8.358-3.945-8.358-8.524c-2.05-0.02-4.159-0.053-5.249-0.101V44.033z"/>
<path fill="none" stroke="#606060" stroke-width="2.5" stroke-linecap="round" stroke-linejoin="round" stroke-miterlimit="10" d="
	M82.43,86.325c0,14.567,12.424,26.375,27.75,26.375s27.75-11.808,27.75-26.375"/>
<path fill="none" stroke="#606060" stroke-width="2.5" stroke-linecap="round" stroke-linejoin="round" stroke-miterlimit="10" d="
	M95.36,73.058c-4.625,7.125-10.923,17.391-38.805,17.392c-20.583,0.001-22.581-4.773-31.167-4.773c-5.417,0-9.083-0.211-9.083-0.211
	c-0.938-1.688-2.266-5.563-8.516-4.516c-0.249,0.042-1.359-0.5-1.234-2.375c0.066-0.991,0.802-4.912,5.688-4.625
	c4.25,0.25,4.311,3.875,10.688,3.875c5.547,0,7.406-3.906,23.875-8.375c0,0,5.813-6,12.375-6c6.479,0,7.833,2.417,7.875,4.375
	c0.073,3.42-1.252,4.968-2.73,5.626c-1.17,0.521-2.569,0.484-3.895,0.374c-3-0.25-5.794-0.11-8.794,0.015
	c-3.569,0.149-6.268,2.131-6.268,5.36c0,1.054,0.415,6.5,5.432,6.5c3.409,0,4.895-2.167,4.88-3.75c-0.021-2.229-2.958-3.5-2.958-3.5
	"/>
<path fill="none" stroke="#606060" stroke-width="2.5" stroke-linecap="round" stroke-linejoin="round" stroke-miterlimit="10" d="
	M107.68,66.95c-4.25,3.625-11.125,6.5-15.5,6.5s-7.264-1.47-9.139-2.22"/>
<path fill="none" stroke="#606060" stroke-width="2.5" stroke-linecap="round" stroke-linejoin="round" stroke-miterlimit="10" d="
	M128.954,63.704c0.125,0.25,5.538,9.746,5.538,9.746"/>
<path fill="none" stroke="#606060" stroke-width="2.5" stroke-linecap="round" stroke-linejoin="round" stroke-miterlimit="10" d="
	M155.43,68.637c-2.188,1.313-10.625,5.813-16.688,5.438S115.93,67.7,115.93,67.7s13.875,19.063,25.375,19.188
	s25.563-1.438,25.563-1.438"/>
<line fill="none" stroke="#606060" stroke-width="2.5" stroke-linecap="round" stroke-linejoin="round" stroke-miterlimit="10" x1="54.805" y1="90.513" x2="52.552" y2="85.677"/>
<line fill="none" stroke="#606060" stroke-width="2.5" stroke-linecap="round" stroke-linejoin="round" stroke-miterlimit="10" x1="47.368" y1="90.513" x2="48.766" y2="85.478"/>
<path fill="none" stroke="#606060" stroke-width="2.5" stroke-linecap="round" stroke-linejoin="round" stroke-miterlimit="10" d="
	M59.555,84.7c0,0,2.625-1.188,2.625-3.563s-1.313-2.688-1.313-2.688"/>
<path fill="none" stroke="#606060" stroke-width="2.5" stroke-linecap="round" stroke-linejoin="round" stroke-miterlimit="10" d="
	M42.493,83.575c0,0-2.375-1.813-2.313-3.813s1.438-3.438,1.438-3.438"/>
<path fill="none" stroke="#606060" stroke-width="2.5" stroke-linecap="round" stroke-linejoin="round" stroke-miterlimit="10" d="
	M64.325,73.451c0,0,3.137,0.957,6.772,0.957c4.646,0,7.333-0.583,9.667-1.667c2.333-1.083,8.083-6.417,8.25-8.333
	c0.165-1.903-4.598-13.501-8.174-15.296c-0.025-0.013-0.051-0.025-0.076-0.037c-3.583-1.667-26.881-4.25-33.396-4.75
	c-7.604-0.583-47.373-0.292-47.373-0.292"/>
<path fill="none" stroke="#606060" stroke-width="2.5" stroke-linecap="round" stroke-linejoin="round" stroke-miterlimit="10" d="
	M38.263,27.45c5.873,0,11.424,0.399,16.574,1.056c19.766,2.523,33.626,8.856,37.176,11.069c5.75,3.583,10.417,6,10.417,13
	c0,4.18-3.417,11.833-13.417,11.833"/>
<path fill="none" stroke="#606060" stroke-width="2.5" stroke-linecap="round" stroke-linejoin="round" stroke-miterlimit="10" d="
	M49.118,74.387c-0.276-1.271-1.138-2.435-1.448-3.677c-0.345-0.406-0.426-0.867-0.864-1.261"/>
<path fill="none" stroke="#606060" stroke-width="2.5" stroke-linecap="round" stroke-linejoin="round" stroke-miterlimit="10" d="
	M50.868,66.232c1.781,2.137,2.046,5.153,3.438,7.405"/>
<path fill="none" stroke="#606060" stroke-width="2.5" stroke-linecap="round" stroke-linejoin="round" stroke-miterlimit="10" d="
	M159.263,81.408c-2.625-1.911-2.788-4.73-2.417-7.75"/>
<path fill="none" stroke="#606060" stroke-width="2.5" stroke-linecap="round" stroke-linejoin="round" stroke-miterlimit="10" d="
	M168.18,76.325c2.083-1.292,0.27-5.666-2.622-4.992c-2.773,0.647-3.972,4.674-2.877,6.993c1.395,2.953,5.438,3.751,8.259,2.578
	c2.534-1.054,3.553-3.341,3.018-5.954c-0.534-2.609-2.041-5.254-3.428-7.495c-1.088-1.758-2.872-4.637-5.335-4.069
	c-2.369,0.547-3.562,3.603-5.725,4.637c-2.79,1.333-5.763-0.467-7.264-2.893c-1.44-2.327-1.201-5.074,1.881-5.491
	c2.789-0.377,5.738,1.17,7.919,2.743c0.487,0.351,0.957,0.73,1.423,1.109"/>
<path fill="none" stroke="#606060" stroke-width="2.5" stroke-linecap="round" stroke-linejoin="round" stroke-miterlimit="10" d="
	M169.013,65.242c3.729-2.436,5.545,0.415,8.846,2.095c3.38,1.72,7.214,2.537,10.676,4.167c2.74,1.291,6.824,3.767,9.9,3.678
	c2.142-0.062,4.935-6.536,8.534-0.861c1.471,2.319-4.039,3.504-5.592,7.405c-0.118,0.295-0.394,0.643-0.548,0.922
	c-2.784-1.152-5.433-1.755-8.459-1.615c-3.221,0.149-6.589,0.448-9.76,1.036c-2.865,0.532-4.604,1.877-6.709,3.786
	c-1.83,1.659-4.466,3.705-7.121,2.726c-2.796-1.031-1.983-3.933-1.002-6.03c0.154-0.328,0.318-0.653,0.484-0.975"/>
<path fill="none" stroke="#606060" stroke-width="2.5" stroke-linecap="round" stroke-linejoin="round" stroke-miterlimit="10" d="
	M171.43,80.825c0.701,1.112,3.656,4.692,3.083,6.2"/>
<path fill="none" stroke="#606060" stroke-width="2.5" stroke-linecap="round" stroke-linejoin="round" stroke-miterlimit="10" d="
	M128.68,43.96c-1-3.375-12.312-22.635-17.75-28.135c-5,5.375-17,24.937-17,24.937s-3.688,2.5-3.073,4.537
	c1.017,3.371,5.254,5.031,1.448,8.526"/>
<path fill="none" stroke="#606060" stroke-width="2.5" stroke-linecap="round" stroke-linejoin="round" stroke-miterlimit="10" d="
	M179.763,77.075c2.886-1.1-0.428-4.922-0.429-6.609c0-0.635,0.377-1.303,0.595-1.891"/>
<path fill="none" stroke="#606060" stroke-width="2.5" stroke-linecap="round" stroke-linejoin="round" stroke-miterlimit="10" d="
	M210.992,54.2c0,0-8.158,0.049-12.275-0.135c-3.983-0.178-7.967-0.239-11.953-0.319c-4.093-0.082-8.181-0.218-12.257-0.617
	c-4.396-0.43-8.744-1.181-13.11-1.831c-4.007-0.597-8.172-1.222-12.217-0.605c-3.573,0.545-6.579,2.176-9.368,4.42
	c-2.691,2.165-5.782,3.924-8.142,6.495c-3.241,3.53-6.03,2.859-8.699,1.426c-2.503-1.344-3.383-4.92-3.115-7.719
	c0.337-3.522,3-6.387,5.353-8.794c4.429-4.529,12.328-6.028,14.804-7.113c1.185-0.519,8.545-1.606,13-1.583
	c4.801,0.024,15.367-0.233,20.167-0.203c4.512,0.028,37.826,0,37.826,0"/>
<path fill="none" stroke="#606060" stroke-width="2.5" stroke-linecap="round" stroke-linejoin="round" stroke-miterlimit="10" d="
	M126.43,57.45c1.074-3.798,7.621-12.671,11.843-6.933c0.91,1.236,0.879,3.227,0.907,4.683"/>
<path fill="none" stroke="#606060" stroke-width="2.5" stroke-linecap="round" stroke-linejoin="round" stroke-miterlimit="10" d="
	M137.43,40.325c5.359,6.123,10.856,4.416,18.268,4.761c2.005,0.093,12.857-1.126,15.463,5.175c0.412,0.997,0.474,1.463,0.335,2.528"
	/>
<path fill="none" stroke="#606060" stroke-width="2.5" stroke-linecap="round" stroke-linejoin="round" stroke-miterlimit="10" d="
	M105.132,93.619c-0.461,1.179-0.124,2.651,0.75,3.555c0.886,0.916,2.198,1.072,3.228,0.293c0.979-0.741,1.496-2.168,1.105-3.349
	c-0.425-1.287-1.681-2.322-2.918-2.186C105.618,92.117,105.381,93.145,105.132,93.619"/>
<path fill="none" stroke="#606060" stroke-width="2.5" stroke-linecap="round" stroke-linejoin="round" stroke-miterlimit="10" d="
	M118.93,91.2c-1.061,0.786-2.397,1.722-2.642,3.121c-0.226,1.29,0.612,2.506,1.752,3.048c1.226,0.583,2.688,0.333,3.6-0.689
	c0.859-0.964,1.101-2.461,0.487-3.613c-0.65-1.219-2.014-1.642-3.272-1.926"/>
<path fill="none" stroke="#606060" stroke-width="2.5" stroke-linecap="round" stroke-linejoin="round" stroke-miterlimit="10" d="
	M107.636,91.924c0.193-1.505,0.33-2.86,0.856-4.293c0.413-1.123,1.066-2.219,2.138-2.82c0.966-0.541,2.107-0.579,3.142-0.22
	c1.174,0.407,2.121,1.28,2.844,2.268c0.841,1.151,1.391,2.485,1.911,3.802c0.065,0.165,0.13,0.331,0.194,0.496"/>
<path fill="none" stroke="#606060" stroke-width="2.5" stroke-miterlimit="10" d="M176.798,37.82c0,4.579,3.712,8.291,8.291,8.291
	l16.966-0.182c4.579,0,8.291,3.712,8.291,8.291"/>
<path fill="none" stroke="#606060" stroke-width="2.5" stroke-miterlimit="10" d="M102.43,54.7c2.017-1.026,4.016-1.569,6.291-1.561
	c2.325,0.007,4.667,0.384,6.921,0.934c1.255,0.306,2.492,0.684,3.726,1.065"/>
<path fill="none" stroke="#606060" stroke-width="2.5" stroke-miterlimit="10" d="M123.118,49.263
	c-2.472-1.25-4.982-2.353-7.734-2.813c-3.019-0.504-6.109-0.291-9.048,0.546c-1.573,0.448-3.088,1.071-4.593,1.704"/>
<path fill="none" stroke="#606060" stroke-width="2.5" stroke-linecap="round" stroke-linejoin="round" stroke-miterlimit="10" d="
	M5.243,27.551c0,4.579,3.779,8.524,8.358,8.524h24.599c4.547,0,8.239,3.66,8.291,8.194c0,0.032,0-0.032,0,0"/>
<path fill="none" stroke="#606060" stroke-width="2.5" stroke-linecap="round" stroke-linejoin="round" stroke-miterlimit="10" d="
	M54.847,28.575c-0.198,2.386-0.623,5.49,1.284,7.334c1.834,1.774,20.832,5.081,23.28,6.224c2.612,1.22,2.55,3.358,1.831,5.858
	c-0.097,0.336-0.203,0.669-0.312,1.001"/>
<line fill="none" stroke="#606060" stroke-width="2.5" stroke-linecap="round" stroke-linejoin="round" stroke-miterlimit="10" x1="38.263" y1="27.45" x2="-0.006" y2="27.45"/>
</svg>
