<?xml version="1.0" encoding="utf-8"?>
<!-- Generator: Adobe Illustrator 17.0.0, SVG Export Plug-In . SVG Version: 6.00 Build 0)  -->
<!DOCTYPE svg PUBLIC "-//W3C//DTD SVG 1.1//EN" "http://www.w3.org/Graphics/SVG/1.1/DTD/svg11.dtd">
<svg version="1.1" id="Layer_1" xmlns="http://www.w3.org/2000/svg" xmlns:xlink="http://www.w3.org/1999/xlink" x="0px" y="0px"
	 width="190px" height="166px" viewBox="0 0 190 166" enable-background="new 0 0 190 166" xml:space="preserve">
<path fill="#0A0A0A" d="M189.988,166H0V0h189.988V166z M189.988,27.45c0,0-2.627-0.003-6.569-0.007
	c-3.972,0.007-9.268,0.016-14.564,0.025c-5.319,0.026-10.707,0.167-14.768,0.336c-2.024,0.068-3.741,0.204-4.929,0.262
	c-0.095,0.006-0.187,0.011-0.275,0.016l-0.001,0c0.323,4.579,4.062,8.027,8.367,7.901c0,0,1.453-0.069,3.636-0.103
	c2.182-0.055,5.091-0.105,8.001-0.121c5.819-0.014,11.639-0.028,11.639-0.028c4.331,0.005,7.843,3.721,7.842,8.3l0,0
	c1.034,0.001,1.62,0.002,1.62,0.002V27.45z M86.47,166c0,0,0-10.515,0-21.03c-0.002-2.63,0.091-5.16,0.128-7.585
	c0.024-1.206,0.048-2.371,0.07-3.476c0.049-1.104,0.095-2.148,0.137-3.111c0.093-2.038,0.17-3.716,0.222-4.845l-0.002,0
	c-4.571-0.27-8.437,3.036-8.635,7.383c0,0-0.031,1.454-0.077,3.636c-0.032,2.182-0.132,5.091-0.135,8c0,5.819,0,11.639,0,11.639
	c0,4.332-3.712,7.843-8.291,7.843v0c0,0.989,0,1.547,0,1.547H86.47z"/>
<path fill="none" stroke="#FF0000" stroke-miterlimit="10" d="M69.868,160.075"/>
<path fill="none" stroke="#FF0000" stroke-miterlimit="10" d="M87.43,125.075"/>
<g>
	<path fill="none" stroke="#606060" stroke-width="2.5" stroke-miterlimit="10" d="M189.988,44.033c0,0-2.639-0.003-6.597-0.007
		c-3.927,0.006-9.164,0.015-14.401,0.024c-5.214,0.025-10.356,0.163-14.188,0.322c-1.923,0.063-3.489,0.191-4.602,0.245
		c-1.108,0.065-1.741,0.101-1.741,0.101"/>
	<path fill="none" stroke="#606060" stroke-width="2.5" stroke-miterlimit="10" d="M188.368,44.031c0-4.579-3.511-8.295-7.842-8.3
		c0,0-5.819,0.014-11.639,0.028c-2.91,0.016-5.819,0.066-8.001,0.121c-2.182,0.035-3.636,0.103-3.636,0.103
		c-4.305,0.126-8.044-3.321-8.367-7.901"/>
	<path fill="none" stroke="#606060" stroke-width="2.5" stroke-miterlimit="10" d="M189.988,27.45c0,0-2.627-0.003-6.569-0.007
		c-3.972,0.007-9.268,0.016-14.564,0.025c-5.319,0.026-10.707,0.167-14.768,0.336c-2.024,0.068-3.741,0.204-4.929,0.262
		c-1.192,0.07-1.873,0.11-1.873,0.11s-0.687,0.058-1.888,0.159c-1.207,0.122-2.908,0.206-4.99,0.471
		c-4.138,0.43-9.731,1.274-15.357,2.648c-1.407,0.381-2.815,0.731-4.198,1.142c-1.381,0.464-2.74,0.92-4.055,1.361
		c-2.607,1.037-5.053,1.992-7.069,3.098c-1.013,0.532-1.957,0.976-2.76,1.455c-0.796,0.495-1.491,0.927-2.062,1.282
		c-1.139,0.717-1.79,1.127-1.79,1.127"/>
	<path fill="none" stroke="#606060" stroke-width="2.5" stroke-miterlimit="10" d="M148.459,44.717c0,0-0.625,0.053-1.719,0.147
		c-1.085,0.112-2.676,0.187-4.512,0.426c-3.718,0.382-8.557,1.134-13.164,2.255c-4.633,1.086-8.872,2.768-11.824,4.297
		c-0.733,0.39-1.438,0.703-2.01,1.049c-0.565,0.355-1.057,0.665-1.462,0.92c-0.815,0.504-1.28,0.791-1.28,0.791"/>
	<path fill="none" stroke="#606060" stroke-width="2.5" stroke-miterlimit="10" d="M146.924,44.848
		c-0.329-4.554-4.128-8.026-8.465-7.459c0,0-0.361,0.044-0.993,0.12c-0.629,0.1-1.526,0.244-2.604,0.416
		c-1.077,0.172-2.338,0.354-3.669,0.657c-1.33,0.303-2.772,0.522-4.171,0.927c-1.4,0.393-2.823,0.71-4.117,1.142
		c-1.293,0.434-2.5,0.839-3.534,1.186c-2.016,0.836-3.36,1.393-3.36,1.393c-1.016,0.38-1.996,0.714-3.044,0.752
		c-1.031,0.072-2.112-0.105-3.118-0.361c-2.007-0.518-3.965-1.738-5.205-3.662"/>
	<path fill="none" stroke="#606060" stroke-width="2.5" stroke-miterlimit="10" d="M103.117,40.92c0,0-0.162,0.104-0.45,0.325
		c-0.29,0.218-0.715,0.537-1.256,0.944c-0.539,0.41-1.193,0.907-1.944,1.477c-0.764,0.554-1.507,1.322-2.378,2.087
		c-1.779,1.507-3.55,3.535-5.478,5.679c-0.863,1.137-1.756,2.311-2.662,3.505c-0.47,0.59-0.872,1.217-1.266,1.852l-1.202,1.902
		c-0.393,0.638-0.813,1.268-1.179,1.911c-0.344,0.652-0.686,1.301-1.025,1.944c-0.651,1.295-1.397,2.547-1.918,3.803
		c-1.078,2.503-2.162,4.833-2.82,6.867c-0.701,2.027-1.38,3.711-1.682,4.902c-0.347,1.188-0.546,1.867-0.546,1.867"/>
	<path fill="none" stroke="#606060" stroke-width="2.5" stroke-miterlimit="10" d="M112.487,54.601c0,0-0.116,0.073-0.315,0.231
		c-0.202,0.155-0.499,0.381-0.876,0.67c-0.38,0.286-0.841,0.633-1.369,1.031c-0.546,0.377-1.049,0.94-1.664,1.472
		c-1.26,1.033-2.494,2.511-3.891,4.015c-0.628,0.831-1.276,1.689-1.935,2.561c-0.348,0.418-0.645,0.894-0.939,1.377l-0.903,1.434
		c-0.297,0.482-0.618,0.944-0.899,1.44c-0.265,0.51-0.53,1.018-0.792,1.522c-0.506,1.023-1.095,1.958-1.511,2.988
		c-0.86,2.036-1.75,3.879-2.298,5.613c-0.583,1.707-1.159,3.075-1.417,4.123c-0.297,1.024-0.467,1.609-0.467,1.609"/>
	<path fill="none" stroke="#606060" stroke-width="2.5" stroke-miterlimit="10" d="M111.423,55.406
		c-1.351-1.848-3.185-3.059-5.215-3.407c-1.029-0.198-1.988-0.052-2.967,0.245c-0.946,0.332-1.935,0.803-2.649,1.62
		c0,0-0.979,1.076-2.448,2.69c-1.338,1.721-3.153,4.004-4.626,6.519c-0.375,0.623-0.806,1.214-1.129,1.853
		c-0.333,0.634-0.66,1.258-0.976,1.862c-0.623,1.213-1.261,2.318-1.658,3.337c-0.869,2.002-1.448,3.336-1.448,3.336
		c-0.819,2-2.281,3.543-4.215,4.434c-1.939,0.887-4.11,1.18-6.318,0.499"/>
	<path fill="none" stroke="#606060" stroke-width="2.5" stroke-miterlimit="10" d="M77.309,79.987c0,0-0.198,0.679-0.544,1.867
		c-0.162,0.594-0.405,1.316-0.598,2.144c-0.195,0.829-0.416,1.764-0.656,2.785c-0.239,1.021-0.498,2.126-0.772,3.296
		c-0.257,1.169-0.459,2.401-0.705,3.676c-0.237,1.275-0.481,2.593-0.729,3.932c-0.196,1.337-0.394,2.694-0.593,4.052
		c-0.194,1.358-0.389,2.715-0.58,4.052c-0.143,1.333-0.285,2.645-0.421,3.914c-0.267,2.539-0.546,4.911-0.664,6.933
		c-0.299,4.05-0.499,6.75-0.499,6.75"/>
	<path fill="none" stroke="#606060" stroke-width="2.5" stroke-miterlimit="10" d="M93.211,84.689c0,0-0.171,0.585-0.469,1.608
		c-0.141,0.517-0.352,1.122-0.521,1.857c-0.172,0.733-0.365,1.56-0.576,2.462c-0.213,0.902-0.443,1.879-0.686,2.912
		c-0.229,1.04-0.411,2.165-0.632,3.314c-0.215,1.152-0.437,2.342-0.662,3.551c-0.179,1.228-0.36,2.476-0.542,3.724
		c-0.18,1.249-0.359,2.497-0.536,3.727c-0.133,1.244-0.264,2.469-0.391,3.653c-0.249,2.371-0.512,4.576-0.623,6.499
		c-0.283,3.828-0.472,6.379-0.472,6.379"/>
	<path fill="none" stroke="#606060" stroke-width="2.5" stroke-miterlimit="10" d="M92.792,86.125
		c-2.194-0.617-4.455-0.392-6.253,0.585c-1.77,0.979-3.124,2.681-3.62,4.793c0,0-0.097,0.351-0.215,0.977
		c-0.116,0.626-0.283,1.52-0.482,2.593s-0.432,2.324-0.682,3.665c-0.237,1.343-0.412,2.788-0.629,4.227
		c-0.203,1.441-0.406,2.881-0.596,4.232c-0.144,1.356-0.279,2.622-0.394,3.707c-0.231,2.17-0.385,3.617-0.385,3.617
		c-0.358,4.296-4.292,7.561-8.872,7.286"/>
	<path fill="none" stroke="#606060" stroke-width="2.5" stroke-miterlimit="10" d="M70.547,123.389c0,0-0.124,2.692-0.309,6.73
		c-0.044,1.009-0.092,2.103-0.143,3.26c-0.024,1.157-0.049,2.377-0.075,3.64c-0.039,2.512-0.134,5.246-0.132,7.882
		c0,10.55,0,21.1,0,21.1"/>
	<path fill="none" stroke="#606060" stroke-width="2.5" stroke-miterlimit="10" d="M87.101,124.375c0,0-0.118,2.569-0.294,6.422
		c-0.042,0.963-0.089,2.007-0.137,3.111c-0.022,1.105-0.046,2.271-0.07,3.476c-0.037,2.424-0.13,4.954-0.128,7.585
		c0,10.515,0,21.03,0,21.03"/>
	<path fill="none" stroke="#606060" stroke-width="2.5" stroke-miterlimit="10" d="M87.027,125.952
		c-4.571-0.27-8.437,3.036-8.635,7.383c0,0-0.031,1.454-0.077,3.636c-0.032,2.182-0.132,5.091-0.135,8c0,5.819,0,11.639,0,11.639
		c0,4.332-3.712,7.843-8.291,7.843"/>
</g>
<line fill="none" stroke="#606060" stroke-width="2.5" stroke-linecap="round" stroke-miterlimit="10" x1="86.45" y1="210.522" x2="86.45" y2="166"/>
<line fill="none" stroke="#606060" stroke-width="2.5" stroke-linecap="round" stroke-miterlimit="10" x1="69.868" y1="210.522" x2="69.868" y2="166"/>
</svg>
