<?xml version="1.0" encoding="utf-8"?>
<!-- Generator: Adobe Illustrator 17.0.0, SVG Export Plug-In . SVG Version: 6.00 Build 0)  -->
<!DOCTYPE svg PUBLIC "-//W3C//DTD SVG 1.1//EN" "http://www.w3.org/Graphics/SVG/1.1/DTD/svg11.dtd">
<svg version="1.1" id="Layer_1" xmlns="http://www.w3.org/2000/svg" xmlns:xlink="http://www.w3.org/1999/xlink" x="0px" y="0px"
	 width="211px" height="61px" viewBox="0 0 211 61" enable-background="new 0 0 211 61" xml:space="preserve">
<line fill="none" stroke="#606060" stroke-width="2.5" stroke-linecap="round" stroke-linejoin="round" stroke-miterlimit="10" x1="3.193" y1="43.033" x2="3.193" y2="21.117"/>
<line fill="none" stroke="#606060" stroke-width="2.5" stroke-linecap="round" stroke-linejoin="round" stroke-miterlimit="10" x1="17.443" y1="21.117" x2="17.443" y2="42.533"/>
<polyline fill="none" stroke="#606060" stroke-width="2.5" stroke-linecap="round" stroke-linejoin="round" stroke-miterlimit="10" points="
	21.443,21.117 21.443,33.533 27.193,28.45 27.193,42.533 "/>
<polyline fill="none" stroke="#606060" stroke-width="2.5" stroke-linecap="round" stroke-linejoin="round" stroke-miterlimit="10" points="
	97.235,21.117 97.235,33.533 102.985,28.45 102.985,42.533 "/>
<polyline fill="none" stroke="#606060" stroke-width="2.5" stroke-linecap="round" stroke-linejoin="round" stroke-miterlimit="10" points="
	176.485,21.117 176.485,33.533 182.235,28.45 182.235,42.533 "/>
<polyline fill="none" stroke="#606060" stroke-width="2.5" stroke-linecap="round" stroke-linejoin="round" stroke-miterlimit="10" points="
	121.027,21.117 121.027,33.533 126.777,28.45 126.777,42.533 "/>
<line fill="none" stroke="#606060" stroke-width="2.5" stroke-linecap="round" stroke-linejoin="round" stroke-miterlimit="10" x1="32.36" y1="21.867" x2="32.36" y2="41.783"/>
<polyline fill="none" stroke="#606060" stroke-width="2.5" stroke-linecap="round" stroke-linejoin="round" stroke-miterlimit="10" points="
	46.027,42.533 46.027,22.367 49.693,27.158 "/>
<path fill="none" stroke="#606060" stroke-width="2.5" stroke-linecap="round" stroke-linejoin="round" stroke-miterlimit="10" d="
	M7.943,21.117c0,3.797-2.127,6.875-4.75,6.875"/>
<path fill="none" stroke="#606060" stroke-width="2.5" stroke-linecap="round" stroke-linejoin="round" stroke-miterlimit="10" d="
	M13.193,21.117c0,6.42-4.477,11.625-10,11.625"/>
<path fill="none" stroke="#606060" stroke-width="2.5" stroke-linecap="round" stroke-linejoin="round" stroke-miterlimit="10" d="
	M38.027,21.867c0,4.487-2.537,8.125-5.667,8.125"/>
<line fill="none" stroke="#606060" stroke-width="2.5" stroke-linecap="round" stroke-linejoin="round" stroke-miterlimit="10" x1="53.547" y1="21.867" x2="53.547" y2="42.533"/>
<line fill="none" stroke="#606060" stroke-width="2.5" stroke-linecap="round" stroke-linejoin="round" stroke-miterlimit="10" x1="58.297" y1="42.117" x2="58.297" y2="21.117"/>
<line fill="none" stroke="#606060" stroke-width="2.5" stroke-linecap="round" stroke-linejoin="round" stroke-miterlimit="10" x1="131.277" y1="21.867" x2="131.277" y2="42.533"/>
<line fill="none" stroke="#606060" stroke-width="2.5" stroke-linecap="round" stroke-linejoin="round" stroke-miterlimit="10" x1="162.985" y1="21.867" x2="162.985" y2="42.533"/>
<line fill="none" stroke="#606060" stroke-width="2.5" stroke-linecap="round" stroke-linejoin="round" stroke-miterlimit="10" x1="136.027" y1="42.117" x2="136.027" y2="21.117"/>
<path fill="none" stroke="#606060" stroke-width="2.5" stroke-linecap="round" stroke-linejoin="round" stroke-miterlimit="10" d="
	M58.297,27.158c2.451,0,4.438,2.089,4.438,4.667s-1.987,4.667-4.438,4.667"/>
<path fill="none" stroke="#606060" stroke-width="2.5" stroke-linecap="round" stroke-linejoin="round" stroke-miterlimit="10" d="
	M136.027,27.158c2.451,0,4.438,2.089,4.438,4.667s-1.987,4.667-4.438,4.667"/>
<line fill="none" stroke="#606060" stroke-width="2.5" stroke-linecap="round" stroke-linejoin="round" stroke-miterlimit="10" x1="154.985" y1="42.117" x2="154.985" y2="21.117"/>
<path fill="none" stroke="#606060" stroke-width="2.5" stroke-linecap="round" stroke-linejoin="round" stroke-miterlimit="10" d="
	M154.985,27.158c2.451,0,4.438,2.089,4.438,4.667s-1.987,4.667-4.438,4.667"/>
<polyline fill="none" stroke="#606060" stroke-width="2.5" stroke-linecap="round" stroke-linejoin="round" stroke-miterlimit="10" points="
	65.672,21.554 65.672,21.867 65.672,42.117 "/>
<path fill="none" stroke="#606060" stroke-width="2.5" stroke-linecap="round" stroke-linejoin="round" stroke-miterlimit="10" d="
	M73.422,42.533c0,0,0-6.042,0-9.042s-5.573-10-7.667-10"/>
<line fill="none" stroke="#606060" stroke-width="2.5" stroke-linecap="round" stroke-linejoin="round" stroke-miterlimit="10" x1="83.277" y1="21.554" x2="83.277" y2="42.117"/>
<path fill="none" stroke="#606060" stroke-width="2.5" stroke-linecap="round" stroke-linejoin="round" stroke-miterlimit="10" d="
	M90.735,42.533c0,0-5.063-5.729-5.063-7.042c0-1.673,3.625-3.955,3.625-5.625c0-2.368-6.021-7.313-6.021-7.313"/>
<line fill="none" stroke="#606060" stroke-width="2.5" stroke-linecap="round" stroke-linejoin="round" stroke-miterlimit="10" x1="93.693" y1="21.867" x2="93.693" y2="42.533"/>
<line fill="none" stroke="#606060" stroke-width="2.5" stroke-linecap="round" stroke-linejoin="round" stroke-miterlimit="10" x1="109.027" y1="21.867" x2="109.027" y2="42.533"/>
<line fill="none" stroke="#606060" stroke-width="2.5" stroke-linecap="round" stroke-linejoin="round" stroke-miterlimit="10" x1="105.5" y1="34.45" x2="112.443" y2="28.283"/>
<line fill="none" stroke="#606060" stroke-width="2.5" stroke-linecap="round" stroke-linejoin="round" stroke-miterlimit="10" x1="190.36" y1="21.867" x2="190.36" y2="42.533"/>
<line fill="none" stroke="#606060" stroke-width="2.5" stroke-linecap="round" stroke-linejoin="round" stroke-miterlimit="10" x1="186.833" y1="34.45" x2="193.777" y2="28.283"/>
<line fill="none" stroke="#606060" stroke-width="2.5" stroke-linecap="round" stroke-linejoin="round" stroke-miterlimit="10" x1="144.75" y1="21.867" x2="144.75" y2="42.533"/>
<line fill="none" stroke="#606060" stroke-width="2.5" stroke-linecap="round" stroke-linejoin="round" stroke-miterlimit="10" x1="148.277" y1="34.45" x2="141.333" y2="28.283"/>
<line fill="none" stroke="#606060" stroke-width="2.5" stroke-linecap="round" stroke-linejoin="round" stroke-miterlimit="10" x1="169.36" y1="21.867" x2="169.36" y2="42.533"/>
<line fill="none" stroke="#606060" stroke-width="2.5" stroke-linecap="round" stroke-linejoin="round" stroke-miterlimit="10" x1="172.886" y1="34.45" x2="165.943" y2="28.283"/>
<polyline fill="none" stroke="#606060" stroke-width="2.5" stroke-linecap="round" stroke-linejoin="round" stroke-miterlimit="10" points="
	195.86,26.554 202.36,21.867 202.36,42.533 "/>
<line fill="none" stroke="#606060" stroke-width="2.5" stroke-linecap="round" stroke-linejoin="round" stroke-miterlimit="10" x1="209.36" y1="27.158" x2="202.36" y2="21.867"/>
<line fill="none" stroke="#606060" stroke-width="2.5" stroke-linecap="round" stroke-linejoin="round" stroke-miterlimit="10" x1="40.222" y1="30.197" x2="40.222" y2="30.447"/>
<line fill="none" stroke="#606060" stroke-width="2.5" stroke-linecap="round" stroke-linejoin="round" stroke-miterlimit="10" x1="40.222" y1="36.255" x2="40.222" y2="36.505"/>
<line fill="none" stroke="#606060" stroke-width="2.5" stroke-linecap="round" stroke-linejoin="round" stroke-miterlimit="10" x1="77.597" y1="30.197" x2="77.597" y2="30.447"/>
<line fill="none" stroke="#606060" stroke-width="2.5" stroke-linecap="round" stroke-linejoin="round" stroke-miterlimit="10" x1="77.597" y1="36.255" x2="77.597" y2="36.505"/>
<line fill="none" stroke="#606060" stroke-width="2.5" stroke-linecap="round" stroke-linejoin="round" stroke-miterlimit="10" x1="116.013" y1="30.197" x2="116.013" y2="30.447"/>
<line fill="none" stroke="#606060" stroke-width="2.5" stroke-linecap="round" stroke-linejoin="round" stroke-miterlimit="10" x1="116.013" y1="36.255" x2="116.013" y2="36.505"/>
<line fill="none" stroke="#606060" stroke-width="2.5" stroke-linecap="round" stroke-linejoin="round" stroke-miterlimit="10" x1="150.513" y1="30.197" x2="150.513" y2="30.447"/>
<line fill="none" stroke="#606060" stroke-width="2.5" stroke-linecap="round" stroke-linejoin="round" stroke-miterlimit="10" x1="150.513" y1="36.255" x2="150.513" y2="36.505"/>
</svg>
