<?xml version="1.0" encoding="utf-8"?>
<!-- Generator: Adobe Illustrator 17.0.0, SVG Export Plug-In . SVG Version: 6.00 Build 0)  -->
<!DOCTYPE svg PUBLIC "-//W3C//DTD SVG 1.1//EN" "http://www.w3.org/Graphics/SVG/1.1/DTD/svg11.dtd">
<svg version="1.1" id="Layer_1" xmlns="http://www.w3.org/2000/svg" xmlns:xlink="http://www.w3.org/1999/xlink" x="0px" y="0px"
	 width="89px" height="44.522px" viewBox="0 0 89 44.522" enable-background="new 0 0 89 44.522" xml:space="preserve">
<path fill="#0A0A0A" d="M189.988,0H0v-166h189.988V0z M189.988-138.55c0,0-2.627-0.003-6.569-0.007
	c-3.972,0.007-9.268,0.016-14.564,0.025c-5.319,0.026-10.707,0.167-14.768,0.336c-2.024,0.068-3.741,0.204-4.929,0.262
	c-0.095,0.006-0.187,0.011-0.275,0.016l-0.001,0c0.323,4.579,4.062,8.027,8.367,7.901c0,0,1.453-0.069,3.636-0.103
	c2.182-0.055,5.091-0.105,8.001-0.121c5.819-0.014,11.639-0.028,11.639-0.028c4.331,0.005,7.843,3.721,7.842,8.3l0,0
	c1.034,0.001,1.62,0.002,1.62,0.002V-138.55z M86.47,0c0,0,0-10.515,0-21.03c-0.002-2.63,0.091-5.16,0.128-7.585
	c0.024-1.206,0.048-2.371,0.07-3.476c0.049-1.104,0.095-2.148,0.137-3.111c0.093-2.038,0.17-3.716,0.222-4.845l-0.002,0
	c-4.571-0.27-8.437,3.036-8.635,7.383c0,0-0.031,1.454-0.077,3.636c-0.032,2.182-0.132,5.091-0.135,8c0,5.819,0,11.639,0,11.639
	c0,4.332-3.712,7.843-8.291,7.843v0c0,0.989,0,1.547,0,1.547H86.47z"/>
<g>
	<path fill="none" stroke="#606060" stroke-width="2.5" stroke-miterlimit="10" d="M70.547-42.611c0,0-0.124,2.692-0.309,6.73
		c-0.044,1.009-0.092,2.103-0.143,3.26c-0.024,1.157-0.049,2.377-0.075,3.64c-0.039,2.512-0.134,5.246-0.132,7.882
		c0,10.55,0,21.1,0,21.1"/>
	<path fill="none" stroke="#606060" stroke-width="2.5" stroke-miterlimit="10" d="M87.101-41.625c0,0-0.118,2.569-0.294,6.422
		c-0.042,0.963-0.089,2.007-0.137,3.111c-0.022,1.105-0.046,2.271-0.07,3.476c-0.037,2.424-0.13,4.954-0.128,7.585
		c0,10.515,0,21.03,0,21.03"/>
</g>
<line fill="none" stroke="#606060" stroke-width="2.5" stroke-linecap="round" stroke-miterlimit="10" x1="86.45" y1="44.522" x2="86.45" y2="0"/>
<line fill="none" stroke="#606060" stroke-width="2.5" stroke-linecap="round" stroke-miterlimit="10" x1="69.868" y1="44.522" x2="69.868" y2="0"/>
<path fill="none" stroke="#606060" stroke-width="2.5" stroke-linecap="round" stroke-miterlimit="10" d="M69.878,42.816
	c4.579,0,8.291-3.712,8.291-8.291V9.926c0-4.579,3.712-8.291,8.291-8.291"/>
</svg>
