<?xml version="1.0" encoding="utf-8"?>
<!-- Generator: Adobe Illustrator 17.0.0, SVG Export Plug-In . SVG Version: 6.00 Build 0)  -->
<!DOCTYPE svg PUBLIC "-//W3C//DTD SVG 1.1//EN" "http://www.w3.org/Graphics/SVG/1.1/DTD/svg11.dtd">
<svg version="1.1" id="Layer_1" xmlns="http://www.w3.org/2000/svg" xmlns:xlink="http://www.w3.org/1999/xlink" x="0px" y="0px"
	 width="268px" height="196px" viewBox="0 0 268 196" enable-background="new 0 0 268 196" xml:space="preserve">
<rect x="0" y="149.992" fill="#0A0A0A" width="268" height="46.008"/>
<path fill="none" stroke="#606060" stroke-width="2.5" stroke-linecap="round" stroke-linejoin="round" stroke-miterlimit="10" d="
	M184.534,109.825c10.69,0.907,21.688,2.512,31.973,5.639c11.237,3.416,24.739,11.079,26.966,23.78
	c1.277,7.283-2.11,13.943-8.679,17.267c-10.94,5.536-23.596,3.425-35.458,3.425c-7.774,0-58.643-5.307-97.679-4.067"/>
<path fill="none" stroke="#606060" stroke-width="2.5" stroke-linecap="round" stroke-linejoin="round" stroke-miterlimit="10" d="
	M105.243,178.033c21.667,0,78.017,2.977,88.941,2.977c8.892,0,32.619-0.631,36.512-1.478c3.741-0.813,7.431-1.856,11.028-3.169
	c3.508-1.28,6.93-2.802,10.213-4.584c7.159-3.886,12.402-9.784,13.261-18.104c1.163-11.262-0.267-24.831-7.948-33.655
	c-9.592-11.02-24.246-17.603-38.203-20.975c-9.695-2.343-33.157-4.069-35.616-4.217"/>
<path fill="none" stroke="#606060" stroke-width="2.5" stroke-linecap="round" stroke-linejoin="round" stroke-miterlimit="10" d="
	M175.659,87.033c4.637,3.361,8.813,6.853,9.233,12.947c0.214,3.104,0.194,6.507-0.604,9.532c-0.459,1.741-1.321,3.949-2.521,5.329
	c-1.476,1.698-5.264,1.503-7.264,1.478c-0.624-0.008-6.773-0.171-6.773-0.171c-0.094-3.374-0.744-6.514-0.46-9.896
	c0.041-0.49,0.09-0.98,0.139-1.47"/>
<path fill="none" stroke="#606060" stroke-width="2.5" stroke-linecap="round" stroke-linejoin="round" stroke-miterlimit="10" d="
	M149.034,102.471c2.371,1.791,4.791,3.455,7.344,4.978c2.42,1.443,4.994,2.931,6.517,5.393c1.531,2.476,1.584,5.615-0.536,7.776
	c-1.61,1.641-5.323,3.096-7.443,1.524c-2.296-1.703,0.826-4.412,2.083-5.641c0.291-0.285,0.601-0.554,0.903-0.828
	c-2.625-1.75-5.067-3.658-8.21-4.367c-3.516-0.793-6.959,0.612-10.438-0.057c-3.359-0.646-6.542-2.527-8.723-5.143
	c-1.44-1.726-2.98-4.228-1.451-6.404c1.576-2.243,3.428-1.455,2.902-4.762c-0.834-5.245,7.295-7.778,11.095-7.698"/>
<path fill="none" stroke="#606060" stroke-width="2.5" stroke-linecap="round" stroke-linejoin="round" stroke-miterlimit="10" d="
	M138.659,81.742c-2.076,0.346-9.234,0.336-5.48-3.524c3.24-3.331,5.405,1.006,5.839,3.811c0.279,1.802,0.566,3.501,1.224,5.213"/>
<path fill="none" stroke="#606060" stroke-width="2.5" stroke-linecap="round" stroke-linejoin="round" stroke-miterlimit="10" d="
	M143.492,106.325c-2.329,0.564-3.378,3.147-1.24,4.814c1.891,1.474,5.397-0.437,4.419-2.93c-0.481-1.226-2.028-1.484-3.179-1.634"/>
<path fill="none" stroke="#606060" stroke-width="2.5" stroke-linecap="round" stroke-linejoin="round" stroke-miterlimit="10" d="
	M147.492,98.408c-3.549-0.2-6.379,2.368-5.327,6.166c1.135,4.097,6.078,2.392,6.923-0.992c0.489-1.958-0.59-3.622-1.764-5.09"/>
<path fill="none" stroke="#606060" stroke-width="2.5" stroke-linecap="round" stroke-linejoin="round" stroke-miterlimit="10" d="
	M153.492,91.075c-3.058,0.267-6.97,2.081-6.362,5.877c0.633,3.949,5.113,1.397,6.189-0.903c0.708-1.514,0.492-3.039-0.077-4.558"/>
<path fill="none" stroke="#606060" stroke-width="2.5" stroke-linecap="round" stroke-linejoin="round" stroke-miterlimit="10" d="
	M152.3,90.065c1.903,3.202,6.805,1.489,7.02-2.02C159.7,81.826,148.866,84.284,152.3,90.065z"/>
<path fill="none" stroke="#606060" stroke-width="2.5" stroke-linecap="round" stroke-linejoin="round" stroke-miterlimit="10" d="
	M141.409,103.325c-1.52-0.715-4.015-2.074-4.825-3.484c2.67-0.781,5.222-1.193,8.003-0.875c2.95,0.337,5.85,0.992,8.809,1.296
	c2.852,0.293,5.697,0.498,8.401,1.53c2.557,0.976,4.83,2.542,7.286,3.73c2.507,1.213,5.145,1.994,7.844,2.651
	c0.327,0.08,0.654,0.158,0.982,0.235"/>
<path fill="none" stroke="#606060" stroke-width="2.5" stroke-linecap="round" stroke-linejoin="round" stroke-miterlimit="10" d="
	M177.826,89.408c0.502,3.976,0.558,7.936,0.693,11.934c0.084,2.486,0.276,8.651-3.354,9.075c-1.8,0.21-2.756-1.837-3.422-3.176"/>
<path fill="none" stroke="#606060" stroke-width="2.5" stroke-linecap="round" stroke-linejoin="round" stroke-miterlimit="10" d="
	M188.742,74.658c1.31-0.612,2.772-1.092,4.138-1.73c6.154-0.496,11.751,0.713,17.83,1.117c3.453,0.229,10.356-0.738,11.895-4.454
	c0.792-1.912-0.62-4.622,0.506-6.404c3.258-5.155,10.283,6.932,4.398,11.876c-3.942,3.31-14.934,3.265-20.033,3.248
	c-4.671-0.016-9.656,0.027-14.04,1.799c-0.682,0.276-1.358,0.576-2.028,0.881"/>
<path fill="none" stroke="#606060" stroke-width="2.5" stroke-linecap="round" stroke-linejoin="round" stroke-miterlimit="10" d="
	M168.742,93.992c1.898-8.372,4.137-17.218,11.728-22.248c7.081-4.691,16.087-4.754,23.393-8.981
	c2.666-1.543,8.116-5.735,8.948-8.864c-1.433-0.341-3.927-0.853-4.525-2.42c-1.222-3.204,3.683-5.076,6.116-4.511
	c8.783,2.04,2.974,12.374-1.792,15.498c-2.671,1.751-5.681,2.684-7.634,5.456c-1.016,1.442-1.65,3.583-2.234,5.236"/>
<path fill="none" stroke="#606060" stroke-width="2.5" stroke-linecap="round" stroke-linejoin="round" stroke-miterlimit="10" d="
	M179.784,83.908c2.49,3.177,6.993,6.012,10.446,2.197c3.816-4.216-1.695-6.435-5.37-5.703c-4.092,0.814-7.531,3.088-9.384,6.818
	c-1.519,3.058-3.231,9.698-7.984,8.013c-4.616-1.637-4.053-6.923,0.581-7.572c0.562-0.079,1.144-0.105,1.712-0.128"/>
<path fill="none" stroke="#606060" stroke-width="2.5" stroke-linecap="round" stroke-linejoin="round" stroke-miterlimit="10" d="
	M143.284,79.658c1.283-0.984,2.298-2.176,2.752-3.748c2.548-8.827-7.396-13.962-12.189-19.208
	c-5.861-6.416-10.323-13.28-3.019-20.746c2.949-3.014,7.834-2.34,8.964,1.831c1.89,6.978-4.251,0.791-5.258,1.549
	c-3.662,2.759-2.22,7.508,0.953,10.04c2.691,2.147,5.99,3.623,9.018,5.228c3.23,1.712,6.579,3.331,9.508,5.539
	c2.736,2.062,5.364,4.734,7.164,7.662c2.143,3.486,1.904,6.534,0.091,10.103c2.884,2.413,6.277,5.414,10.14,5.875"/>
<path fill="none" stroke="#606060" stroke-width="2.5" stroke-linecap="round" stroke-linejoin="round" stroke-miterlimit="10" d="
	M150.034,63.533c-1.685-3.326-7.553-2.913-7.125,1.375"/>
<path fill="none" stroke="#606060" stroke-width="2.5" stroke-linecap="round" stroke-linejoin="round" stroke-miterlimit="10" d="
	M152.409,77.908c8.143-0.914,4.281-11.175-2.169-9.934c-1.527,0.294-2.902,1.352-4.081,2.309"/>
<path fill="none" stroke="#606060" stroke-width="2.5" stroke-linecap="round" stroke-linejoin="round" stroke-miterlimit="10" d="
	M134.159,89.408c-3.671-3.082-7.688-5.935-10.548-9.842c-1.843-2.518-5.354-8.887,0.702-8.824c1.74,0.018,1.831,1.304,3.267,1.613
	c3.012,0.649,3.095-2.304,6.285-0.602c3.072,1.639,6.302,3.146,8.802,5.636c3.032,3.02,5.579,6.467,8.036,9.958
	c0.278,0.394,0.554,0.79,0.83,1.185"/>
<path fill="none" stroke="#606060" stroke-width="2.5" stroke-linecap="round" stroke-linejoin="round" stroke-miterlimit="10" d="
	M132.159,91.908c-2.86-0.219-6.657-6.194-6.375-8.875"/>
<path fill="none" stroke="#606060" stroke-width="2.5" stroke-linecap="round" stroke-linejoin="round" stroke-miterlimit="10" d="
	M127.659,100.033c-3.444-3.912-9.528-9.19-5.623-14.85c0.92-1.334,2.356-2.249,3.748-3.025"/>
<path fill="none" stroke="#606060" stroke-width="2.5" stroke-linecap="round" stroke-linejoin="round" stroke-miterlimit="10" d="
	M55.576,92.825c-9.466-0.854-15.959,1.004-22.927,7.515c-1.551,1.449-3.049,2.957-4.556,4.452c5.993,1.24,11.974,2.182,17.752-0.406
	c5.394-2.416,9.612-6.821,15.069-9.169c6.152-2.647,12.883-2.714,19.468-2.832c6.932-0.124,13.838-0.607,20.764-0.806
	c6.58-0.189,12.899,0.568,19.307,2.04c0.764,0.176,1.527,0.357,2.289,0.54"/>
<path fill="none" stroke="#606060" stroke-width="2.5" stroke-linecap="round" stroke-linejoin="round" stroke-miterlimit="10" d="
	M86.409,78.825c-4.324,0.415-8.536,1.292-12.787,2.157c-7.853,1.598-14.479,4.528-22.566,2.583
	c-7.969-1.917-14.295-0.867-22.297,0.127c1.16,1.38,2.467,2.647,4.018,3.578c5.511,3.306,11.576,2.061,16.912-0.901
	c5.098-2.83,9.988-2.479,15.663-4.036c6.058-1.662,12.248-2.407,18.478-3.123c6.571-0.754,12.947-0.67,19.507,0.169
	c5.886,0.753,11.588,1.924,17.183,3.921c0.631,0.225,1.26,0.457,1.887,0.69"/>
<path fill="none" stroke="#606060" stroke-width="2.5" stroke-linecap="round" stroke-linejoin="round" stroke-miterlimit="10" d="
	M35.576,99.658c-3.578,1.404-5.882-1.052-9.312-2.14c-3.268-1.037-6.678-1.547-9.971-2.49c3.1-0.646,5.521-2.811,8.123-4.455
	c2.457-1.553,4.91-2.092,7.494-3.248"/>
<path fill="none" stroke="#606060" stroke-width="2.5" stroke-linecap="round" stroke-linejoin="round" stroke-miterlimit="10" d="
	M58.409,84.158c-0.268,0.77-0.243,1.518-0.708,2.23c-0.286,0.438-1.288,1.114-1.322,1.651c-0.037,0.577,0.995,1.329,1.323,1.855
	c0.507,0.812,0.337,1.625,0.369,2.543c0.035,1.026,0.265,2.115,0.171,3.138"/>
<path fill="none" stroke="#606060" stroke-width="2.5" stroke-linecap="round" stroke-linejoin="round" stroke-miterlimit="10" d="
	M53.409,91.242c-0.352-0.475-0.075-0.947,0.003-1.45c0.108-0.703,0.019-0.828-0.301-1.396c-0.616-1.093-0.691-1.639,0.215-2.571"/>
<path fill="none" stroke="#606060" stroke-width="2.5" stroke-linecap="round" stroke-linejoin="round" stroke-miterlimit="10" d="
	M49.243,92.158c0.029-0.82,0.58-1.488-0.05-2.234c-0.58-0.686-1.495-0.194-2.025-0.685c0.786-0.537,1.624-1.005,2.494-1.39
	c0.957-0.424,1.838-1.105,2.748-1.607"/>
<path fill="none" stroke="#606060" stroke-width="2.5" stroke-linecap="round" stroke-linejoin="round" stroke-miterlimit="10" d="
	M66.909,82.575c-0.099,1.079-0.624,2.079-0.469,3.237c1.048-0.026,2.076,0.364,3.123,0.275c-0.044,2.139,0.719,4.318,0.929,6.404"/>
<path fill="none" stroke="#606060" stroke-width="2.5" stroke-linecap="round" stroke-linejoin="round" stroke-miterlimit="10" d="
	M74.159,81.742c0,2.9,0.031,5.86,0.246,8.752c0.054,0.723,0.022,1.466,0.337,2.081"/>
<path fill="none" stroke="#606060" stroke-width="2.5" stroke-linecap="round" stroke-linejoin="round" stroke-miterlimit="10" d="
	M78.974,79.105c-0.497,1.347-0.328,3.963-0.136,5.404c0.84,0.125,1.745,0.596,2.461,1.042c0.85,0.529,0.614,0.838,0.436,1.787
	c-0.328,1.75,0.105,3.205,0.257,4.931"/>
<path fill="none" stroke="#606060" stroke-width="2.5" stroke-linecap="round" stroke-linejoin="round" stroke-miterlimit="10" d="
	M85.159,82.742c-0.028,0.249,0.028,0.467,0.167,0.667"/>
<path fill="none" stroke="#606060" stroke-width="2.5" stroke-linecap="round" stroke-linejoin="round" stroke-miterlimit="10" d="
	M90.076,79.075c-0.09,0.786-0.326,1.558-0.412,2.379c-0.08,0.755-0.194,1.545-0.232,2.308c-0.075,1.527,0.202,6.597,0.415,8.105"/>
<path fill="none" stroke="#606060" stroke-width="2.5" stroke-linecap="round" stroke-linejoin="round" stroke-miterlimit="10" d="
	M88.326,87.575c0.177-1.345,1.767-2.337,2.583-3.25"/>
<path fill="none" stroke="#606060" stroke-width="2.5" stroke-linecap="round" stroke-linejoin="round" stroke-miterlimit="10" d="
	M94.993,79.492c-0.007,2.988,0.015,5.936,0.167,8.916c0.04,0.788,0.103,2.373,0.187,3.142"/>
<path fill="none" stroke="#606060" stroke-width="2.5" stroke-linecap="round" stroke-linejoin="round" stroke-miterlimit="10" d="
	M101.659,79.742c0.003,3.134-0.047,6.287,0.25,9.335c0.078,0.801,0.165,1.596,0.167,2.415"/>
<path fill="none" stroke="#606060" stroke-width="2.5" stroke-linecap="round" stroke-linejoin="round" stroke-miterlimit="10" d="
	M100.576,86.325c0.339,0.177,0.746-0.086,0.931-0.405c0.382-0.105,0.884-0.388,1.084-0.748c0.205-0.003,0.27-0.103,0.402-0.181"/>
<path fill="none" stroke="#606060" stroke-width="2.5" stroke-linecap="round" stroke-linejoin="round" stroke-miterlimit="10" d="
	M105.243,80.076c0.149,0.851,0.935,2.349,1.165,3.252c0.204,0.799,0.283,1.631,0.584,2.394c0.511,1.297,1.795,4.321,2.043,5.645"/>
<path fill="none" stroke="#606060" stroke-width="2.5" stroke-linecap="round" stroke-linejoin="round" stroke-miterlimit="10" d="
	M110.51,80.992c0.124,1.377-0.456,4.099-0.523,5.449c-0.064,1.285-0.203,3.763-0.203,5.051"/>
<path fill="none" stroke="#606060" stroke-width="2.5" stroke-linecap="round" stroke-linejoin="round" stroke-miterlimit="10" d="
	M114.867,81.56c-0.094,1.387-0.308,4.853-0.22,6.252c-1.181,0.29-1.28,0.525-0.809,1.667c0.074,0.04,0.15-0.01,0.226,0.024
	c0.024,0.075-0.011,0.153,0.026,0.224c0.768,0.374,1.325,1.242,2.069,1.514"/>
<path fill="none" stroke="#606060" stroke-width="2.5" stroke-linecap="round" stroke-linejoin="round" stroke-miterlimit="10" d="
	M117.993,83.033c-0.996,2.354-1.666,6.305-1.667,8.875"/>
<line fill="none" stroke="#606060" stroke-width="2.5" stroke-linecap="round" stroke-linejoin="round" stroke-miterlimit="10" x1="0" y1="155.869" x2="101.658" y2="155.869"/>
<line fill="none" stroke="#606060" stroke-width="2.5" stroke-linecap="round" stroke-linejoin="round" stroke-miterlimit="10" x1="0" y1="178.033" x2="105.243" y2="178.033"/>
</svg>
