<?xml version="1.0" encoding="utf-8"?>
<!-- Generator: Adobe Illustrator 17.0.0, SVG Export Plug-In . SVG Version: 6.00 Build 0)  -->
<!DOCTYPE svg PUBLIC "-//W3C//DTD SVG 1.1//EN" "http://www.w3.org/Graphics/SVG/1.1/DTD/svg11.dtd">
<svg version="1.1" xmlns="http://www.w3.org/2000/svg" xmlns:xlink="http://www.w3.org/1999/xlink" x="0px" y="0px"
	 width="519.667px" height="80.333px" viewBox="0 0 519.667 80.333" style="enable-background:new 0 0 519.667 80.333;"
	 xml:space="preserve">
<g id="Layer_1">
	<path style="fill:none;stroke:#606161;stroke-width:3;stroke-linecap:round;stroke-linejoin:round;stroke-miterlimit:10;" d="
		M83.786,39.914C68.25,28.498,51.788,17.917,30.6,17.917"/>
	<path style="fill:none;stroke:#606161;stroke-width:3;stroke-linecap:round;stroke-linejoin:round;stroke-miterlimit:10;" d="
		M312.507,39.954c-15.551-11.431-32.028-22.037-53.24-22.037c-23.757,0-41.574,13.304-58.804,26.17
		c-16.567,12.371-33.698,25.163-55.529,25.163c-21.518,0-38.47-12.428-54.816-24.63"/>
	<path style="fill:none;stroke:#606161;stroke-width:3;stroke-linecap:round;stroke-linejoin:round;stroke-miterlimit:10;" d="
		M317.854,43.925"/>
	<path style="fill:none;stroke:#606161;stroke-width:3;stroke-linecap:round;stroke-linejoin:round;stroke-miterlimit:10;" d="
		M487.933,14.417c-23.757,0-41.574,16.804-58.804,29.67C412.562,56.458,395.431,69.25,373.6,69.25
		c-21.517,0-38.467-12.426-54.813-24.628"/>
	<path style="fill:none;stroke:#606161;stroke-width:3;stroke-linecap:round;stroke-linejoin:round;stroke-miterlimit:10;" d="
		M324.619,40.239c15.51,11.55,30.415,22.011,48.981,22.011c19.506,0,34.97-11.547,51.341-23.771
		c18.146-13.55,36.91-24.062,62.992-24.062"/>
	<path style="fill:none;stroke:#606161;stroke-width:3;stroke-linecap:round;stroke-linejoin:round;stroke-miterlimit:10;" d="
		M95.977,40.257c15.502,11.543,30.4,21.993,48.957,21.993c19.506,0,34.969-11.547,51.34-23.771
		c18.146-13.55,36.911-27.562,62.993-27.562c24.216,0,42.123,12.078,59.085,24.651"/>
	<path style="fill:none;stroke:#606161;stroke-width:3;stroke-linecap:round;stroke-linejoin:round;stroke-miterlimit:10;" d="
		M30.6,10.917c24.222,0,42.132,12.084,59.098,24.66"/>
	<path style="fill:none;stroke:#606161;stroke-width:3;stroke-linecap:round;stroke-linejoin:round;stroke-miterlimit:10;" d="
		M193.972,39.971c-15.531-11.567-30.449-22.054-49.038-22.054c-19.506,0-34.969,11.547-51.341,23.771
		C75.447,55.239,56.683,65.75,30.6,65.75"/>
	<path style="fill:none;stroke:#606161;stroke-width:3;stroke-linecap:round;stroke-linejoin:round;stroke-miterlimit:10;" d="
		M422.629,39.964C407.102,28.4,392.186,17.917,373.6,17.917c-19.506,0-34.97,11.547-51.341,23.771
		c-18.146,13.55-36.91,27.562-62.993,27.562c-24.228,0-42.142-12.09-59.111-24.67"/>
	<path style="fill:none;stroke:#606161;stroke-width:3;stroke-linecap:round;stroke-linejoin:round;stroke-miterlimit:10;" d="
		M487.933,69.25c-24.141,0-42.012-12.003-58.927-24.534"/>
	<path style="fill:none;stroke:#606161;stroke-width:3;stroke-linecap:round;stroke-linejoin:round;stroke-miterlimit:10;" d="
		M434.742,40.249c15.537,11.417,32.001,22.001,53.191,22.001"/>
	<path style="fill:none;stroke:#606161;stroke-width:3;stroke-linecap:round;stroke-linejoin:round;stroke-miterlimit:10;" d="
		M206.078,40.25c15.536,11.416,32,22,53.189,22c23.757,0,41.575-13.304,58.804-26.17c16.567-12.371,33.698-25.163,55.529-25.163
		c21.538,0,38.501,12.451,54.862,24.664"/>
	<path style="fill:none;stroke:#606161;stroke-width:3;stroke-linecap:round;stroke-linejoin:round;stroke-miterlimit:10;" d="
		M30.6,65.75c23.757,0,41.574-16.804,58.805-29.67c16.567-12.371,33.698-25.163,55.529-25.163c21.533,0,38.493,12.445,54.849,24.655
		"/>
	
		<polyline style="fill:none;stroke:#606161;stroke-width:3;stroke-linecap:round;stroke-linejoin:round;stroke-miterlimit:10;" points="
		22.535,21.957 1.984,14.257 22.535,6.769 	"/>
	
		<circle style="fill:none;stroke:#606161;stroke-width:3;stroke-linecap:round;stroke-linejoin:round;stroke-miterlimit:10;" cx="26.994" cy="7.664" r="4.458"/>
	
		<circle style="fill:none;stroke:#606161;stroke-width:3;stroke-linecap:round;stroke-linejoin:round;stroke-miterlimit:10;" cx="26.994" cy="20.441" r="4.458"/>
	
		<polyline style="fill:none;stroke:#606161;stroke-width:3;stroke-linecap:round;stroke-linejoin:round;stroke-miterlimit:10;" points="
		496.508,58.677 517.059,66.376 496.508,73.864 	"/>
	
		<circle style="fill:none;stroke:#606161;stroke-width:3;stroke-linecap:round;stroke-linejoin:round;stroke-miterlimit:10;" cx="492.049" cy="71.97" r="4.458"/>
	
		<circle style="fill:none;stroke:#606161;stroke-width:3;stroke-linecap:round;stroke-linejoin:round;stroke-miterlimit:10;" cx="492.049" cy="59.192" r="4.458"/>
</g>
<g id="merchnav">
</g>
<g id="homenav">
</g>
<g id="musicnav">
</g>
</svg>
