<svg version="1.1" xmlns="http://www.w3.org/2000/svg" xmlns:xlink="http://www.w3.org/1999/xlink" x="0" y="0" width="519.67" height="80.33" viewBox="0 0 519.67 80.33" xml:space="preserve">
<style>
.s0{
	fill:none;
	stroke-linecap:round;
	stroke-linejoin:round;
	stroke-width:3;
	stroke:#606161;
}
.s1{
	fill:#FFF;
	opacity:0;
}
.svgnav{
	fill: #999;
}
.svgnav a:visited{
	fill: #999;
}
.svgnav a:hover{
	fill: #999;
}
.svgnav a:active{
	fill: #999;
}

</style>  <g id="Layer_1">
    <path d="M83.79 39.91C68.25 28.5 51.79 17.92 30.6 17.92" class="s0"/>
    <path d="M312.51 39.95c-15.55-11.43-32.03-22.04-53.24-22.04 -23.76 0-41.57 13.3-58.8 26.17 -16.57 12.37-33.7 25.16-55.53 25.16 -21.52 0-38.47-12.43-54.82-24.63" class="s0"/>
    <path d="M317.85 43.93" class="s0"/>
    <path d="M487.93 14.42c-23.76 0-41.57 16.8-58.8 29.67C412.56 56.46 395.43 69.25 373.6 69.25c-21.52 0-38.47-12.43-54.81-24.63" class="s0"/>
    <path d="M324.62 40.24c15.51 11.55 30.42 22.01 48.98 22.01 19.51 0 34.97-11.55 51.34-23.77 18.15-13.55 36.91-24.06 62.99-24.06" class="s0"/>
    <path d="M95.98 40.26c15.5 11.54 30.4 21.99 48.96 21.99 19.51 0 34.97-11.55 51.34-23.77 18.15-13.55 36.91-27.56 62.99-27.56 24.22 0 42.12 12.08 59.09 24.65" class="s0"/>
    <path d="M30.6 10.92c24.22 0 42.13 12.08 59.1 24.66" class="s0"/>
    <path d="M193.97 39.97c-15.53-11.57-30.45-22.05-49.04-22.05 -19.51 0-34.97 11.55-51.34 23.77C75.45 55.24 56.68 65.75 30.6 65.75" class="s0"/>
    <path d="M422.63 39.96C407.1 28.4 392.19 17.92 373.6 17.92c-19.51 0-34.97 11.55-51.34 23.77 -18.15 13.55-36.91 27.56-62.99 27.56 -24.23 0-42.14-12.09-59.11-24.67" class="s0"/>
    <path d="M487.93 69.25c-24.14 0-42.01-12-58.93-24.53" class="s0"/>
    <path d="M434.74 40.25c15.54 11.42 32 22 53.19 22" class="s0"/>
    <path d="M206.08 40.25c15.54 11.42 32 22 53.19 22 23.76 0 41.58-13.3 58.8-26.17 16.57-12.37 33.7-25.16 55.53-25.16 21.54 0 38.5 12.45 54.86 24.66" class="s0"/>
    <path d="M30.6 65.75c23.76 0 41.57-16.8 58.81-29.67 16.57-12.37 33.7-25.16 55.53-25.16 21.53 0 38.49 12.45 54.85 24.66" class="s0"/>
    <polyline points=" 22.54 21.96 1.98 14.26 22.54 6.77 " class="s0"/>
    <circle cx="26.99" cy="7.66" r="4.46" class="s0"/>
    <circle cx="26.99" cy="20.44" r="4.46" class="s0"/>
    <polyline points=" 496.51 58.68 517.06 66.38 496.51 73.86 " class="s0"/>
    <circle cx="492.05" cy="71.97" r="4.46" class="s0"/>
    <circle cx="492.05" cy="59.19" r="4.46" class="s0"/>
  </g>
  <g class="svgnav" >
    <a xlink:href="/" target="_top">
      <path d="M115.42 47.43c0-0.02 0.02-0.07 0.04-0.15s0.07-0.15 0.11-0.22 0.08-0.14 0.13-0.2 0.08-0.1 0.1-0.11c0.02-0.02 0.08-0.04 0.19-0.06s0.19-0.03 0.24-0.03c0.04-0.01 0.11-0.02 0.2-0.02s0.19-0.02 0.29-0.03 0.2-0.02 0.29-0.03 0.16-0.01 0.2-0.01c0.06-0.04 0.13-0.09 0.22-0.15s0.17-0.12 0.24-0.19 0.15-0.14 0.21-0.22 0.11-0.16 0.13-0.24c-0.02-0.05-0.02-0.15-0.02-0.3s0-0.31 0-0.49c0-0.17 0-0.33 0-0.48s0.01-0.25 0.03-0.3c0-0.09 0-0.24 0-0.43s0-0.41 0.01-0.66 0.01-0.5 0.02-0.77 0.02-0.52 0.02-0.76 0.01-0.46 0.02-0.65 0.02-0.33 0.03-0.42c0-0.03 0.01-0.09 0.03-0.18s0.03-0.15 0.03-0.18v-0.05c0-0.12-0.01-0.23-0.03-0.35s-0.03-0.24-0.03-0.37c0-0.03 0-0.07-0.01-0.11s-0.01-0.08-0.01-0.13c0-0.08 0.03-0.16 0.09-0.22v-3.34c0.05-0.14 0.08-0.27 0.09-0.38s0.01-0.22 0.01-0.34c0-0.17-0.02-0.32-0.05-0.46s-0.05-0.29-0.05-0.46c0-0.11 0.02-0.22 0.04-0.32s0.04-0.21 0.04-0.32v-0.11c0-0.02-0.01-0.05-0.02-0.09s-0.03-0.1-0.05-0.15 -0.04-0.11-0.06-0.16 -0.02-0.1-0.02-0.13c-0.06-0.15-0.14-0.23-0.25-0.25s-0.24-0.04-0.4-0.08c0-0.01-0.02-0.02-0.05-0.04s-0.07-0.04-0.11-0.06 -0.08-0.05-0.11-0.06 -0.06-0.03-0.07-0.04c-0.02 0-0.06-0.01-0.11-0.02s-0.11-0.04-0.16-0.06 -0.11-0.04-0.16-0.05 -0.08-0.02-0.09-0.02c-0.02-0.01-0.05-0.02-0.11-0.03s-0.12-0.02-0.19-0.03 -0.13-0.01-0.19-0.02 -0.1-0.01-0.11-0.01c-0.04-0.02-0.1-0.04-0.18-0.07s-0.16-0.06-0.23-0.11 -0.14-0.09-0.2-0.14 -0.09-0.11-0.09-0.18c0-0.06 0.02-0.13 0.06-0.21s0.09-0.16 0.15-0.23 0.13-0.14 0.2-0.2 0.14-0.08 0.2-0.08c0.03 0 0.11 0.01 0.24 0.02s0.21 0.03 0.24 0.04h0.03 0.04c0.41-0.09 0.81-0.15 1.21-0.16s0.81-0.02 1.21-0.02h0.74c0.12 0.08 0.21 0.13 0.28 0.15s0.15 0.03 0.25 0.03h0.2c0.01 0 0.05-0.01 0.13-0.03s0.12-0.03 0.13-0.03c0.17-0.04 0.36-0.07 0.57-0.09s0.41-0.02 0.6-0.02c0.16 0 0.31 0.01 0.46 0.02s0.27 0.04 0.39 0.08 0.22 0.11 0.31 0.21 0.17 0.23 0.24 0.39v0.06 0.03c-0.1 0.17-0.23 0.31-0.39 0.41s-0.33 0.18-0.51 0.23 -0.37 0.09-0.56 0.11 -0.38 0.04-0.56 0.04c-0.1 0.14-0.19 0.27-0.27 0.38 -0.07 0.09-0.13 0.18-0.18 0.27s-0.08 0.14-0.08 0.15l-0.04 2.68v0.24l-0.05 2.22c0.03 0.03 0.07 0.08 0.13 0.18s0.12 0.19 0.17 0.3 0.11 0.2 0.15 0.28 0.07 0.12 0.08 0.12h7.92c0.04 0.01 0.11 0.03 0.2 0.05s0.15 0.04 0.18 0.04c0.06 0 0.11-0.02 0.14-0.05s0.06-0.07 0.08-0.12 0.03-0.09 0.03-0.15 0.01-0.09 0.02-0.13c0-0.05 0.01-0.13 0.02-0.24s0.02-0.23 0.03-0.35 0.02-0.24 0.03-0.35 0.01-0.19 0.01-0.23v-2.3c0-0.01 0-0.04 0.01-0.11s0.02-0.13 0.03-0.2 0.02-0.13 0.03-0.19 0.01-0.09 0.01-0.1c0-0.03-0.01-0.08-0.04-0.15s-0.06-0.11-0.11-0.13v-1.76c0-0.02-0.01-0.05-0.04-0.11s-0.05-0.11-0.09-0.15c-0.01-0.01-0.02-0.02-0.02-0.04 -0.01-0.01-0.02-0.02-0.03-0.02s-0.02-0.02-0.03-0.02c-0.03 0-0.09 0-0.17-0.01s-0.17-0.02-0.26-0.02 -0.18-0.02-0.27-0.02 -0.14-0.01-0.18-0.01h-0.06c-0.13 0-0.25 0.01-0.35 0.04s-0.22 0.04-0.35 0.04c-0.11 0-0.24-0.02-0.38-0.05s-0.28-0.08-0.41-0.15 -0.23-0.15-0.32-0.25 -0.13-0.22-0.13-0.37c0-0.13 0.04-0.24 0.11-0.33s0.16-0.17 0.27-0.23 0.22-0.11 0.34-0.15 0.22-0.05 0.32-0.05c0.2 0 0.4 0.01 0.61 0.02s0.4 0.07 0.57 0.16h2.55c0.02 0 0.05 0 0.09-0.01s0.09-0.01 0.14-0.02 0.1-0.01 0.13-0.02 0.07-0.01 0.08-0.01c0.02-0.02 0.05-0.06 0.09-0.12s0.07-0.08 0.09-0.08h0.15c0.14 0 0.27 0.02 0.36 0.06s0.22 0.06 0.36 0.06c0.15 0 0.28-0.02 0.38-0.06s0.23-0.06 0.38-0.06h0.23c0.01 0 0.05 0.02 0.11 0.04s0.11 0.04 0.13 0.04c0.06 0.01 0.14 0.02 0.25 0.03s0.22 0.03 0.32 0.06 0.2 0.08 0.28 0.14 0.12 0.15 0.12 0.26c0 0.17-0.05 0.31-0.14 0.41s-0.21 0.18-0.34 0.24 -0.28 0.1-0.43 0.13 -0.28 0.05-0.39 0.07c-0.02 0-0.09 0-0.18 0.01s-0.2 0.01-0.31 0.02 -0.21 0.02-0.31 0.03 -0.16 0.02-0.18 0.03c-0.02 0-0.04 0.01-0.08 0.03s-0.06 0.03-0.07 0.05c-0.02 0.02-0.06 0.05-0.1 0.1s-0.09 0.1-0.13 0.16 -0.09 0.11-0.13 0.15 -0.07 0.08-0.08 0.11v0.06 0.03c0.02 0.09 0.03 0.17 0.05 0.23s0.03 0.12 0.05 0.17 0.03 0.11 0.04 0.18 0.01 0.14 0.01 0.24c0 0.39-0.01 0.77-0.04 1.14s-0.04 0.75-0.04 1.14c0 0.38 0.02 0.76 0.04 1.15s0.04 0.77 0.04 1.16c0 0.2-0.01 0.4-0.04 0.6s-0.04 0.4-0.04 0.61v0.34c0 0.03 0 0.09 0.01 0.2s0.02 0.22 0.03 0.34 0.02 0.23 0.03 0.34 0.01 0.17 0.01 0.2v1.54 1.54c-0.01 0.03-0.02 0.07-0.04 0.15s-0.03 0.15-0.05 0.22 -0.03 0.15-0.04 0.22 -0.02 0.11-0.02 0.14v0.08c0 0.09 0.01 0.18 0.03 0.27s0.03 0.17 0.03 0.25c0 0.2-0.01 0.39-0.03 0.58s-0.03 0.39-0.03 0.58v0.18c0 0.03 0.04 0.07 0.11 0.11 0.03 0.03 0.08 0.05 0.13 0.06 0.03 0.01 0.09 0.03 0.18 0.05s0.17 0.05 0.27 0.08 0.18 0.06 0.27 0.08 0.14 0.04 0.17 0.04c0.08 0.03 0.21 0.05 0.39 0.08s0.34 0.07 0.51 0.12 0.31 0.12 0.44 0.21 0.19 0.2 0.19 0.34c0 0.17-0.04 0.31-0.12 0.42s-0.18 0.2-0.3 0.26 -0.26 0.11-0.41 0.14 -0.29 0.04-0.42 0.04c-0.07 0-0.13 0-0.18-0.01s-0.11-0.03-0.17-0.08c-0.35-0.04-0.69-0.07-1-0.09s-0.63-0.02-0.96-0.02h-0.67 -1.43c-0.01 0.02-0.04 0.04-0.08 0.06s-0.1 0.04-0.16 0.06 -0.11 0.03-0.16 0.05 -0.09 0.03-0.11 0.04c-0.02 0-0.07-0.01-0.16-0.04s-0.16-0.04-0.19-0.04 -0.1 0-0.19-0.01 -0.19-0.01-0.29-0.01c-0.09 0-0.19 0-0.29 0.01s-0.16 0.01-0.2 0.01c-0.07-0.1-0.13-0.19-0.18-0.28s-0.08-0.18-0.08-0.29c0-0.12 0.02-0.22 0.06-0.32s0.09-0.18 0.15-0.25c0.02-0.01 0.06-0.02 0.12-0.04s0.13-0.04 0.2-0.06 0.14-0.04 0.21-0.06 0.11-0.03 0.14-0.04h0.17c0.2 0 0.38 0.02 0.56 0.06s0.36 0.06 0.53 0.06c0.19 0 0.32-0.07 0.41-0.22s0.13-0.3 0.13-0.47v-0.04c-0.02-0.02-0.04-0.05-0.06-0.09s-0.04-0.07-0.06-0.09v-0.48 -0.18c0-0.1 0-0.2 0.01-0.3s0.04-0.2 0.1-0.29v-0.51c0-0.52 0.02-1.03 0.04-1.53s0.04-1.02 0.04-1.54c0-0.23 0-0.41-0.01-0.53s-0.04-0.22-0.08-0.29 -0.12-0.1-0.23-0.12 -0.27-0.03-0.47-0.05c-0.02 0-0.09 0-0.18-0.01s-0.2-0.02-0.3-0.03 -0.2-0.02-0.3-0.03 -0.15-0.01-0.18-0.01c-0.22-0.01-0.44-0.02-0.65-0.04s-0.43-0.03-0.64-0.03c-0.19 0-0.37 0.03-0.56 0.08s-0.36 0.08-0.53 0.08c-0.13 0-0.27-0.03-0.41-0.08s-0.27-0.08-0.4-0.08h-0.18c-0.04 0-0.11 0-0.19 0.01s-0.17 0.02-0.27 0.03 -0.18 0.02-0.27 0.03 -0.14 0.01-0.16 0.01c-0.07 0.02-0.12 0.03-0.16 0.04s-0.08 0.02-0.11 0.03 -0.06 0.01-0.07 0.01c-0.02 0-0.07-0.01-0.16-0.04s-0.15-0.04-0.16-0.04h-0.99c-0.01 0-0.03 0-0.08-0.01s-0.09-0.02-0.14-0.02 -0.1-0.02-0.15-0.02 -0.07-0.01-0.08-0.01 -0.07 0-0.19-0.01 -0.21-0.01-0.27-0.01c-0.04 0-0.1 0-0.18 0.01s-0.13 0.01-0.15 0.01l-0.09 0.08v0.86c0 0.42 0.02 0.84 0.06 1.24s0.06 0.82 0.06 1.23c0 0.05 0 0.12-0.01 0.2s-0.01 0.16-0.01 0.24 0 0.14-0.01 0.2 -0.01 0.09-0.01 0.1 0 0.03-0.01 0.08 -0.02 0.09-0.03 0.13 -0.02 0.09-0.03 0.13 -0.01 0.07-0.01 0.09v0.05c0 0.46 0.09 0.83 0.27 1.12s0.47 0.52 0.88 0.7c0.03 0 0.08 0.03 0.18 0.08s0.16 0.08 0.2 0.08c0.09 0.03 0.21 0.05 0.35 0.06s0.27 0.04 0.4 0.08 0.24 0.1 0.33 0.17 0.14 0.19 0.14 0.34c0 0.16-0.04 0.29-0.13 0.39s-0.19 0.17-0.32 0.23 -0.26 0.09-0.4 0.11 -0.26 0.03-0.37 0.03h-3.82c-0.08 0.05-0.17 0.1-0.29 0.13s-0.23 0.07-0.35 0.09 -0.23 0.04-0.35 0.04 -0.21 0.01-0.3 0.01c-0.11 0-0.26-0.03-0.44-0.09s-0.37-0.14-0.55-0.23 -0.33-0.21-0.46-0.34S115.42 47.57 115.42 47.43z"/>
      <path d="M140.88 48.31c-0.09-0.05-0.19-0.09-0.3-0.11s-0.21-0.05-0.32-0.07 -0.21-0.04-0.3-0.07 -0.18-0.06-0.25-0.1c-0.03-0.02-0.09-0.07-0.17-0.13s-0.17-0.13-0.26-0.21 -0.18-0.15-0.27-0.22 -0.14-0.12-0.18-0.16c-0.06-0.05-0.14-0.12-0.24-0.22s-0.2-0.2-0.3-0.3 -0.19-0.19-0.27-0.28 -0.12-0.14-0.13-0.16c-0.01 0-0.03-0.04-0.08-0.11s-0.09-0.16-0.15-0.26 -0.12-0.2-0.18-0.31 -0.11-0.19-0.14-0.26c-0.04-0.08-0.09-0.19-0.16-0.31s-0.12-0.25-0.18-0.37 -0.1-0.25-0.14-0.37 -0.06-0.23-0.06-0.31v-2.2c0.07-0.19 0.13-0.38 0.18-0.58s0.08-0.41 0.09-0.63c0.03-0.05 0.07-0.14 0.13-0.27s0.13-0.26 0.21-0.4 0.15-0.27 0.22-0.39 0.12-0.21 0.15-0.26c0.13-0.21 0.27-0.4 0.42-0.56s0.32-0.3 0.5-0.43 0.37-0.24 0.56-0.35 0.41-0.22 0.63-0.34c0.22-0.11 0.47-0.19 0.74-0.24s0.53-0.11 0.77-0.19c0.09-0.04 0.18-0.09 0.27-0.13s0.19-0.07 0.3-0.07c0.02 0 0.04 0 0.07 0s0.05 0.01 0.06 0.03c0.01 0 0.03 0 0.06 0.01s0.07 0.02 0.11 0.03 0.08 0.02 0.11 0.03 0.06 0.01 0.07 0.01h0.62c0.12 0 0.22 0.02 0.3 0.07s0.15 0.1 0.22 0.15 0.14 0.1 0.2 0.15 0.15 0.07 0.24 0.07h0.57 0.22c0.01 0 0.03 0.01 0.07 0.04s0.08 0.05 0.11 0.08 0.07 0.06 0.11 0.08 0.06 0.04 0.06 0.04c0.01 0.03 0.04 0.05 0.09 0.06s0.08 0.03 0.1 0.05c0.01 0 0.03 0 0.07 0.01s0.08 0.02 0.13 0.03 0.1 0.02 0.15 0.03 0.08 0.02 0.1 0.03c0.06 0.03 0.1 0.06 0.13 0.11s0.05 0.1 0.06 0.15 0.03 0.1 0.05 0.15 0.05 0.09 0.09 0.12c0.01 0.01 0.03 0.03 0.07 0.05s0.08 0.05 0.11 0.08 0.07 0.06 0.11 0.08 0.05 0.04 0.05 0.05c0.02 0 0.04 0.01 0.06 0.03s0.03 0.04 0.03 0.06c0.05 0.05 0.11 0.11 0.18 0.19s0.14 0.15 0.22 0.23 0.13 0.14 0.18 0.2 0.07 0.09 0.07 0.1 0 0.04 0.01 0.09 0.02 0.11 0.03 0.17 0.02 0.11 0.02 0.17 0.01 0.08 0.01 0.09c0.01 0.03 0.03 0.08 0.05 0.16s0.05 0.16 0.08 0.25 0.06 0.17 0.08 0.25 0.05 0.13 0.06 0.16v2.55c0 0.03-0.01 0.07-0.02 0.15s-0.03 0.15-0.05 0.25 -0.04 0.18-0.06 0.27 -0.04 0.16-0.06 0.21c0 0.02-0.02 0.08-0.07 0.18s-0.07 0.16-0.08 0.18c-0.06 0.14-0.1 0.3-0.12 0.46s-0.08 0.3-0.17 0.42c0 0.01-0.02 0.04-0.08 0.09 -0.02 0.03-0.05 0.06-0.08 0.09 -0.13 0.17-0.25 0.37-0.35 0.6s-0.22 0.41-0.37 0.55c-0.15 0.15-0.33 0.28-0.53 0.38s-0.37 0.21-0.49 0.35c-0.02 0-0.05 0.02-0.09 0.06s-0.09 0.09-0.14 0.14 -0.09 0.1-0.13 0.15 -0.07 0.07-0.08 0.08c-0.02 0.01-0.07 0.03-0.14 0.05s-0.14 0.05-0.23 0.08 -0.17 0.06-0.25 0.08 -0.15 0.04-0.19 0.05c-0.02 0-0.07 0.01-0.17 0.02s-0.2 0.03-0.32 0.05 -0.24 0.04-0.36 0.06 -0.22 0.04-0.29 0.04h-0.09 -0.09c-0.06 0-0.16 0-0.32-0.01s-0.31-0.02-0.48-0.03 -0.33-0.02-0.48-0.03S140.93 48.31 140.88 48.31zM139.2 42.92c0 0.44 0.08 0.85 0.23 1.24s0.34 0.77 0.56 1.16c0.06 0.1 0.11 0.2 0.15 0.3s0.08 0.19 0.12 0.28 0.09 0.17 0.15 0.25 0.15 0.14 0.27 0.2c0.02 0.01 0.05 0.02 0.1 0.04s0.1 0.04 0.15 0.06 0.1 0.05 0.13 0.06 0.06 0.03 0.07 0.04c0.08 0.05 0.16 0.11 0.22 0.18s0.12 0.13 0.18 0.19 0.13 0.11 0.2 0.15 0.16 0.06 0.26 0.06c0.25 0 0.49-0.05 0.72-0.16s0.44-0.25 0.64-0.42 0.39-0.35 0.56-0.54 0.34-0.37 0.49-0.54c0.06-0.21 0.13-0.38 0.22-0.5s0.16-0.28 0.23-0.46c0.1-0.25 0.16-0.48 0.18-0.69s0.03-0.45 0.03-0.69c0-0.43-0.04-0.87-0.12-1.33s-0.2-0.89-0.37-1.32 -0.37-0.83-0.61-1.22 -0.53-0.72-0.86-1.01c-0.04 0-0.13 0-0.25-0.01s-0.21-0.01-0.25-0.01c-0.41 0-0.79 0.06-1.15 0.19s-0.66 0.36-0.89 0.71c-0.03 0.04-0.09 0.11-0.16 0.2s-0.12 0.15-0.13 0.17c-0.01 0-0.05 0.02-0.13 0.07s-0.11 0.07-0.11 0.08c-0.03 0.03-0.07 0.08-0.11 0.15s-0.06 0.11-0.08 0.15c0 0.01 0 0.04-0.01 0.1s-0.01 0.12-0.02 0.19 -0.02 0.13-0.03 0.2 -0.02 0.1-0.03 0.11c0 0.03-0.02 0.1-0.08 0.18s-0.08 0.14-0.08 0.16c-0.06 0.11-0.1 0.23-0.12 0.36s-0.05 0.25-0.08 0.37c-0.01 0.06-0.02 0.15-0.04 0.27s-0.03 0.24-0.05 0.36 -0.03 0.23-0.04 0.32 -0.02 0.16-0.02 0.18V42.92z"/>
      <path d="M158.89 47.44c0-0.03 0-0.07 0.01-0.12s0.02-0.07 0.03-0.07c0-0.02 0.04-0.06 0.12-0.13s0.12-0.12 0.12-0.16c0.02-0.01 0.04-0.06 0.06-0.15s0.03-0.15 0.03-0.18c0.02-0.04 0.04-0.07 0.08-0.09s0.08-0.03 0.13-0.04 0.09-0.02 0.14-0.04 0.08-0.04 0.11-0.08c0-0.02 0.01-0.06 0.04-0.1l0.05-0.08c0.12-0.44 0.19-0.88 0.22-1.32s0.04-0.88 0.04-1.32c0-0.03 0-0.08-0.01-0.14s-0.01-0.12-0.01-0.18 0-0.11-0.01-0.15 -0.01-0.07-0.01-0.08c0-0.06-0.02-0.15-0.05-0.29s-0.1-0.2-0.19-0.22c-0.02 0-0.05 0.01-0.09 0.03s-0.08 0.03-0.09 0.04c-0.02 0.03-0.07 0.07-0.16 0.14s-0.16 0.12-0.19 0.15c-0.11 0.08-0.18 0.18-0.2 0.31s-0.06 0.26-0.13 0.38c-0.02 0.02-0.04 0.05-0.08 0.09s-0.08 0.09-0.11 0.14 -0.07 0.1-0.11 0.13 -0.05 0.06-0.06 0.07c-0.12 0.17-0.2 0.36-0.24 0.56s-0.11 0.41-0.2 0.6c-0.01 0.03-0.04 0.11-0.11 0.24s-0.13 0.26-0.2 0.41 -0.13 0.28-0.2 0.41 -0.1 0.22-0.11 0.26c-0.06 0.14-0.1 0.28-0.11 0.39s-0.04 0.23-0.07 0.34 -0.07 0.21-0.13 0.3 -0.16 0.19-0.3 0.28c-0.19 0.12-0.38 0.18-0.57 0.18 -0.3 0-0.52-0.11-0.66-0.34 -0.14-0.22-0.26-0.44-0.35-0.65s-0.18-0.44-0.29-0.67c-0.02-0.08-0.05-0.15-0.07-0.2s-0.04-0.09-0.07-0.13 -0.05-0.08-0.08-0.13 -0.06-0.11-0.11-0.18c-0.06-0.09-0.13-0.23-0.22-0.42s-0.18-0.4-0.29-0.63 -0.22-0.46-0.34-0.7 -0.23-0.45-0.34-0.65 -0.22-0.36-0.32-0.49 -0.2-0.19-0.27-0.19c-0.09 0-0.17 0.04-0.22 0.13s-0.09 0.17-0.11 0.25c-0.04 0.44-0.07 0.84-0.09 1.21s-0.02 0.77-0.02 1.2c0 0.27 0.06 0.54 0.18 0.8s0.3 0.48 0.53 0.65c0.14 0.12 0.29 0.24 0.43 0.36s0.21 0.29 0.21 0.51c0 0.14-0.05 0.24-0.16 0.32s-0.23 0.13-0.39 0.17 -0.31 0.06-0.48 0.07 -0.31 0.01-0.42 0.01h-0.18c-0.03 0-0.07 0-0.11 0s-0.08 0-0.13-0.01c-0.05 0-0.1 0-0.15-0.01 -0.05 0-0.14 0-0.27-0.01s-0.27-0.02-0.41-0.02 -0.28-0.02-0.41-0.02 -0.22-0.02-0.27-0.02c-0.02-0.01-0.06-0.03-0.13-0.06s-0.14-0.08-0.21-0.13 -0.13-0.11-0.19-0.16 -0.08-0.11-0.07-0.16c0-0.02 0.02-0.07 0.06-0.16s0.07-0.15 0.09-0.2c0.22-0.36 0.44-0.73 0.67-1.08s0.42-0.73 0.59-1.11v-0.06c0-0.09-0.01-0.19-0.04-0.29s-0.04-0.2-0.04-0.31v-0.22c0-0.02 0-0.08 0.01-0.15s0.02-0.16 0.03-0.25 0.02-0.17 0.03-0.25 0.01-0.13 0.01-0.15 0-0.08 0-0.2 0-0.25 0.01-0.4 0.01-0.3 0.01-0.46 0-0.28 0-0.37c0-0.05 0-0.14 0-0.27s0-0.27-0.01-0.42 -0.01-0.29-0.01-0.42 0-0.23 0-0.29c-0.04-0.08-0.08-0.19-0.13-0.3s-0.09-0.24-0.13-0.36 -0.1-0.24-0.16-0.35 -0.13-0.21-0.2-0.3c-0.05-0.06-0.11-0.12-0.19-0.18s-0.15-0.13-0.21-0.2 -0.12-0.15-0.16-0.23 -0.07-0.17-0.07-0.26c0-0.13 0.03-0.25 0.1-0.35s0.14-0.2 0.24-0.29 0.21-0.14 0.33-0.19 0.24-0.07 0.36-0.07c0.16 0 0.35 0.02 0.56 0.05s0.42 0.08 0.62 0.15 0.39 0.15 0.56 0.25 0.31 0.22 0.41 0.36c0.09 0.12 0.15 0.25 0.17 0.39s0.06 0.28 0.11 0.41c0.06 0.14 0.13 0.27 0.22 0.39s0.16 0.24 0.22 0.38c0 0.03 0.02 0.1 0.04 0.2s0.04 0.16 0.04 0.18c0.08 0.29 0.18 0.56 0.32 0.82s0.29 0.51 0.47 0.76c0.01 0.02 0.03 0.05 0.07 0.1s0.08 0.1 0.13 0.16 0.1 0.11 0.15 0.17 0.08 0.09 0.1 0.11c0.03 0.08 0.06 0.13 0.08 0.17s0.04 0.1 0.07 0.17c0.02 0.02 0.05 0.06 0.1 0.14s0.08 0.13 0.09 0.15c0 0.01 0 0.03 0.01 0.07s0.02 0.08 0.03 0.13 0.02 0.1 0.03 0.14 0.02 0.07 0.02 0.09c0.02 0.02 0.06 0.07 0.13 0.17s0.12 0.16 0.13 0.19c0.01 0.02 0.03 0.05 0.06 0.11s0.07 0.12 0.11 0.19 0.07 0.14 0.1 0.2 0.05 0.09 0.06 0.1c0.04 0.05 0.09 0.1 0.15 0.13s0.12 0.06 0.18 0.06h0.04c0.03-0.01 0.06-0.02 0.1-0.05s0.07-0.04 0.08-0.05c0.01-0.04 0.02-0.08 0.04-0.11 0.01-0.06 0.03-0.1 0.05-0.13 0.12-0.21 0.26-0.41 0.43-0.6s0.32-0.38 0.44-0.57c0.02-0.02 0.05-0.07 0.1-0.16s0.08-0.15 0.08-0.2c0.01-0.01 0.02-0.04 0.03-0.09s0.02-0.11 0.03-0.16 0.02-0.11 0.03-0.16 0.02-0.08 0.04-0.1c0.05-0.13 0.12-0.26 0.22-0.39s0.19-0.26 0.29-0.39 0.2-0.26 0.29-0.4 0.17-0.27 0.23-0.41c0.09-0.17 0.15-0.36 0.18-0.56s0.07-0.4 0.11-0.59l0.03-0.08c0.02-0.05 0.03-0.08 0.04-0.09 0.11-0.16 0.24-0.34 0.38-0.53s0.31-0.37 0.48-0.54 0.37-0.3 0.57-0.42 0.42-0.17 0.65-0.17c0.15 0 0.3 0.04 0.43 0.12s0.25 0.18 0.36 0.3 0.18 0.25 0.24 0.41 0.08 0.3 0.08 0.43c0 0.29-0.04 0.58-0.13 0.86s-0.13 0.58-0.13 0.86c0 0.12 0.02 0.22 0.04 0.31s0.04 0.18 0.04 0.29c0 0.32-0.01 0.64-0.04 0.95s-0.04 0.63-0.04 0.95v0.57c0 0.03 0.02 0.09 0.04 0.18s0.04 0.15 0.04 0.17v0.2c0 0.08 0 0.14-0.01 0.2s-0.03 0.14-0.08 0.23v1.32c0 0.01 0.01 0.04 0.04 0.1s0.06 0.12 0.1 0.2 0.08 0.15 0.12 0.23 0.08 0.14 0.1 0.18c0.05 0.1 0.13 0.18 0.23 0.23s0.2 0.1 0.29 0.16 0.18 0.13 0.25 0.21 0.11 0.21 0.11 0.38c0 0.12-0.02 0.23-0.05 0.32s-0.11 0.19-0.22 0.29c-0.04 0.03-0.11 0.09-0.2 0.16s-0.15 0.11-0.16 0.11h-1.47c-0.03-0.02-0.08-0.04-0.15-0.06s-0.11-0.03-0.15-0.03h-0.01c-0.1 0-0.19 0.02-0.28 0.04s-0.18 0.04-0.28 0.04c-0.14 0-0.3-0.02-0.47-0.05s-0.33-0.09-0.49-0.16 -0.3-0.16-0.43-0.27 -0.22-0.24-0.29-0.39c-0.02 0-0.03-0.02-0.03-0.07S158.89 47.46 158.89 47.44z"/>
      <path d="M165.72 47.86c0-0.08 0.04-0.17 0.13-0.29s0.16-0.19 0.23-0.23c0.03-0.01 0.1-0.02 0.18-0.04s0.18-0.04 0.29-0.06 0.2-0.05 0.29-0.06 0.16-0.03 0.2-0.04c0.17-0.02 0.29-0.05 0.38-0.1s0.14-0.16 0.17-0.33c0.03-0.19 0.04-0.41 0.06-0.64s0.02-0.45 0.02-0.65v-0.18c0-0.02-0.01-0.08-0.04-0.15s-0.04-0.12-0.04-0.14c-0.01-0.03-0.02-0.11-0.02-0.23s-0.02-0.25-0.02-0.39 -0.02-0.27-0.02-0.39 -0.02-0.2-0.02-0.22c0-0.01-0.01-0.05-0.04-0.13s-0.04-0.13-0.04-0.15v-0.02 -0.04c0.13-0.96 0.19-1.92 0.19-2.86 0-0.25-0.02-0.49-0.05-0.72s-0.05-0.48-0.05-0.72v-0.2c-0.02-0.02-0.07-0.05-0.14-0.09s-0.11-0.07-0.13-0.09 -0.05-0.05-0.09-0.09 -0.07-0.08-0.09-0.09c-0.13-0.06-0.27-0.1-0.44-0.12s-0.32-0.05-0.47-0.09 -0.27-0.1-0.37-0.18 -0.15-0.22-0.15-0.41v-0.15c0-0.03 0-0.06 0.01-0.09 0.02-0.03 0.07-0.07 0.16-0.12s0.15-0.07 0.2-0.07h2.64c0.03 0.03 0.1 0.07 0.18 0.11s0.14 0.07 0.16 0.08h0.09c0.29 0 0.57-0.05 0.84-0.14s0.55-0.14 0.84-0.14h0.37c0.2 0.02 0.41 0.05 0.64 0.11s0.44 0.08 0.65 0.08c0.09 0 0.19-0.02 0.28-0.05s0.2-0.05 0.31-0.05h0.06c0.08 0.03 0.18 0.05 0.31 0.08s0.27 0.07 0.4 0.11 0.26 0.09 0.38 0.15 0.19 0.13 0.24 0.2c0.08 0.14 0.16 0.28 0.24 0.43s0.16 0.31 0.24 0.47 0.13 0.33 0.18 0.5 0.07 0.33 0.07 0.5c0 0.09-0.02 0.19-0.07 0.28s-0.12 0.16-0.21 0.2c-0.02 0.02-0.08 0.03-0.17 0.03s-0.15 0-0.18 0c-0.15 0-0.27-0.01-0.34-0.02s-0.14-0.05-0.19-0.09 -0.1-0.11-0.15-0.18 -0.11-0.16-0.2-0.26c-0.01-0.02-0.04-0.05-0.09-0.1s-0.11-0.1-0.16-0.16 -0.12-0.11-0.17-0.16 -0.09-0.08-0.11-0.1c-0.01-0.02-0.02-0.06-0.04-0.13s-0.02-0.12-0.02-0.13c-0.05-0.13-0.12-0.22-0.22-0.27s-0.2-0.09-0.32-0.11 -0.24-0.05-0.36-0.08 -0.23-0.08-0.34-0.15h-1.35c-0.11 0-0.2 0.04-0.29 0.11s-0.16 0.15-0.23 0.23c-0.18 0.22-0.28 0.47-0.31 0.76s-0.04 0.56-0.04 0.83c0 0.3 0 0.57 0.01 0.83s0.04 0.53 0.1 0.84c0.01 0.12 0.04 0.19 0.11 0.22s0.14 0.04 0.22 0.04h0.19c0.02 0 0.06-0.01 0.12-0.03s0.1-0.03 0.12-0.03c0.03-0.01 0.08-0.02 0.17-0.03s0.18-0.02 0.28-0.03 0.19-0.01 0.28-0.02 0.15-0.01 0.17-0.01c0.12-0.02 0.21-0.06 0.29-0.11s0.13-0.11 0.17-0.18 0.08-0.15 0.11-0.23 0.08-0.17 0.13-0.25c0.04-0.08 0.09-0.18 0.14-0.29s0.11-0.2 0.17-0.3 0.14-0.17 0.22-0.24 0.19-0.1 0.31-0.1c0.11 0 0.19 0.04 0.23 0.11s0.07 0.17 0.08 0.29c0.04 0.3 0.07 0.55 0.08 0.77s0.01 0.47 0.01 0.76v0.47c0 0.05 0 0.14-0.01 0.26s-0.02 0.25-0.02 0.38 -0.02 0.25-0.02 0.36 -0.02 0.19-0.02 0.22c0 0.04-0.01 0.11-0.04 0.2s-0.04 0.15-0.04 0.18v0.11 0.31c0 0.07 0 0.14-0.01 0.2s-0.02 0.12-0.06 0.17c-0.03 0.03-0.09 0.07-0.18 0.14s-0.15 0.11-0.18 0.13h-0.22c-0.04 0-0.08 0-0.11 0.01s-0.05 0.01-0.07 0.01c-0.05 0-0.09-0.03-0.11-0.09 -0.03-0.03-0.07-0.09-0.11-0.18s-0.07-0.15-0.08-0.2v-1.05c-0.01-0.11-0.04-0.2-0.1-0.27s-0.13-0.12-0.23-0.16 -0.2-0.06-0.31-0.07 -0.23-0.02-0.34-0.02h-0.48 -0.24c-0.08 0-0.17 0-0.25 0.01s-0.15 0.03-0.22 0.06 -0.12 0.08-0.16 0.14 -0.06 0.15-0.06 0.25v0.13c0.01 0.03 0.02 0.09 0.03 0.2s0.02 0.22 0.03 0.34 0.02 0.23 0.03 0.34 0.02 0.17 0.03 0.2v0.84 0.33c0 0.01 0.01 0.03 0.02 0.07s0.03 0.08 0.04 0.14 0.03 0.11 0.05 0.17 0.03 0.1 0.05 0.13c0.04 0.1 0.1 0.18 0.16 0.22s0.13 0.08 0.21 0.1 0.16 0.03 0.25 0.03 0.18 0.01 0.27 0.03c0.14 0.02 0.29 0.05 0.43 0.09s0.3 0.06 0.47 0.06h0.39c0.26 0 0.53-0.01 0.81-0.02s0.54-0.06 0.79-0.13c0.02 0 0.05-0.01 0.1-0.04s0.08-0.04 0.1-0.04c0.02-0.02 0.06-0.06 0.11-0.11s0.12-0.1 0.18-0.15 0.12-0.11 0.18-0.16 0.09-0.09 0.11-0.12c0.03-0.02 0.07-0.06 0.14-0.13s0.14-0.14 0.22-0.22 0.15-0.15 0.22-0.22 0.11-0.1 0.14-0.12c0.04-0.04 0.09-0.07 0.13-0.08s0.1-0.02 0.16-0.02h0.18c0.09 0 0.2 0 0.31 0.01s0.2 0.04 0.27 0.09c0.17 0.12 0.32 0.24 0.44 0.38s0.19 0.3 0.19 0.51v0.15c-0.01 0.03-0.02 0.09-0.04 0.16s-0.05 0.15-0.08 0.22 -0.06 0.15-0.09 0.21 -0.05 0.11-0.06 0.13c-0.04 0.07-0.12 0.15-0.24 0.24s-0.21 0.15-0.28 0.2c-0.05 0.03-0.12 0.06-0.2 0.1s-0.16 0.08-0.23 0.12 -0.14 0.07-0.2 0.1 -0.09 0.04-0.1 0.04h-7.4c-0.12 0.04-0.24 0.07-0.37 0.08s-0.26 0.01-0.39 0.01h-0.3 -0.6c-0.03 0-0.09-0.01-0.16-0.03s-0.11-0.04-0.11-0.06c-0.02-0.03-0.05-0.09-0.1-0.18S165.72 47.89 165.72 47.86z"/>
      <rect x="107.59" y="23.25" width="75.07" height="31.49" class="s1"/>
    </a>
    <a xlink:href="/index.php/music/" target="_top">
      <path d="M230.73 48.13h-2.4c-0.03 0-0.07-0.03-0.11-0.08s-0.07-0.12-0.11-0.19 -0.06-0.14-0.09-0.2 -0.04-0.09-0.04-0.1c0-0.17 0.06-0.32 0.18-0.46s0.26-0.2 0.4-0.2c0.04 0 0.13 0 0.25-0.01s0.26-0.01 0.39-0.01c0.13 0 0.25 0 0.37 0.01s0.2 0.01 0.24 0.01c0.03-0.02 0.06-0.04 0.1-0.06s0.07-0.04 0.08-0.04c0.03-0.01 0.06-0.04 0.11-0.09s0.1-0.11 0.15-0.16 0.11-0.11 0.16-0.16 0.08-0.09 0.1-0.11c0-0.04 0-0.12 0.01-0.23s0.02-0.24 0.03-0.37 0.02-0.26 0.03-0.37 0.01-0.2 0.01-0.25c0.02-0.02 0.04-0.08 0.06-0.2s0.04-0.19 0.06-0.23v-0.57 -0.23c0-0.02 0.01-0.05 0.03-0.11s0.03-0.12 0.05-0.19 0.03-0.13 0.05-0.19 0.03-0.1 0.03-0.11c0.06-0.29 0.12-0.6 0.19-0.93s0.1-0.64 0.1-0.94c0-0.02-0.02-0.07-0.06-0.16s-0.06-0.16-0.06-0.19v-0.81c0-0.38 0.01-0.76 0.04-1.14s0.08-0.75 0.17-1.12c0-0.01 0.01-0.04 0.03-0.09s0.03-0.11 0.05-0.16 0.03-0.12 0.05-0.17 0.03-0.09 0.03-0.11c0-0.04 0.01-0.15 0.03-0.32s0.04-0.35 0.06-0.55 0.04-0.39 0.06-0.56 0.03-0.29 0.03-0.34c0-0.01 0-0.04 0.01-0.1s0.02-0.12 0.03-0.19 0.02-0.13 0.03-0.19 0.01-0.09 0.01-0.1c0-0.02-0.01-0.05-0.02-0.09s-0.04-0.09-0.06-0.14 -0.05-0.09-0.07-0.13 -0.03-0.07-0.03-0.08c0-0.02 0.02-0.08 0.04-0.15s0.05-0.12 0.06-0.14c0.01-0.02 0.02-0.06 0.03-0.12s0.02-0.11 0.03-0.16 0.02-0.11 0.03-0.15 0.01-0.07 0.01-0.08c0-0.03 0-0.09-0.01-0.17s-0.02-0.17-0.02-0.26 -0.02-0.18-0.02-0.26 -0.02-0.14-0.02-0.18c-0.12-0.14-0.27-0.22-0.46-0.23s-0.37-0.02-0.53-0.04c-0.02 0-0.05-0.01-0.1-0.02s-0.1-0.04-0.16-0.06 -0.11-0.05-0.16-0.06 -0.08-0.02-0.1-0.02c-0.19-0.05-0.35-0.09-0.49-0.11s-0.27-0.06-0.39-0.1 -0.21-0.11-0.3-0.21 -0.16-0.25-0.23-0.45c0-0.02 0.03-0.06 0.08-0.09s0.08-0.06 0.1-0.08h0.27c0.03 0 0.08-0.01 0.15-0.02s0.16-0.04 0.25-0.06 0.18-0.05 0.25-0.06 0.13-0.02 0.15-0.02h0.67 0.8c0.02 0 0.05 0 0.1 0.01s0.09 0.02 0.14 0.03 0.11 0.03 0.2 0.04h1.87c0.29 0.12 0.52 0.28 0.71 0.48s0.36 0.42 0.53 0.67c0.01 0.02 0.03 0.04 0.06 0.08s0.06 0.07 0.1 0.11 0.06 0.08 0.08 0.11 0.03 0.07 0.03 0.08c0.02 0.01 0.03 0.06 0.05 0.15s0.04 0.16 0.06 0.19c0.07 0.18 0.16 0.35 0.27 0.5s0.19 0.34 0.22 0.54c0 0.02 0 0.07 0.01 0.15s0.02 0.17 0.03 0.25 0.02 0.17 0.03 0.25 0.01 0.13 0.01 0.16c0.04 0.12 0.1 0.25 0.18 0.41s0.14 0.28 0.17 0.38c0 0.02 0.02 0.08 0.04 0.18s0.04 0.16 0.04 0.18c0.01 0.02 0.03 0.05 0.06 0.09s0.07 0.09 0.11 0.13 0.08 0.09 0.11 0.13 0.06 0.07 0.06 0.08c0.01 0.02 0.02 0.06 0.03 0.11s0.02 0.12 0.03 0.19 0.02 0.13 0.02 0.2 0.01 0.1 0.01 0.12c0.08 0.29 0.2 0.54 0.34 0.74s0.27 0.46 0.39 0.74c0 0.02 0 0.06 0.01 0.11s0.02 0.12 0.03 0.19 0.02 0.13 0.02 0.2 0.01 0.1 0.01 0.12 0.02 0.07 0.04 0.17 0.04 0.15 0.04 0.17c0.03 0.1 0.09 0.18 0.17 0.22s0.16 0.09 0.24 0.14 0.16 0.1 0.22 0.16 0.1 0.14 0.1 0.25v0.22c0 0.02-0.01 0.07-0.04 0.17s-0.04 0.15-0.04 0.17c0 0.01 0.01 0.04 0.02 0.08s0.03 0.1 0.04 0.15 0.03 0.11 0.05 0.17 0.03 0.11 0.04 0.14c0.03 0.06 0.06 0.13 0.1 0.21s0.09 0.16 0.15 0.24 0.12 0.14 0.18 0.2 0.14 0.08 0.2 0.08c0.05 0 0.09-0.02 0.13-0.05s0.06-0.08 0.08-0.13 0.04-0.1 0.06-0.16 0.05-0.1 0.08-0.15c0.09-0.11 0.21-0.23 0.36-0.35s0.26-0.27 0.34-0.44c0.01-0.04 0.02-0.08 0.03-0.13s0.02-0.08 0.03-0.11 0.01-0.06 0.01-0.09c0.04-0.16 0.09-0.3 0.14-0.41s0.11-0.22 0.17-0.33 0.13-0.21 0.2-0.32 0.15-0.23 0.22-0.36c0.1-0.16 0.18-0.32 0.23-0.49s0.12-0.32 0.22-0.48c0.01-0.01 0.03-0.04 0.06-0.08s0.07-0.09 0.11-0.15 0.08-0.1 0.11-0.14 0.06-0.07 0.06-0.08c0.03-0.03 0.05-0.08 0.06-0.15s0.03-0.13 0.04-0.2 0.02-0.13 0.03-0.2 0.02-0.11 0.04-0.15c0.13-0.36 0.28-0.7 0.47-1.02s0.36-0.66 0.51-1.02c0.07-0.14 0.11-0.3 0.13-0.48s0.06-0.33 0.11-0.48c0.03-0.03 0.07-0.12 0.13-0.26s0.13-0.29 0.2-0.45 0.13-0.31 0.2-0.44 0.1-0.22 0.12-0.27c0.01-0.02 0.02-0.07 0.04-0.13s0.03-0.11 0.03-0.13v-0.04 -0.02c0-0.02-0.01-0.06-0.03-0.11s-0.03-0.08-0.03-0.09v-0.01 -0.08c0.06-0.12 0.12-0.24 0.19-0.35s0.14-0.23 0.23-0.32 0.19-0.18 0.31-0.25 0.26-0.11 0.42-0.14c0.03 0 0.14 0 0.31 0.01s0.34 0.01 0.5 0.01c0.17 0 0.27 0 0.31-0.01 0.02 0 0.05-0.01 0.11-0.02s0.11-0.03 0.18-0.05 0.12-0.04 0.17-0.06 0.08-0.02 0.09-0.02c0.27-0.07 0.53-0.12 0.77-0.15s0.52-0.05 0.83-0.05c0.05 0 0.12 0 0.2 0.01s0.17 0.01 0.25 0.01 0.15 0 0.22 0.01 0.1 0.01 0.11 0.01c0.09 0 0.2 0.02 0.31 0.06s0.22 0.1 0.32 0.18 0.19 0.16 0.25 0.26 0.1 0.2 0.1 0.31c0 0.07-0.03 0.14-0.08 0.22s-0.12 0.15-0.2 0.22 -0.15 0.13-0.23 0.17 -0.13 0.07-0.18 0.07c-0.14 0-0.28-0.01-0.41-0.04s-0.26-0.04-0.41-0.04 -0.29 0.01-0.43 0.03 -0.3 0.07-0.47 0.15c-0.1 0.05-0.18 0.13-0.24 0.23s-0.1 0.21-0.13 0.34 -0.05 0.25-0.05 0.39 -0.01 0.26-0.01 0.37v0.22c0 0.1 0 0.18 0.01 0.25s0.02 0.13 0.04 0.18 0.04 0.12 0.06 0.18 0.04 0.14 0.06 0.23c0 0.04 0 0.11 0.01 0.22s0.01 0.21 0.01 0.31 0 0.21 0.01 0.31 0.01 0.16 0.01 0.2c0 0.78-0.02 1.55-0.06 2.32s-0.05 1.54-0.04 2.32c0 0.02-0.01 0.06-0.04 0.13s-0.04 0.11-0.04 0.13v0.06 0.04c0.04 0.22 0.08 0.45 0.13 0.7s0.06 0.48 0.06 0.71c0 0.22-0.03 0.43-0.09 0.62s-0.09 0.4-0.09 0.62v0.15c0 0.07 0 0.13 0.01 0.18s0.03 0.12 0.08 0.18c0 0.03 0 0.07 0 0.15s0 0.15 0.01 0.23 0.01 0.16 0.01 0.23 0 0.12 0 0.15c0 0.05 0 0.12 0 0.2s0 0.17-0.01 0.25 -0.01 0.15-0.01 0.22 0 0.1 0 0.11 -0.01 0.06-0.04 0.15 -0.04 0.16-0.04 0.19v0.2 0.13c0 0.03 0.02 0.08 0.07 0.18s0.08 0.15 0.1 0.18c0.01 0.02 0.03 0.05 0.07 0.1s0.08 0.1 0.11 0.15 0.07 0.1 0.11 0.13 0.06 0.06 0.06 0.07c0.02 0.01 0.04 0.04 0.06 0.09s0.03 0.08 0.03 0.1c0.02 0.02 0.03 0.04 0.05 0.06s0.04 0.03 0.06 0.03h0.34c0.01 0 0.04 0.01 0.1 0.03s0.11 0.03 0.17 0.05 0.11 0.03 0.17 0.05 0.08 0.03 0.1 0.03c0.01 0.01 0.04 0.02 0.09 0.03s0.1 0.02 0.16 0.03 0.11 0.02 0.16 0.03 0.08 0.02 0.1 0.03c0.03 0.01 0.06 0.02 0.11 0.04s0.11 0.04 0.17 0.07 0.11 0.05 0.16 0.08 0.07 0.04 0.08 0.05c0 0.02 0 0.05 0.01 0.1s0.01 0.08 0.01 0.09c0 0.12-0.05 0.22-0.16 0.31s-0.24 0.13-0.38 0.13h-4.21c-0.04 0-0.11 0.02-0.2 0.04s-0.14 0.04-0.16 0.04h-0.09 -0.09c-0.01 0-0.04 0.01-0.08 0.03s-0.09 0.03-0.15 0.05 -0.1 0.03-0.14 0.05 -0.07 0.03-0.08 0.03h-0.7 -0.2c-0.11 0-0.22-0.05-0.34-0.16s-0.18-0.22-0.18-0.34V47.86c0.06 0 0.17-0.01 0.32-0.04s0.26-0.04 0.32-0.04c0.02 0 0.06-0.01 0.12-0.04s0.1-0.04 0.12-0.04 0.05 0 0.1-0.01 0.1-0.02 0.15-0.02 0.1-0.02 0.13-0.03 0.06-0.02 0.07-0.03c0.1-0.03 0.18-0.1 0.24-0.21s0.1-0.22 0.13-0.34 0.05-0.25 0.06-0.37 0.01-0.23 0.01-0.31c0.09-0.54 0.16-1.08 0.2-1.62s0.09-1.09 0.16-1.65c0-0.08 0-0.24 0.01-0.46s0.01-0.46 0.02-0.71 0.02-0.48 0.02-0.7 0.01-0.38 0.01-0.47c0-0.16 0-0.37-0.01-0.63s-0.01-0.51-0.02-0.77 -0.01-0.48-0.02-0.67 -0.01-0.3-0.01-0.32c0-0.06 0-0.17-0.01-0.34s-0.01-0.34-0.02-0.53 -0.01-0.36-0.02-0.53 -0.01-0.29-0.02-0.37c0-0.02-0.01-0.08-0.02-0.15s-0.04-0.15-0.07-0.23 -0.06-0.15-0.1-0.22 -0.07-0.09-0.11-0.09c-0.08 0-0.14 0.02-0.18 0.06s-0.09 0.08-0.12 0.13 -0.06 0.11-0.09 0.17 -0.06 0.11-0.11 0.15c-0.01 0.02-0.03 0.05-0.07 0.09s-0.08 0.09-0.13 0.14 -0.1 0.1-0.15 0.13 -0.08 0.06-0.09 0.07c0 0.03-0.01 0.06-0.03 0.1s-0.03 0.08-0.03 0.1c-0.1 0.23-0.22 0.45-0.36 0.65s-0.26 0.43-0.36 0.67c-0.08 0.22-0.14 0.45-0.18 0.69s-0.1 0.48-0.17 0.71c-0.01 0.1-0.04 0.18-0.11 0.23s-0.11 0.12-0.13 0.22c-0.01 0.01-0.02 0.04-0.03 0.08s-0.02 0.1-0.03 0.15 -0.02 0.1-0.02 0.15 -0.01 0.07-0.01 0.08c-0.02 0.02-0.05 0.05-0.1 0.1s-0.11 0.1-0.16 0.16 -0.12 0.11-0.17 0.17 -0.09 0.09-0.09 0.11c-0.06 0.05-0.1 0.14-0.11 0.26s-0.04 0.21-0.06 0.26c-0.01 0.03-0.02 0.07-0.04 0.14s-0.02 0.11-0.02 0.13c-0.02 0.02-0.05 0.06-0.1 0.12s-0.08 0.1-0.1 0.12c-0.08 0.22-0.14 0.45-0.18 0.68s-0.09 0.46-0.16 0.68c-0.02 0.04-0.06 0.11-0.09 0.2s-0.08 0.18-0.11 0.28 -0.07 0.18-0.11 0.26 -0.05 0.12-0.06 0.14c0 0.02-0.02 0.07-0.06 0.15s-0.09 0.18-0.13 0.28 -0.09 0.2-0.14 0.29 -0.08 0.15-0.09 0.17c0 0.01 0 0.04-0.01 0.1s-0.01 0.12-0.02 0.19 -0.02 0.13-0.02 0.19 -0.01 0.09-0.01 0.1c0 0.04-0.01 0.11-0.04 0.2s-0.04 0.14-0.04 0.16c-0.02 0.04-0.06 0.12-0.11 0.22s-0.1 0.22-0.16 0.33 -0.11 0.22-0.16 0.32 -0.08 0.17-0.11 0.2c-0.09 0.05-0.19 0.11-0.28 0.18s-0.2 0.1-0.32 0.1c-0.11 0-0.22-0.05-0.33-0.16s-0.21-0.23-0.3-0.37 -0.16-0.29-0.23-0.44 -0.1-0.28-0.12-0.38c-0.04-0.15-0.08-0.29-0.11-0.42s-0.06-0.25-0.08-0.37 -0.06-0.25-0.09-0.37 -0.09-0.27-0.16-0.42c-0.01-0.02-0.04-0.06-0.08-0.15s-0.09-0.16-0.15-0.25 -0.1-0.17-0.14-0.25 -0.07-0.12-0.08-0.14c-0.15-0.27-0.27-0.54-0.34-0.82s-0.17-0.56-0.29-0.87c-0.15-0.42-0.33-0.84-0.53-1.26s-0.38-0.85-0.52-1.29c-0.01-0.01-0.02-0.04-0.02-0.09s-0.01-0.11-0.02-0.16 -0.01-0.11-0.01-0.16 -0.01-0.08-0.01-0.1c-0.02-0.02-0.05-0.06-0.1-0.13s-0.08-0.12-0.1-0.13c0-0.02-0.01-0.06-0.04-0.12s-0.04-0.1-0.04-0.12c-0.01-0.02-0.02-0.05-0.04-0.09s-0.04-0.09-0.06-0.15 -0.04-0.09-0.06-0.13 -0.04-0.06-0.04-0.07c0-0.02 0-0.07-0.01-0.13s-0.01-0.13-0.02-0.2 -0.02-0.13-0.02-0.19 -0.01-0.1-0.01-0.11c-0.02-0.02-0.04-0.06-0.06-0.11s-0.04-0.1-0.07-0.15 -0.05-0.11-0.08-0.15 -0.05-0.08-0.06-0.11l-0.27-0.27c-0.08-0.1-0.14-0.22-0.19-0.36s-0.11-0.28-0.17-0.41 -0.14-0.25-0.24-0.34 -0.23-0.14-0.4-0.14h-0.08c-0.04 0.15-0.07 0.29-0.08 0.42s-0.02 0.25-0.03 0.38 -0.01 0.25-0.02 0.38 -0.01 0.28-0.02 0.44c-0.02 0.08-0.03 0.13-0.04 0.17s-0.03 0.1-0.04 0.17v0.14c0 0.09 0.02 0.19 0.04 0.28s0.04 0.2 0.04 0.31v0.08c-0.04 0.2-0.08 0.41-0.13 0.61s-0.06 0.42-0.06 0.64c0 0.29 0.03 0.57 0.1 0.84s0.1 0.55 0.1 0.84c-0.02 0.07-0.03 0.12-0.04 0.16s-0.02 0.08-0.03 0.11 -0.01 0.06-0.01 0.07v1.32c0 0.02-0.01 0.06-0.02 0.11s-0.04 0.12-0.06 0.19 -0.04 0.13-0.06 0.2 -0.04 0.1-0.04 0.12v0.13c0 0.08 0.01 0.14 0.03 0.2s0.05 0.13 0.09 0.22v1.9c0.04 0.08 0.08 0.16 0.1 0.25s0.05 0.19 0.08 0.28 0.06 0.18 0.1 0.26 0.09 0.15 0.16 0.2c0.18 0.02 0.4 0.04 0.65 0.08s0.48 0.09 0.67 0.17c0.02 0.03 0.06 0.06 0.12 0.11s0.1 0.08 0.12 0.1c0.07 0.03 0.14 0.06 0.2 0.08s0.13 0.04 0.18 0.06 0.09 0.06 0.12 0.11 0.04 0.12 0.04 0.2c0 0.12-0.02 0.21-0.08 0.28s-0.11 0.12-0.19 0.15 -0.16 0.06-0.25 0.06 -0.18 0.01-0.27 0.01c-0.35 0-0.71-0.01-1.07-0.04s-0.71-0.04-1.07-0.04h-0.33c-0.01 0-0.03 0-0.07 0.01s-0.08 0.02-0.11 0.03 -0.08 0.02-0.11 0.03 -0.06 0.01-0.07 0.01c-0.02 0-0.05-0.01-0.11-0.02s-0.11-0.03-0.18-0.05 -0.12-0.04-0.18-0.06S230.75 48.14 230.73 48.13z"/>
      <path d="M252.64 45.93v-1.17c0-0.61 0.02-1.21 0.06-1.8s0.06-1.19 0.06-1.8c0-0.08 0-0.17-0.01-0.29s-0.01-0.23-0.01-0.34 0-0.21-0.01-0.29 -0.01-0.13-0.01-0.14l-0.18-0.44v-1.32c0-0.05-0.04-0.08-0.11-0.1s-0.15-0.05-0.24-0.09 -0.17-0.11-0.24-0.21 -0.11-0.26-0.11-0.48v-0.27c0-0.06 0.06-0.11 0.19-0.15s0.27-0.06 0.42-0.08 0.3-0.03 0.44-0.04 0.22-0.01 0.25-0.01c0.01 0 0.03 0 0.06 0.01s0.04 0.02 0.04 0.03c0.2 0.02 0.43 0.04 0.72 0.08s0.52 0.09 0.72 0.16c0.07 0.03 0.13 0.08 0.18 0.17s0.1 0.19 0.14 0.29 0.07 0.21 0.08 0.31 0.03 0.18 0.03 0.24c0 0.25-0.02 0.53-0.06 0.83s-0.08 0.57-0.13 0.82c0 0.01-0.01 0.06-0.04 0.16s-0.04 0.15-0.04 0.17 0 0.06 0.01 0.12 0.02 0.13 0.03 0.2 0.02 0.14 0.03 0.2 0.01 0.1 0.01 0.11c0.01 0.01 0.02 0.07 0.02 0.18s0.01 0.25 0.01 0.39 0 0.3 0 0.45 0 0.28 0 0.37c0 0.06 0 0.16 0 0.29s0 0.28 0 0.43 0 0.3-0.01 0.43 -0.01 0.23-0.02 0.28c-0.01 0.01-0.02 0.04-0.05 0.08s-0.05 0.1-0.08 0.16 -0.05 0.11-0.08 0.17 -0.04 0.08-0.04 0.1v0.18c0 0.25 0.02 0.46 0.06 0.61s0.11 0.28 0.19 0.39 0.19 0.2 0.32 0.29 0.28 0.18 0.46 0.29c0.11 0.08 0.24 0.17 0.38 0.28s0.28 0.17 0.41 0.17c0.2 0 0.39-0.02 0.57-0.08s0.38-0.08 0.57-0.08c0.09 0 0.18 0.01 0.25 0.04s0.16 0.04 0.25 0.04c0.07 0 0.12-0.03 0.15-0.09s0.06-0.14 0.08-0.23 0.04-0.18 0.06-0.27 0.05-0.16 0.1-0.22c0.01-0.01 0.04-0.03 0.08-0.08s0.1-0.09 0.15-0.13 0.1-0.09 0.14-0.13 0.07-0.07 0.08-0.09 0.02-0.06 0.03-0.14 0.02-0.16 0.03-0.25 0.02-0.17 0.03-0.25 0.01-0.13 0.01-0.15 0.01-0.08 0.03-0.15 0.04-0.16 0.06-0.25 0.04-0.17 0.06-0.25 0.03-0.13 0.04-0.15v-0.01 -0.08c-0.02-0.07-0.03-0.12-0.04-0.16s-0.02-0.08-0.02-0.11 -0.01-0.06-0.01-0.07v-0.09c0-0.32 0.01-0.64 0.04-0.96s0.04-0.64 0.04-0.95c0-0.17-0.03-0.35-0.09-0.55s-0.09-0.37-0.09-0.52c0-0.13 0.02-0.24 0.05-0.34s0.05-0.21 0.05-0.32c0-0.2-0.05-0.41-0.14-0.63s-0.23-0.38-0.41-0.5c-0.08-0.04-0.18-0.08-0.32-0.13s-0.28-0.09-0.41-0.15 -0.25-0.13-0.35-0.22 -0.15-0.2-0.15-0.32v-0.14c0.11-0.14 0.24-0.28 0.39-0.4s0.33-0.19 0.52-0.21c0.02 0 0.06 0.02 0.12 0.04s0.1 0.04 0.12 0.04c0.29 0.03 0.58 0.06 0.88 0.08s0.6 0.03 0.9 0.03c0.14 0 0.27 0 0.4-0.01s0.26-0.01 0.38-0.01c0.11 0.07 0.23 0.15 0.36 0.25s0.19 0.23 0.19 0.38v1.75c-0.05 0.1-0.08 0.21-0.1 0.33s-0.02 0.24-0.02 0.36c0 0.09 0 0.18 0.01 0.27s0.01 0.17 0.01 0.25v0.11c0 0.02 0 0.04-0.01 0.08s-0.02 0.08-0.03 0.13 -0.02 0.09-0.03 0.14 -0.01 0.08-0.01 0.1v0.43c0 0.02-0.01 0.06-0.02 0.13s-0.04 0.14-0.06 0.22 -0.04 0.15-0.06 0.22 -0.02 0.11-0.02 0.14v0.09c0 0.08 0.02 0.15 0.04 0.23s0.04 0.16 0.04 0.25v0.15c-0.02 0.02-0.03 0.04-0.05 0.06 -0.02 0.04-0.04 0.07-0.04 0.09 -0.04 0.17-0.07 0.31-0.08 0.43s-0.02 0.26-0.02 0.43c0 0.28 0.02 0.55 0.06 0.8s0.06 0.53 0.04 0.83c0.03 0.03 0.07 0.07 0.13 0.13s0.12 0.12 0.18 0.18 0.12 0.12 0.18 0.17 0.09 0.09 0.11 0.11c0.03 0.02 0.09 0.05 0.19 0.1s0.17 0.08 0.19 0.1c0.11 0.07 0.18 0.16 0.21 0.27s0.04 0.23 0.04 0.37c0 0.12-0.06 0.23-0.19 0.34s-0.28 0.21-0.45 0.31 -0.35 0.17-0.52 0.24 -0.31 0.11-0.41 0.15c-0.02 0-0.05 0.01-0.09 0.03s-0.09 0.04-0.14 0.06 -0.1 0.05-0.14 0.06 -0.07 0.03-0.08 0.03c-0.04 0.01-0.1 0.02-0.18 0.03s-0.17 0.03-0.26 0.04 -0.18 0.02-0.26 0.03 -0.14 0.01-0.17 0.01c-0.04 0-0.1-0.01-0.16-0.04s-0.11-0.05-0.11-0.07l-0.6-1.26c-0.04-0.07-0.08-0.11-0.13-0.13s-0.1-0.02-0.16-0.02c-0.08 0-0.15 0.02-0.18 0.07s-0.07 0.1-0.09 0.17 -0.04 0.14-0.06 0.2 -0.05 0.12-0.09 0.15c-0.02 0.03-0.06 0.06-0.1 0.11s-0.09 0.1-0.13 0.15 -0.09 0.09-0.13 0.13 -0.06 0.07-0.08 0.09c-0.01 0.01-0.04 0.02-0.08 0.04s-0.09 0.05-0.15 0.08 -0.1 0.06-0.14 0.08 -0.06 0.04-0.06 0.04c-0.02 0-0.03 0.02-0.05 0.05l-0.04 0.04c-0.17 0.11-0.34 0.16-0.51 0.15s-0.35 0-0.54 0.03c-0.02 0-0.05 0-0.09 0.01s-0.09 0.02-0.14 0.03 -0.09 0.02-0.13 0.03 -0.07 0.01-0.08 0.01h-0.44c-0.3 0-0.57-0.07-0.8-0.21s-0.46-0.31-0.71-0.5c-0.09-0.07-0.19-0.17-0.28-0.31s-0.18-0.29-0.27-0.46 -0.17-0.33-0.24-0.49S252.68 46.05 252.64 45.93z"/>
      <path d="M264.51 46.41v-0.3c0-0.02 0.03-0.07 0.08-0.16s0.08-0.15 0.08-0.16c0.04-0.1 0.08-0.21 0.11-0.34s0.07-0.24 0.12-0.35 0.11-0.2 0.19-0.28 0.19-0.11 0.32-0.11h0.13c0.03 0 0.06 0.04 0.1 0.11s0.08 0.14 0.1 0.18c0.11 0.2 0.23 0.43 0.36 0.69s0.28 0.5 0.46 0.72 0.37 0.41 0.6 0.56 0.48 0.23 0.78 0.23c0.11 0 0.25-0.04 0.43-0.12s0.34-0.18 0.51-0.29 0.31-0.23 0.44-0.35 0.2-0.23 0.23-0.32c0.03-0.1 0.06-0.19 0.08-0.28s0.03-0.17 0.03-0.27c0-0.08-0.01-0.16-0.02-0.25s-0.05-0.2-0.09-0.32c0-0.1-0.09-0.24-0.26-0.42s-0.37-0.35-0.6-0.53 -0.45-0.33-0.66-0.48 -0.35-0.24-0.43-0.28c-0.09-0.03-0.19-0.05-0.28-0.06s-0.17-0.04-0.24-0.09c-0.01-0.02-0.03-0.04-0.06-0.08s-0.07-0.07-0.11-0.11 -0.08-0.07-0.11-0.11 -0.05-0.05-0.06-0.05c-0.02-0.03-0.07-0.08-0.16-0.15s-0.15-0.11-0.2-0.15l-0.16-0.09c-0.02-0.02-0.07-0.07-0.14-0.13s-0.14-0.13-0.22-0.21 -0.15-0.15-0.22-0.22 -0.11-0.11-0.14-0.14c-0.05-0.14-0.1-0.29-0.14-0.43s-0.08-0.29-0.13-0.44c-0.01-0.04-0.02-0.1-0.04-0.18s-0.04-0.15-0.06-0.22 -0.04-0.13-0.05-0.19 -0.02-0.09-0.02-0.09c-0.02-0.23 0-0.47 0.05-0.72s0.13-0.49 0.23-0.72 0.23-0.44 0.38-0.64 0.31-0.36 0.49-0.49c0.01-0.02 0.05-0.04 0.13-0.06s0.13-0.04 0.15-0.06c0.13-0.05 0.27-0.13 0.42-0.23s0.31-0.21 0.47-0.32 0.32-0.2 0.48-0.27 0.31-0.11 0.46-0.11 0.31 0.03 0.49 0.1 0.34 0.12 0.48 0.16c0.23 0.08 0.45 0.15 0.65 0.22s0.39 0.16 0.56 0.27 0.3 0.25 0.39 0.42 0.15 0.39 0.15 0.66c0 0.09-0.01 0.23-0.03 0.4s-0.06 0.34-0.11 0.51 -0.12 0.31-0.21 0.43 -0.2 0.18-0.35 0.18h-0.09c-0.02-0.02-0.05-0.08-0.09-0.18s-0.07-0.16-0.09-0.18c-0.12-0.21-0.25-0.41-0.39-0.61s-0.3-0.37-0.47-0.51 -0.36-0.26-0.56-0.35 -0.43-0.13-0.69-0.13c-0.08 0-0.16 0-0.26 0.01s-0.19 0.04-0.27 0.09c-0.29 0.22-0.51 0.45-0.65 0.7s-0.22 0.55-0.22 0.93c0 0.2 0.05 0.39 0.14 0.55s0.21 0.31 0.36 0.44 0.31 0.24 0.48 0.33 0.35 0.17 0.52 0.22c0.01 0.01 0.04 0.02 0.09 0.03s0.11 0.02 0.17 0.03 0.12 0.02 0.17 0.03 0.08 0.01 0.09 0.01c0.02 0 0.05 0.02 0.09 0.04s0.07 0.04 0.09 0.04c0.19 0.14 0.38 0.27 0.58 0.4s0.39 0.27 0.58 0.41 0.38 0.29 0.55 0.45 0.34 0.33 0.48 0.52c0.01 0.01 0.03 0.04 0.05 0.09s0.05 0.11 0.08 0.17 0.06 0.13 0.09 0.19 0.05 0.11 0.07 0.15c0 0.02 0 0.05 0.01 0.1s0.01 0.11 0.02 0.17 0.02 0.12 0.03 0.17 0.02 0.09 0.04 0.1c0.03 0.1 0.07 0.19 0.12 0.27s0.09 0.16 0.14 0.24 0.09 0.15 0.12 0.23 0.05 0.17 0.05 0.27c0 0.27-0.06 0.52-0.17 0.75s-0.23 0.47-0.35 0.72c-0.12 0.18-0.26 0.35-0.44 0.52s-0.32 0.31-0.45 0.42c-0.34 0.3-0.73 0.51-1.17 0.63s-0.86 0.18-1.27 0.18c-0.3 0-0.61-0.02-0.93-0.05s-0.6-0.11-0.86-0.23c-0.02-0.01-0.05-0.03-0.1-0.06s-0.11-0.06-0.17-0.1 -0.12-0.07-0.18-0.11 -0.09-0.05-0.11-0.06c-0.17-0.1-0.32-0.19-0.44-0.27s-0.23-0.17-0.32-0.27 -0.15-0.22-0.2-0.37S264.51 46.64 264.51 46.41z"/>
      <path d="M277.38 48.52c-0.03-0.02-0.11-0.05-0.22-0.09s-0.19-0.07-0.23-0.09h-0.13 -0.2c-0.06 0.01-0.15 0.02-0.26 0.03s-0.23 0.02-0.34 0.03 -0.22 0.02-0.3 0.03 -0.15 0.02-0.17 0.03c-0.01 0-0.05 0.01-0.13 0.03s-0.12 0.03-0.13 0.03h-0.05 -0.04c-0.02 0-0.06-0.01-0.12-0.03s-0.1-0.03-0.12-0.03c-0.18-0.02-0.36-0.04-0.54-0.04s-0.34-0.02-0.49-0.06 -0.26-0.1-0.35-0.21 -0.14-0.27-0.14-0.5c0-0.25 0.08-0.41 0.24-0.5s0.34-0.16 0.56-0.2 0.43-0.1 0.65-0.16 0.39-0.18 0.51-0.37v-0.09c0-0.14-0.02-0.29-0.05-0.43s-0.05-0.3-0.05-0.47c0-0.55 0.02-1.09 0.07-1.62s0.08-1.07 0.11-1.6v-1.08c0.02-0.22 0.05-0.44 0.1-0.67s0.07-0.46 0.07-0.72c0-0.27-0.03-0.52-0.09-0.75s-0.17-0.46-0.34-0.69c-0.02-0.01-0.04-0.02-0.06-0.05s-0.04-0.05-0.06-0.08c-0.02-0.03-0.05-0.06-0.06-0.09h-0.99c-0.02 0-0.07-0.05-0.15-0.15s-0.14-0.18-0.18-0.23c-0.01-0.02-0.01-0.04-0.01-0.06 -0.01-0.02-0.01-0.06-0.01-0.11 0-0.09 0.03-0.17 0.08-0.23s0.12-0.12 0.2-0.16 0.18-0.08 0.27-0.1 0.19-0.04 0.29-0.04h1.03c0.08-0.08 0.17-0.12 0.25-0.15s0.18-0.03 0.28-0.03c0.08 0 0.16 0 0.24 0.01s0.17 0.01 0.27 0.01h0.13c0.02 0 0.07-0.01 0.17-0.04s0.16-0.04 0.19-0.04c0.02 0 0.06 0.01 0.12 0.03s0.1 0.04 0.12 0.06h1.6c0.02-0.02 0.06-0.04 0.13-0.06s0.11-0.03 0.14-0.03c0.02 0.01 0.04 0.02 0.06 0.03 0.02 0.01 0.04 0.02 0.06 0.03s0.04 0.02 0.06 0.03c0.03 0.02 0.08 0.05 0.15 0.09s0.1 0.06 0.12 0.06c0.03 0.04 0.07 0.1 0.12 0.17s0.09 0.13 0.14 0.2 0.09 0.12 0.12 0.17 0.05 0.08 0.05 0.1v0.24c-0.02 0.01-0.06 0.02-0.11 0.04s-0.1 0.04-0.16 0.06 -0.11 0.05-0.16 0.06 -0.09 0.03-0.11 0.04c-0.02 0-0.06 0.03-0.12 0.08s-0.1 0.08-0.12 0.08c-0.12 0.08-0.23 0.15-0.35 0.22s-0.22 0.14-0.32 0.22 -0.18 0.17-0.23 0.28 -0.09 0.24-0.09 0.39c0 0.13 0.02 0.25 0.06 0.37s0.06 0.24 0.06 0.36v0.13c0 0.02 0 0.05-0.01 0.1s-0.02 0.1-0.03 0.16 -0.02 0.11-0.03 0.17 -0.01 0.09-0.01 0.11v0.34 0.88c-0.02 0.17-0.06 0.33-0.15 0.49s-0.12 0.32-0.12 0.49c0 0.08 0.01 0.16 0.03 0.24s0.03 0.17 0.03 0.24v0.15c-0.03 0.3-0.07 0.6-0.1 0.91s-0.05 0.63-0.05 0.95v0.15c0.03 0.16 0.05 0.32 0.06 0.49s0.05 0.32 0.1 0.45 0.13 0.25 0.24 0.34 0.27 0.13 0.47 0.13c0.12 0 0.22-0.03 0.29-0.1s0.17-0.1 0.28-0.1h0.05c0.04 0 0.06 0.01 0.06 0.03 0.03 0.02 0.07 0.05 0.13 0.1s0.13 0.1 0.2 0.15 0.13 0.11 0.18 0.16 0.1 0.09 0.12 0.11c0.06 0.04 0.13 0.11 0.22 0.2s0.13 0.2 0.13 0.31v0.03c-0.04 0.11-0.11 0.22-0.21 0.34s-0.18 0.22-0.23 0.29c-0.01 0-0.02 0.01-0.05 0.04 -0.02 0.01-0.03 0.02-0.04 0.03 -0.01 0-0.04 0-0.09 0.01s-0.11 0.02-0.18 0.03 -0.13 0.02-0.19 0.03 -0.11 0.01-0.15 0.01h-0.11 -0.18c-0.06 0-0.17 0-0.32-0.01s-0.32-0.02-0.5-0.03 -0.34-0.02-0.5-0.03S277.45 48.52 277.38 48.52z"/>
      <path d="M282.04 43.05c0-0.25 0.04-0.49 0.13-0.72s0.16-0.47 0.22-0.7c0-0.02 0-0.05 0.01-0.11s0.02-0.11 0.03-0.18 0.02-0.12 0.03-0.17 0.01-0.08 0.01-0.09c0.03-0.15 0.07-0.28 0.11-0.37s0.06-0.2 0.06-0.31c0-0.03 0-0.06 0-0.09s0-0.06-0.01-0.1c0.03-0.02 0.07-0.08 0.14-0.16s0.14-0.17 0.22-0.27 0.15-0.18 0.22-0.27 0.12-0.15 0.15-0.18c0.14-0.19 0.26-0.36 0.38-0.53s0.28-0.31 0.5-0.43c0.12-0.07 0.26-0.14 0.41-0.22s0.32-0.15 0.48-0.22 0.33-0.13 0.5-0.18 0.32-0.08 0.45-0.1c0.03 0 0.09 0 0.18 0.01s0.19 0.01 0.29 0.01c0.08 0 0.14-0.01 0.15-0.02 0.02 0 0.05-0.01 0.09-0.02s0.09-0.03 0.13-0.05 0.09-0.03 0.13-0.05 0.07-0.02 0.08-0.02h0.33 0.23c0.08 0 0.17 0 0.25 0.01s0.16 0.03 0.25 0.08c0.12 0.04 0.23 0.1 0.33 0.16s0.2 0.13 0.31 0.18 0.21 0.11 0.32 0.15 0.23 0.06 0.37 0.06c0.11 0 0.22-0.02 0.32-0.05s0.21-0.05 0.32-0.05c0.12 0 0.23 0.02 0.34 0.06s0.2 0.1 0.25 0.2c0.01 0.03 0.02 0.07 0.03 0.15s0.02 0.14 0.03 0.22 0.02 0.14 0.03 0.2 0.02 0.1 0.03 0.12c0 0.03 0.02 0.1 0.04 0.2s0.04 0.15 0.04 0.17v0.05 0.03c-0.03 0.18-0.06 0.37-0.09 0.58s-0.07 0.41-0.13 0.58 -0.16 0.33-0.29 0.44 -0.32 0.18-0.57 0.18c-0.02 0-0.04-0.01-0.08-0.04s-0.06-0.05-0.07-0.06c-0.04-0.02-0.09-0.07-0.16-0.13s-0.13-0.13-0.19-0.19 -0.12-0.12-0.18-0.18 -0.09-0.09-0.11-0.12c-0.03-0.08-0.06-0.13-0.08-0.17s-0.04-0.08-0.06-0.11 -0.04-0.06-0.04-0.06c-0.02-0.06-0.07-0.14-0.14-0.25s-0.11-0.17-0.13-0.19 -0.06-0.06-0.12-0.13 -0.1-0.12-0.12-0.15c-0.15-0.12-0.29-0.22-0.41-0.29s-0.25-0.14-0.37-0.18 -0.26-0.08-0.41-0.09 -0.32-0.02-0.51-0.02c-0.17 0-0.33 0.02-0.49 0.06s-0.3 0.11-0.44 0.2c-0.02 0-0.04 0.01-0.06 0.03s-0.04 0.04-0.04 0.06c-0.02 0.02-0.04 0.05-0.08 0.1s-0.07 0.11-0.11 0.17 -0.06 0.11-0.09 0.16 -0.04 0.08-0.04 0.1c-0.02 0.01-0.04 0.04-0.07 0.09s-0.06 0.11-0.09 0.17 -0.06 0.12-0.08 0.17 -0.04 0.09-0.05 0.11c-0.07 0.12-0.13 0.22-0.19 0.29s-0.11 0.18-0.15 0.32c0 0.02 0 0.06-0.01 0.11s-0.02 0.12-0.03 0.19 -0.02 0.13-0.03 0.19 -0.01 0.1-0.01 0.11c-0.04 0.18-0.09 0.35-0.13 0.53s-0.07 0.36-0.07 0.55c0 0.29 0.05 0.55 0.15 0.79s0.17 0.5 0.22 0.77c0.03 0.16 0.06 0.33 0.09 0.52s0.06 0.37 0.09 0.56 0.08 0.37 0.14 0.55 0.14 0.34 0.24 0.48c0.05 0.08 0.11 0.15 0.18 0.2s0.15 0.09 0.22 0.14 0.15 0.1 0.24 0.15 0.16 0.13 0.24 0.24h0.44c0.16 0 0.31-0.01 0.44-0.02s0.28-0.06 0.43-0.16c0.25-0.27 0.53-0.56 0.84-0.86s0.61-0.57 0.91-0.8c0-0.21 0.04-0.4 0.13-0.58s0.24-0.26 0.46-0.26c0.04 0 0.11 0 0.2 0.01s0.14 0.04 0.16 0.1l0.28 0.81v0.67 0.99c-0.01 0.26-0.05 0.47-0.12 0.61s-0.16 0.25-0.27 0.32 -0.23 0.12-0.37 0.14 -0.28 0.04-0.43 0.06 -0.29 0.04-0.44 0.08 -0.28 0.1-0.41 0.2h-2.02c-0.1-0.05-0.2-0.09-0.3-0.11s-0.2-0.04-0.31-0.05 -0.21-0.02-0.31-0.04 -0.2-0.04-0.3-0.08c-0.32-0.13-0.63-0.29-0.91-0.48s-0.55-0.41-0.79-0.66 -0.46-0.52-0.65-0.81 -0.34-0.6-0.45-0.93c-0.01-0.02-0.02-0.07-0.02-0.13s-0.02-0.12-0.02-0.2 -0.02-0.14-0.02-0.2 -0.01-0.1-0.01-0.11c-0.01-0.01-0.02-0.03-0.04-0.06s-0.03-0.07-0.05-0.11 -0.03-0.08-0.05-0.11 -0.03-0.06-0.04-0.07c-0.03-0.14-0.06-0.31-0.07-0.49S282.04 43.22 282.04 43.05z"/>
      <rect x="223" y="21.96" width="73.33" height="32.78" class="s1"/>
    </a>
    <a xlink:href="/merch" target="_top">
      <path d="M341.73 48.13h-2.4c-0.03 0-0.07-0.03-0.11-0.08s-0.07-0.12-0.11-0.19 -0.06-0.14-0.09-0.2 -0.04-0.09-0.04-0.1c0-0.17 0.06-0.32 0.18-0.46s0.26-0.2 0.4-0.2c0.04 0 0.13 0 0.25-0.01s0.26-0.01 0.39-0.01c0.13 0 0.25 0 0.37 0.01s0.2 0.01 0.24 0.01c0.03-0.02 0.06-0.04 0.1-0.06s0.07-0.04 0.08-0.04c0.03-0.01 0.06-0.04 0.11-0.09s0.1-0.11 0.15-0.16 0.11-0.11 0.16-0.16 0.08-0.09 0.1-0.11c0-0.04 0-0.12 0.01-0.23s0.02-0.24 0.03-0.37 0.02-0.26 0.03-0.37 0.01-0.2 0.01-0.25c0.02-0.02 0.04-0.08 0.06-0.2s0.04-0.19 0.06-0.23v-0.57 -0.23c0-0.02 0.01-0.05 0.03-0.11s0.03-0.12 0.05-0.19 0.03-0.13 0.05-0.19 0.03-0.1 0.03-0.11c0.06-0.29 0.12-0.6 0.19-0.93s0.1-0.64 0.1-0.94c0-0.02-0.02-0.07-0.06-0.16s-0.06-0.16-0.06-0.19v-0.81c0-0.38 0.01-0.76 0.04-1.14s0.08-0.75 0.17-1.12c0-0.01 0.01-0.04 0.03-0.09s0.03-0.11 0.05-0.16 0.03-0.12 0.05-0.17 0.03-0.09 0.03-0.11c0-0.04 0.01-0.15 0.03-0.32s0.04-0.35 0.06-0.55 0.04-0.39 0.06-0.56 0.03-0.29 0.03-0.34c0-0.01 0-0.04 0.01-0.1s0.02-0.12 0.03-0.19 0.02-0.13 0.03-0.19 0.01-0.09 0.01-0.1c0-0.02-0.01-0.05-0.02-0.09s-0.04-0.09-0.06-0.14 -0.05-0.09-0.07-0.13 -0.03-0.07-0.03-0.08c0-0.02 0.02-0.08 0.04-0.15s0.05-0.12 0.06-0.14c0.01-0.02 0.02-0.06 0.03-0.12s0.02-0.11 0.03-0.16 0.02-0.11 0.03-0.15 0.01-0.07 0.01-0.08c0-0.03 0-0.09-0.01-0.17s-0.02-0.17-0.02-0.26 -0.02-0.18-0.02-0.26 -0.02-0.14-0.02-0.18c-0.12-0.14-0.27-0.22-0.46-0.23s-0.37-0.02-0.53-0.04c-0.02 0-0.05-0.01-0.1-0.02s-0.1-0.04-0.16-0.06 -0.11-0.05-0.16-0.06 -0.08-0.02-0.1-0.02c-0.19-0.05-0.35-0.09-0.49-0.11s-0.27-0.06-0.39-0.1 -0.21-0.11-0.3-0.21 -0.16-0.25-0.23-0.45c0-0.02 0.03-0.06 0.08-0.09s0.08-0.06 0.1-0.08h0.27c0.03 0 0.08-0.01 0.15-0.02s0.16-0.04 0.25-0.06 0.18-0.05 0.25-0.06 0.13-0.02 0.15-0.02h0.67 0.8c0.02 0 0.05 0 0.1 0.01s0.09 0.02 0.14 0.03 0.11 0.03 0.2 0.04h1.87c0.29 0.12 0.52 0.28 0.71 0.48s0.36 0.42 0.53 0.67c0.01 0.02 0.03 0.04 0.06 0.08s0.06 0.07 0.1 0.11 0.06 0.08 0.08 0.11 0.03 0.07 0.03 0.08c0.02 0.01 0.03 0.06 0.05 0.15s0.04 0.16 0.06 0.19c0.07 0.18 0.16 0.35 0.27 0.5s0.19 0.34 0.22 0.54c0 0.02 0 0.07 0.01 0.15s0.02 0.17 0.03 0.25 0.02 0.17 0.03 0.25 0.01 0.13 0.01 0.16c0.04 0.12 0.1 0.25 0.18 0.41s0.14 0.28 0.17 0.38c0 0.02 0.02 0.08 0.04 0.18s0.04 0.16 0.04 0.18c0.01 0.02 0.03 0.05 0.06 0.09s0.07 0.09 0.11 0.13 0.08 0.09 0.11 0.13 0.06 0.07 0.06 0.08c0.01 0.02 0.02 0.06 0.03 0.11s0.02 0.12 0.03 0.19 0.02 0.13 0.02 0.2 0.01 0.1 0.01 0.12c0.08 0.29 0.2 0.54 0.34 0.74s0.27 0.46 0.39 0.74c0 0.02 0 0.06 0.01 0.11s0.02 0.12 0.03 0.19 0.02 0.13 0.02 0.2 0.01 0.1 0.01 0.12 0.02 0.07 0.04 0.17 0.04 0.15 0.04 0.17c0.03 0.1 0.09 0.18 0.17 0.22s0.16 0.09 0.24 0.14 0.16 0.1 0.22 0.16 0.1 0.14 0.1 0.25v0.22c0 0.02-0.01 0.07-0.04 0.17s-0.04 0.15-0.04 0.17c0 0.01 0.01 0.04 0.02 0.08s0.03 0.1 0.04 0.15 0.03 0.11 0.05 0.17 0.03 0.11 0.04 0.14c0.03 0.06 0.06 0.13 0.1 0.21s0.09 0.16 0.15 0.24 0.12 0.14 0.18 0.2 0.14 0.08 0.2 0.08c0.05 0 0.09-0.02 0.13-0.05s0.06-0.08 0.08-0.13 0.04-0.1 0.06-0.16 0.05-0.1 0.08-0.15c0.09-0.11 0.21-0.23 0.36-0.35s0.26-0.27 0.34-0.44c0.01-0.04 0.02-0.08 0.03-0.13s0.02-0.08 0.03-0.11 0.01-0.06 0.01-0.09c0.04-0.16 0.09-0.3 0.14-0.41s0.11-0.22 0.17-0.33 0.13-0.21 0.2-0.32 0.15-0.23 0.22-0.36c0.1-0.16 0.18-0.32 0.23-0.49s0.12-0.32 0.22-0.48c0.01-0.01 0.03-0.04 0.06-0.08s0.07-0.09 0.11-0.15 0.08-0.1 0.11-0.14 0.06-0.07 0.06-0.08c0.03-0.03 0.05-0.08 0.06-0.15s0.03-0.13 0.04-0.2 0.02-0.13 0.03-0.2 0.02-0.11 0.04-0.15c0.13-0.36 0.28-0.7 0.47-1.02s0.36-0.66 0.51-1.02c0.07-0.14 0.11-0.3 0.13-0.48s0.06-0.33 0.11-0.48c0.03-0.03 0.07-0.12 0.13-0.26s0.13-0.29 0.2-0.45 0.13-0.31 0.2-0.44 0.1-0.22 0.12-0.27c0.01-0.02 0.02-0.07 0.04-0.13s0.03-0.11 0.03-0.13v-0.04 -0.02c0-0.02-0.01-0.06-0.03-0.11s-0.03-0.08-0.03-0.09v-0.01 -0.08c0.06-0.12 0.12-0.24 0.19-0.35s0.14-0.23 0.23-0.32 0.19-0.18 0.31-0.25 0.26-0.11 0.42-0.14c0.03 0 0.14 0 0.31 0.01s0.34 0.01 0.5 0.01c0.17 0 0.27 0 0.31-0.01 0.02 0 0.05-0.01 0.11-0.02s0.11-0.03 0.18-0.05 0.12-0.04 0.17-0.06 0.08-0.02 0.09-0.02c0.27-0.07 0.53-0.12 0.77-0.15s0.52-0.05 0.83-0.05c0.05 0 0.12 0 0.2 0.01s0.17 0.01 0.25 0.01 0.15 0 0.22 0.01 0.1 0.01 0.11 0.01c0.09 0 0.2 0.02 0.31 0.06s0.22 0.1 0.32 0.18 0.19 0.16 0.25 0.26 0.1 0.2 0.1 0.31c0 0.07-0.03 0.14-0.08 0.22s-0.12 0.15-0.2 0.22 -0.15 0.13-0.23 0.17 -0.13 0.07-0.18 0.07c-0.14 0-0.28-0.01-0.41-0.04s-0.26-0.04-0.41-0.04 -0.29 0.01-0.43 0.03 -0.3 0.07-0.47 0.15c-0.1 0.05-0.18 0.13-0.24 0.23s-0.1 0.21-0.13 0.34 -0.05 0.25-0.05 0.39 -0.01 0.26-0.01 0.37v0.22c0 0.1 0 0.18 0.01 0.25s0.02 0.13 0.04 0.18 0.04 0.12 0.06 0.18 0.04 0.14 0.06 0.23c0 0.04 0 0.11 0.01 0.22s0.01 0.21 0.01 0.31 0 0.21 0.01 0.31 0.01 0.16 0.01 0.2c0 0.78-0.02 1.55-0.06 2.32s-0.05 1.54-0.04 2.32c0 0.02-0.01 0.06-0.04 0.13s-0.04 0.11-0.04 0.13v0.06 0.04c0.04 0.22 0.08 0.45 0.13 0.7s0.06 0.48 0.06 0.71c0 0.22-0.03 0.43-0.09 0.62s-0.09 0.4-0.09 0.62v0.15c0 0.07 0 0.13 0.01 0.18s0.03 0.12 0.08 0.18c0 0.03 0 0.07 0 0.15s0 0.15 0.01 0.23 0.01 0.16 0.01 0.23 0 0.12 0 0.15c0 0.05 0 0.12 0 0.2s0 0.17-0.01 0.25 -0.01 0.15-0.01 0.22 0 0.1 0 0.11 -0.01 0.06-0.04 0.15 -0.04 0.16-0.04 0.19v0.2 0.13c0 0.03 0.02 0.08 0.07 0.18s0.08 0.15 0.1 0.18c0.01 0.02 0.03 0.05 0.07 0.1s0.08 0.1 0.11 0.15 0.07 0.1 0.11 0.13 0.06 0.06 0.06 0.07c0.02 0.01 0.04 0.04 0.06 0.09s0.03 0.08 0.03 0.1c0.02 0.02 0.03 0.04 0.05 0.06s0.04 0.03 0.06 0.03h0.34c0.01 0 0.04 0.01 0.1 0.03s0.11 0.03 0.17 0.05 0.11 0.03 0.17 0.05 0.08 0.03 0.1 0.03c0.01 0.01 0.04 0.02 0.09 0.03s0.1 0.02 0.16 0.03 0.11 0.02 0.16 0.03 0.08 0.02 0.1 0.03c0.03 0.01 0.06 0.02 0.11 0.04s0.11 0.04 0.17 0.07 0.11 0.05 0.16 0.08 0.07 0.04 0.08 0.05c0 0.02 0 0.05 0.01 0.1s0.01 0.08 0.01 0.09c0 0.12-0.05 0.22-0.16 0.31s-0.24 0.13-0.38 0.13h-4.21c-0.04 0-0.11 0.02-0.2 0.04s-0.14 0.04-0.16 0.04h-0.09 -0.09c-0.01 0-0.04 0.01-0.08 0.03s-0.09 0.03-0.15 0.05 -0.1 0.03-0.14 0.05 -0.07 0.03-0.08 0.03h-0.7 -0.2c-0.11 0-0.22-0.05-0.34-0.16s-0.18-0.22-0.18-0.34V47.86c0.06 0 0.17-0.01 0.32-0.04s0.26-0.04 0.32-0.04c0.02 0 0.06-0.01 0.12-0.04s0.1-0.04 0.12-0.04 0.05 0 0.1-0.01 0.1-0.02 0.15-0.02 0.1-0.02 0.13-0.03 0.06-0.02 0.07-0.03c0.1-0.03 0.18-0.1 0.24-0.21s0.1-0.22 0.13-0.34 0.05-0.25 0.06-0.37 0.01-0.23 0.01-0.31c0.09-0.54 0.16-1.08 0.2-1.62s0.09-1.09 0.16-1.65c0-0.08 0-0.24 0.01-0.46s0.01-0.46 0.02-0.71 0.02-0.48 0.02-0.7 0.01-0.38 0.01-0.47c0-0.16 0-0.37-0.01-0.63s-0.01-0.51-0.02-0.77 -0.01-0.48-0.02-0.67 -0.01-0.3-0.01-0.32c0-0.06 0-0.17-0.01-0.34s-0.01-0.34-0.02-0.53 -0.01-0.36-0.02-0.53 -0.01-0.29-0.02-0.37c0-0.02-0.01-0.08-0.02-0.15s-0.04-0.15-0.07-0.23 -0.06-0.15-0.1-0.22 -0.07-0.09-0.11-0.09c-0.08 0-0.14 0.02-0.18 0.06s-0.09 0.08-0.12 0.13 -0.06 0.11-0.09 0.17 -0.06 0.11-0.11 0.15c-0.01 0.02-0.03 0.05-0.07 0.09s-0.08 0.09-0.13 0.14 -0.1 0.1-0.15 0.13 -0.08 0.06-0.09 0.07c0 0.03-0.01 0.06-0.03 0.1s-0.03 0.08-0.03 0.1c-0.1 0.23-0.22 0.45-0.36 0.65s-0.26 0.43-0.36 0.67c-0.08 0.22-0.14 0.45-0.18 0.69s-0.1 0.48-0.17 0.71c-0.01 0.1-0.04 0.18-0.11 0.23s-0.11 0.12-0.13 0.22c-0.01 0.01-0.02 0.04-0.03 0.08s-0.02 0.1-0.03 0.15 -0.02 0.1-0.02 0.15 -0.01 0.07-0.01 0.08c-0.02 0.02-0.05 0.05-0.1 0.1s-0.11 0.1-0.16 0.16 -0.12 0.11-0.17 0.17 -0.09 0.09-0.09 0.11c-0.06 0.05-0.1 0.14-0.11 0.26s-0.04 0.21-0.06 0.26c-0.01 0.03-0.02 0.07-0.04 0.14s-0.02 0.11-0.02 0.13c-0.02 0.02-0.05 0.06-0.1 0.12s-0.08 0.1-0.1 0.12c-0.08 0.22-0.14 0.45-0.18 0.68s-0.09 0.46-0.16 0.68c-0.02 0.04-0.06 0.11-0.09 0.2s-0.08 0.18-0.11 0.28 -0.07 0.18-0.11 0.26 -0.05 0.12-0.06 0.14c0 0.02-0.02 0.07-0.06 0.15s-0.09 0.18-0.13 0.28 -0.09 0.2-0.14 0.29 -0.08 0.15-0.09 0.17c0 0.01 0 0.04-0.01 0.1s-0.01 0.12-0.02 0.19 -0.02 0.13-0.02 0.19 -0.01 0.09-0.01 0.1c0 0.04-0.01 0.11-0.04 0.2s-0.04 0.14-0.04 0.16c-0.02 0.04-0.06 0.12-0.11 0.22s-0.1 0.22-0.16 0.33 -0.11 0.22-0.16 0.32 -0.08 0.17-0.11 0.2c-0.09 0.05-0.19 0.11-0.28 0.18s-0.2 0.1-0.32 0.1c-0.11 0-0.22-0.05-0.33-0.16s-0.21-0.23-0.3-0.37 -0.16-0.29-0.23-0.44 -0.1-0.28-0.12-0.38c-0.04-0.15-0.08-0.29-0.11-0.42s-0.06-0.25-0.08-0.37 -0.06-0.25-0.09-0.37 -0.09-0.27-0.16-0.42c-0.01-0.02-0.04-0.06-0.08-0.15s-0.09-0.16-0.15-0.25 -0.1-0.17-0.14-0.25 -0.07-0.12-0.08-0.14c-0.15-0.27-0.27-0.54-0.34-0.82s-0.17-0.56-0.29-0.87c-0.15-0.42-0.33-0.84-0.53-1.26s-0.38-0.85-0.52-1.29c-0.01-0.01-0.02-0.04-0.02-0.09s-0.01-0.11-0.02-0.16 -0.01-0.11-0.01-0.16 -0.01-0.08-0.01-0.1c-0.02-0.02-0.05-0.06-0.1-0.13s-0.08-0.12-0.1-0.13c0-0.02-0.01-0.06-0.04-0.12s-0.04-0.1-0.04-0.12c-0.01-0.02-0.02-0.05-0.04-0.09s-0.04-0.09-0.06-0.15 -0.04-0.09-0.06-0.13 -0.04-0.06-0.04-0.07c0-0.02 0-0.07-0.01-0.13s-0.01-0.13-0.02-0.2 -0.02-0.13-0.02-0.19 -0.01-0.1-0.01-0.11c-0.02-0.02-0.04-0.06-0.06-0.11s-0.04-0.1-0.07-0.15 -0.05-0.11-0.08-0.15 -0.05-0.08-0.06-0.11l-0.27-0.27c-0.08-0.1-0.14-0.22-0.19-0.36s-0.11-0.28-0.17-0.41 -0.14-0.25-0.24-0.34 -0.23-0.14-0.4-0.14h-0.08c-0.04 0.15-0.07 0.29-0.08 0.42s-0.02 0.25-0.03 0.38 -0.01 0.25-0.02 0.38 -0.01 0.28-0.02 0.44c-0.02 0.08-0.03 0.13-0.04 0.17s-0.03 0.1-0.04 0.17v0.14c0 0.09 0.02 0.19 0.04 0.28s0.04 0.2 0.04 0.31v0.08c-0.04 0.2-0.08 0.41-0.13 0.61s-0.06 0.42-0.06 0.64c0 0.29 0.03 0.57 0.1 0.84s0.1 0.55 0.1 0.84c-0.02 0.07-0.03 0.12-0.04 0.16s-0.02 0.08-0.03 0.11 -0.01 0.06-0.01 0.07v1.32c0 0.02-0.01 0.06-0.02 0.11s-0.04 0.12-0.06 0.19 -0.04 0.13-0.06 0.2 -0.04 0.1-0.04 0.12v0.13c0 0.08 0.01 0.14 0.03 0.2s0.05 0.13 0.09 0.22v1.9c0.04 0.08 0.08 0.16 0.1 0.25s0.05 0.19 0.08 0.28 0.06 0.18 0.1 0.26 0.09 0.15 0.16 0.2c0.18 0.02 0.4 0.04 0.65 0.08s0.48 0.09 0.67 0.17c0.02 0.03 0.06 0.06 0.12 0.11s0.1 0.08 0.12 0.1c0.07 0.03 0.14 0.06 0.2 0.08s0.13 0.04 0.18 0.06 0.09 0.06 0.12 0.11 0.04 0.12 0.04 0.2c0 0.12-0.02 0.21-0.08 0.28s-0.11 0.12-0.19 0.15 -0.16 0.06-0.25 0.06 -0.18 0.01-0.27 0.01c-0.35 0-0.71-0.01-1.07-0.04s-0.71-0.04-1.07-0.04h-0.33c-0.01 0-0.03 0-0.07 0.01s-0.08 0.02-0.11 0.03 -0.08 0.02-0.11 0.03 -0.06 0.01-0.07 0.01c-0.02 0-0.05-0.01-0.11-0.02s-0.11-0.03-0.18-0.05 -0.12-0.04-0.18-0.06S341.75 48.14 341.73 48.13z"/>
      <path d="M362.94 47.86c0-0.08 0.04-0.17 0.13-0.29s0.16-0.19 0.23-0.23c0.03-0.01 0.1-0.02 0.18-0.04s0.18-0.04 0.29-0.06 0.2-0.05 0.29-0.06 0.16-0.03 0.2-0.04c0.17-0.02 0.29-0.05 0.38-0.1s0.14-0.16 0.17-0.33c0.03-0.19 0.04-0.41 0.06-0.64s0.02-0.45 0.02-0.65v-0.18c0-0.02-0.01-0.08-0.04-0.15s-0.04-0.12-0.04-0.14c-0.01-0.03-0.02-0.11-0.02-0.23s-0.02-0.25-0.02-0.39 -0.02-0.27-0.02-0.39 -0.02-0.2-0.02-0.22c0-0.01-0.01-0.05-0.04-0.13s-0.04-0.13-0.04-0.15v-0.02 -0.04c0.13-0.96 0.19-1.92 0.19-2.86 0-0.25-0.02-0.49-0.05-0.72s-0.05-0.48-0.05-0.72v-0.2c-0.02-0.02-0.07-0.05-0.14-0.09s-0.11-0.07-0.13-0.09 -0.05-0.05-0.09-0.09 -0.07-0.08-0.09-0.09c-0.13-0.06-0.27-0.1-0.44-0.12s-0.32-0.05-0.47-0.09 -0.27-0.1-0.37-0.18 -0.15-0.22-0.15-0.41v-0.15c0-0.03 0-0.06 0.01-0.09 0.02-0.03 0.07-0.07 0.16-0.12s0.15-0.07 0.2-0.07h2.64c0.03 0.03 0.1 0.07 0.18 0.11s0.14 0.07 0.16 0.08h0.09c0.29 0 0.57-0.05 0.84-0.14s0.55-0.14 0.84-0.14h0.37c0.2 0.02 0.41 0.05 0.64 0.11s0.44 0.08 0.65 0.08c0.09 0 0.19-0.02 0.28-0.05s0.2-0.05 0.31-0.05h0.06c0.08 0.03 0.18 0.05 0.31 0.08s0.27 0.07 0.4 0.11 0.26 0.09 0.38 0.15 0.19 0.13 0.24 0.2c0.08 0.14 0.16 0.28 0.24 0.43s0.16 0.31 0.24 0.47 0.13 0.33 0.18 0.5 0.07 0.33 0.07 0.5c0 0.09-0.02 0.19-0.07 0.28s-0.12 0.16-0.21 0.2c-0.02 0.02-0.08 0.03-0.17 0.03s-0.15 0-0.18 0c-0.15 0-0.27-0.01-0.34-0.02s-0.14-0.05-0.19-0.09 -0.1-0.11-0.15-0.18 -0.11-0.16-0.2-0.26c-0.01-0.02-0.04-0.05-0.09-0.1s-0.11-0.1-0.16-0.16 -0.12-0.11-0.17-0.16 -0.09-0.08-0.11-0.1c-0.01-0.02-0.02-0.06-0.04-0.13s-0.02-0.12-0.02-0.13c-0.05-0.13-0.12-0.22-0.22-0.27s-0.2-0.09-0.32-0.11 -0.24-0.05-0.36-0.08 -0.23-0.08-0.34-0.15h-1.35c-0.11 0-0.2 0.04-0.29 0.11s-0.16 0.15-0.23 0.23c-0.18 0.22-0.28 0.47-0.31 0.76s-0.04 0.56-0.04 0.83c0 0.3 0 0.57 0.01 0.83s0.04 0.53 0.1 0.84c0.01 0.12 0.04 0.19 0.11 0.22s0.14 0.04 0.22 0.04h0.19c0.02 0 0.06-0.01 0.12-0.03s0.1-0.03 0.12-0.03c0.03-0.01 0.08-0.02 0.17-0.03s0.18-0.02 0.28-0.03 0.19-0.01 0.28-0.02 0.15-0.01 0.17-0.01c0.12-0.02 0.21-0.06 0.29-0.11s0.13-0.11 0.17-0.18 0.08-0.15 0.11-0.23 0.08-0.17 0.13-0.25c0.04-0.08 0.09-0.18 0.14-0.29s0.11-0.2 0.17-0.3 0.14-0.17 0.22-0.24 0.19-0.1 0.31-0.1c0.11 0 0.19 0.04 0.23 0.11s0.07 0.17 0.08 0.29c0.04 0.3 0.07 0.55 0.08 0.77s0.01 0.47 0.01 0.76v0.47c0 0.05 0 0.14-0.01 0.26s-0.02 0.25-0.02 0.38 -0.02 0.25-0.02 0.36 -0.02 0.19-0.02 0.22c0 0.04-0.01 0.11-0.04 0.2s-0.04 0.15-0.04 0.18v0.11 0.31c0 0.07 0 0.14-0.01 0.2s-0.02 0.12-0.06 0.17c-0.03 0.03-0.09 0.07-0.18 0.14s-0.15 0.11-0.18 0.13h-0.22c-0.04 0-0.08 0-0.11 0.01s-0.05 0.01-0.07 0.01c-0.05 0-0.09-0.03-0.11-0.09 -0.03-0.03-0.07-0.09-0.11-0.18s-0.07-0.15-0.08-0.2v-1.05c-0.01-0.11-0.04-0.2-0.1-0.27s-0.13-0.12-0.23-0.16 -0.2-0.06-0.31-0.07 -0.23-0.02-0.34-0.02h-0.48 -0.24c-0.08 0-0.17 0-0.25 0.01s-0.15 0.03-0.22 0.06 -0.12 0.08-0.16 0.14 -0.06 0.15-0.06 0.25v0.13c0.01 0.03 0.02 0.09 0.03 0.2s0.02 0.22 0.03 0.34 0.02 0.23 0.03 0.34 0.02 0.17 0.03 0.2v0.84 0.33c0 0.01 0.01 0.03 0.02 0.07s0.03 0.08 0.04 0.14 0.03 0.11 0.05 0.17 0.03 0.1 0.05 0.13c0.04 0.1 0.1 0.18 0.16 0.22s0.13 0.08 0.21 0.1 0.16 0.03 0.25 0.03 0.18 0.01 0.27 0.03c0.14 0.02 0.29 0.05 0.43 0.09s0.3 0.06 0.47 0.06h0.39c0.26 0 0.53-0.01 0.81-0.02s0.54-0.06 0.79-0.13c0.02 0 0.05-0.01 0.1-0.04s0.08-0.04 0.1-0.04c0.02-0.02 0.06-0.06 0.11-0.11s0.12-0.1 0.18-0.15 0.12-0.11 0.18-0.16 0.09-0.09 0.11-0.12c0.03-0.02 0.07-0.06 0.14-0.13s0.14-0.14 0.22-0.22 0.15-0.15 0.22-0.22 0.11-0.1 0.14-0.12c0.04-0.04 0.09-0.07 0.13-0.08s0.1-0.02 0.16-0.02h0.18c0.09 0 0.2 0 0.31 0.01s0.2 0.04 0.27 0.09c0.17 0.12 0.32 0.24 0.44 0.38s0.19 0.3 0.19 0.51v0.15c-0.01 0.03-0.02 0.09-0.04 0.16s-0.05 0.15-0.08 0.22 -0.06 0.15-0.09 0.21 -0.05 0.11-0.06 0.13c-0.04 0.07-0.12 0.15-0.24 0.24s-0.21 0.15-0.28 0.2c-0.05 0.03-0.12 0.06-0.2 0.1s-0.16 0.08-0.23 0.12 -0.14 0.07-0.2 0.1 -0.09 0.04-0.1 0.04h-7.4c-0.12 0.04-0.24 0.07-0.37 0.08s-0.26 0.01-0.39 0.01h-0.3 -0.6c-0.03 0-0.09-0.01-0.16-0.03s-0.11-0.04-0.11-0.06c-0.02-0.03-0.05-0.09-0.1-0.18S362.94 47.89 362.94 47.86z"/>
      <path d="M376.21 48.66c-0.08-0.02-0.17-0.08-0.28-0.16s-0.16-0.15-0.16-0.22c0-0.18 0.04-0.31 0.11-0.39s0.16-0.15 0.26-0.2 0.21-0.11 0.32-0.17 0.2-0.16 0.28-0.29c0.01-0.01 0.03-0.04 0.05-0.09s0.05-0.12 0.08-0.19 0.06-0.14 0.08-0.22 0.04-0.13 0.05-0.17c0.01-0.02 0.02-0.07 0.04-0.13s0.04-0.12 0.06-0.19 0.03-0.13 0.04-0.2 0.02-0.11 0.03-0.13c0.01 0 0.02-0.02 0.03-0.06s0.02-0.09 0.03-0.13 0.02-0.09 0.03-0.14 0.01-0.08 0.01-0.09c0.02-0.02 0.04-0.07 0.07-0.16s0.04-0.15 0.04-0.16c-0.02-0.02-0.06-0.09-0.11-0.18s-0.08-0.15-0.09-0.17v-0.13c0-0.1 0.02-0.2 0.04-0.3s0.04-0.2 0.04-0.3c0-0.35-0.03-0.7-0.09-1.03s-0.09-0.69-0.09-1.07c0-0.01 0-0.04 0.01-0.09s0.02-0.11 0.03-0.16 0.02-0.12 0.03-0.17 0.01-0.09 0.01-0.11V40.51v-0.9c-0.02-0.15-0.08-0.28-0.18-0.39s-0.22-0.19-0.34-0.24c-0.04-0.02-0.11-0.06-0.22-0.1s-0.21-0.09-0.32-0.13 -0.22-0.09-0.32-0.13 -0.17-0.06-0.22-0.08c-0.02-0.06-0.06-0.15-0.11-0.27s-0.06-0.2-0.04-0.25c0-0.02 0.02-0.05 0.06-0.09s0.07-0.08 0.09-0.11c0.03-0.02 0.1-0.04 0.18-0.08s0.15-0.06 0.18-0.08h0.62 0.61c0.03 0 0.08 0 0.17 0.01s0.18 0.02 0.27 0.03 0.19 0.02 0.27 0.03 0.14 0.01 0.17 0.01h0.8c0.02 0 0.05 0.01 0.1 0.03s0.1 0.04 0.16 0.06 0.11 0.04 0.16 0.06 0.08 0.03 0.1 0.04h0.15c0.33 0 0.65-0.03 0.97-0.09s0.63-0.09 0.95-0.09h0.57c0.19 0.02 0.35 0.08 0.49 0.2s0.28 0.22 0.41 0.31c0.39 0.35 0.69 0.71 0.9 1.09s0.32 0.85 0.32 1.41c0 0.27-0.01 0.51-0.03 0.73s-0.09 0.44-0.22 0.68c-0.02 0.04-0.07 0.1-0.13 0.18s-0.12 0.15-0.17 0.24 -0.11 0.15-0.15 0.22 -0.07 0.11-0.08 0.13c-0.06 0.08-0.13 0.15-0.21 0.22s-0.16 0.14-0.23 0.21 -0.13 0.15-0.18 0.23 -0.08 0.17-0.08 0.27c0 0.13 0.02 0.26 0.07 0.41s0.11 0.26 0.2 0.34c0.16 0.2 0.35 0.37 0.57 0.52s0.4 0.33 0.55 0.55c0.03 0 0.05 0.03 0.06 0.08l0.03 0.08c0.14 0.22 0.28 0.41 0.39 0.58s0.29 0.33 0.51 0.5c0.08 0.06 0.17 0.12 0.28 0.18s0.22 0.12 0.32 0.19 0.19 0.15 0.26 0.25 0.11 0.21 0.11 0.35c0 0.12-0.05 0.23-0.16 0.34s-0.24 0.21-0.39 0.29 -0.3 0.14-0.45 0.19 -0.27 0.07-0.35 0.07h-0.41c-0.01 0-0.05-0.01-0.13-0.04s-0.12-0.04-0.13-0.04h-0.53c-0.13-0.01-0.25-0.09-0.35-0.25s-0.21-0.34-0.3-0.55 -0.18-0.41-0.25-0.61 -0.13-0.35-0.17-0.45c0-0.02-0.01-0.07-0.04-0.13s-0.06-0.13-0.1-0.2 -0.07-0.14-0.11-0.21 -0.06-0.11-0.09-0.14c-0.06-0.12-0.16-0.2-0.3-0.26s-0.27-0.12-0.38-0.18c-0.02 0-0.05-0.02-0.06-0.05 -0.01-0.02-0.02-0.03-0.02-0.04s-0.02-0.03-0.05-0.07 -0.05-0.08-0.08-0.11 -0.06-0.07-0.09-0.11 -0.05-0.05-0.06-0.05c-0.01-0.01-0.02-0.01-0.02-0.02s-0.02-0.01-0.02-0.03c-0.01-0.01-0.02-0.02-0.02-0.04 -0.02-0.01-0.05-0.03-0.11-0.06s-0.11-0.06-0.17-0.09 -0.11-0.05-0.16-0.08 -0.07-0.04-0.08-0.04c-0.02-0.02-0.05-0.05-0.1-0.1s-0.08-0.08-0.1-0.1c-0.12-0.07-0.25-0.12-0.39-0.17s-0.28-0.07-0.42-0.07h-0.06l-0.05 0.03c-0.02 0.02-0.04 0.03-0.04 0.05 -0.01 0.03-0.02 0.06-0.05 0.11s-0.05 0.1-0.08 0.15 -0.05 0.11-0.08 0.15 -0.05 0.08-0.06 0.11v0.57 0.46c0 0.17 0.01 0.34 0.03 0.5s0.08 0.31 0.17 0.43c0 0.02 0.04 0.08 0.13 0.19s0.16 0.2 0.22 0.25c0.08 0.09 0.18 0.16 0.29 0.2s0.22 0.09 0.32 0.14 0.19 0.12 0.25 0.2 0.1 0.21 0.1 0.38c0 0.1-0.04 0.17-0.13 0.19s-0.17 0.04-0.27 0.04h-0.18 -0.06c-0.03 0-0.1 0-0.19 0.01s-0.19 0.02-0.3 0.03 -0.2 0.02-0.29 0.03 -0.15 0.02-0.18 0.03c-0.02 0-0.04 0-0.08 0.01s-0.08 0.02-0.13 0.03 -0.1 0.02-0.14 0.03 -0.07 0.01-0.09 0.01h-0.05 -0.04c-0.01 0-0.04 0-0.09-0.01s-0.1-0.02-0.16-0.03 -0.11-0.02-0.16-0.03 -0.09-0.01-0.09-0.01c-0.07 0-0.18 0-0.33-0.01s-0.31-0.01-0.48-0.01 -0.33 0-0.48 0.01S376.27 48.66 376.21 48.66zM378.92 42.47v0.01c0.01 0.03 0.03 0.06 0.06 0.11s0.06 0.11 0.08 0.17 0.05 0.11 0.08 0.17 0.04 0.09 0.05 0.11h0.31 0.32c0.05-0.01 0.14-0.02 0.28-0.05s0.28-0.05 0.43-0.08 0.3-0.06 0.43-0.09 0.23-0.05 0.28-0.07c0.11-0.08 0.21-0.19 0.31-0.32s0.18-0.27 0.25-0.42 0.12-0.31 0.17-0.47 0.06-0.31 0.06-0.44c0-0.02 0-0.04 0-0.06s0-0.03-0.01-0.03c0-0.02-0.01-0.08-0.04-0.18s-0.04-0.16-0.04-0.18c0-0.02 0-0.08-0.01-0.15s-0.01-0.16-0.02-0.24 -0.02-0.16-0.03-0.24 -0.02-0.13-0.03-0.15c0-0.02-0.01-0.05-0.02-0.09s-0.03-0.07-0.04-0.09c-0.04-0.04-0.11-0.11-0.2-0.2s-0.18-0.18-0.27-0.27 -0.18-0.18-0.26-0.25 -0.13-0.13-0.16-0.15c-0.02-0.02-0.07-0.05-0.16-0.09s-0.16-0.07-0.2-0.09c-0.02-0.01-0.05-0.02-0.09-0.04s-0.09-0.04-0.14-0.06 -0.1-0.03-0.14-0.05 -0.07-0.02-0.08-0.02h-0.06 -0.09c-0.02 0.01-0.06 0.03-0.12 0.06s-0.12 0.06-0.18 0.1 -0.13 0.08-0.2 0.11 -0.11 0.07-0.13 0.08c-0.12 0.09-0.19 0.2-0.23 0.32s-0.05 0.26-0.05 0.4c0 0.08 0 0.15 0.01 0.24s0.01 0.15 0.01 0.22v0.14c0 0.02-0.01 0.06-0.04 0.13s-0.04 0.11-0.04 0.13v0.08c0 0.17 0.02 0.33 0.06 0.49s0.06 0.32 0.06 0.49 -0.02 0.34-0.06 0.5S378.92 42.27 378.92 42.47z"/>
      <path d="M387.38 43.05c0-0.25 0.04-0.49 0.13-0.72s0.16-0.47 0.22-0.7c0-0.02 0-0.05 0.01-0.11s0.02-0.11 0.03-0.18 0.02-0.12 0.03-0.17 0.01-0.08 0.01-0.09c0.03-0.15 0.07-0.28 0.11-0.37s0.06-0.2 0.06-0.31c0-0.03 0-0.06 0-0.09s0-0.06-0.01-0.1c0.03-0.02 0.07-0.08 0.14-0.16s0.14-0.17 0.22-0.27 0.15-0.18 0.22-0.27 0.12-0.15 0.15-0.18c0.14-0.19 0.26-0.36 0.38-0.53s0.28-0.31 0.5-0.43c0.12-0.07 0.26-0.14 0.41-0.22s0.32-0.15 0.48-0.22 0.33-0.13 0.5-0.18 0.32-0.08 0.45-0.1c0.03 0 0.09 0 0.18 0.01s0.19 0.01 0.29 0.01c0.08 0 0.14-0.01 0.15-0.02 0.02 0 0.05-0.01 0.09-0.02s0.09-0.03 0.13-0.05 0.09-0.03 0.13-0.05 0.07-0.02 0.08-0.02h0.33 0.23c0.08 0 0.17 0 0.25 0.01s0.16 0.03 0.25 0.08c0.12 0.04 0.23 0.1 0.33 0.16s0.2 0.13 0.31 0.18 0.21 0.11 0.32 0.15 0.23 0.06 0.37 0.06c0.11 0 0.22-0.02 0.32-0.05s0.21-0.05 0.32-0.05c0.12 0 0.23 0.02 0.34 0.06s0.2 0.1 0.25 0.2c0.01 0.03 0.02 0.07 0.03 0.15s0.02 0.14 0.03 0.22 0.02 0.14 0.03 0.2 0.02 0.1 0.03 0.12c0 0.03 0.02 0.1 0.04 0.2s0.04 0.15 0.04 0.17v0.05 0.03c-0.03 0.18-0.06 0.37-0.09 0.58s-0.07 0.41-0.13 0.58 -0.16 0.33-0.29 0.44 -0.32 0.18-0.57 0.18c-0.02 0-0.04-0.01-0.08-0.04s-0.06-0.05-0.07-0.06c-0.04-0.02-0.09-0.07-0.16-0.13s-0.13-0.13-0.19-0.19 -0.12-0.12-0.18-0.18 -0.09-0.09-0.11-0.12c-0.03-0.08-0.06-0.13-0.08-0.17s-0.04-0.08-0.06-0.11 -0.04-0.06-0.04-0.06c-0.02-0.06-0.07-0.14-0.14-0.25s-0.11-0.17-0.13-0.19 -0.06-0.06-0.12-0.13 -0.1-0.12-0.12-0.15c-0.15-0.12-0.29-0.22-0.41-0.29s-0.25-0.14-0.37-0.18 -0.26-0.08-0.41-0.09 -0.32-0.02-0.51-0.02c-0.17 0-0.33 0.02-0.49 0.06s-0.3 0.11-0.44 0.2c-0.02 0-0.04 0.01-0.06 0.03s-0.04 0.04-0.04 0.06c-0.02 0.02-0.04 0.05-0.08 0.1s-0.07 0.11-0.11 0.17 -0.06 0.11-0.09 0.16 -0.04 0.08-0.04 0.1c-0.02 0.01-0.04 0.04-0.07 0.09s-0.06 0.11-0.09 0.17 -0.06 0.12-0.08 0.17 -0.04 0.09-0.05 0.11c-0.07 0.12-0.13 0.22-0.19 0.29s-0.11 0.18-0.15 0.32c0 0.02 0 0.06-0.01 0.11s-0.02 0.12-0.03 0.19 -0.02 0.13-0.03 0.19 -0.01 0.1-0.01 0.11c-0.04 0.18-0.09 0.35-0.13 0.53s-0.07 0.36-0.07 0.55c0 0.29 0.05 0.55 0.15 0.79s0.17 0.5 0.22 0.77c0.03 0.16 0.06 0.33 0.09 0.52s0.06 0.37 0.09 0.56 0.08 0.37 0.14 0.55 0.14 0.34 0.24 0.48c0.05 0.08 0.11 0.15 0.18 0.2s0.15 0.09 0.22 0.14 0.15 0.1 0.24 0.15 0.16 0.13 0.24 0.24h0.44c0.16 0 0.31-0.01 0.44-0.02s0.28-0.06 0.43-0.16c0.25-0.27 0.53-0.56 0.84-0.86s0.61-0.57 0.91-0.8c0-0.21 0.04-0.4 0.13-0.58s0.24-0.26 0.46-0.26c0.04 0 0.11 0 0.2 0.01s0.14 0.04 0.16 0.1l0.28 0.81v0.67 0.99c-0.01 0.26-0.05 0.47-0.12 0.61s-0.16 0.25-0.27 0.32 -0.23 0.12-0.37 0.14 -0.28 0.04-0.43 0.06 -0.29 0.04-0.44 0.08 -0.28 0.1-0.41 0.2h-2.02c-0.1-0.05-0.2-0.09-0.3-0.11s-0.2-0.04-0.31-0.05 -0.21-0.02-0.31-0.04 -0.2-0.04-0.3-0.08c-0.32-0.13-0.63-0.29-0.91-0.48s-0.55-0.41-0.79-0.66 -0.46-0.52-0.65-0.81 -0.34-0.6-0.45-0.93c-0.01-0.02-0.02-0.07-0.02-0.13s-0.02-0.12-0.02-0.2 -0.02-0.14-0.02-0.2 -0.01-0.1-0.01-0.11c-0.01-0.01-0.02-0.03-0.04-0.06s-0.03-0.07-0.05-0.11 -0.03-0.08-0.05-0.11 -0.03-0.06-0.04-0.07c-0.03-0.14-0.06-0.31-0.07-0.49S387.38 43.22 387.38 43.05z"/>
      <path d="M405.56 47.71c0-0.11 0.03-0.2 0.08-0.27 0.06-0.07 0.13-0.12 0.21-0.16 0.08-0.04 0.18-0.08 0.27-0.11 0.1-0.03 0.19-0.07 0.27-0.11 0.07-0.03 0.13-0.1 0.2-0.2s0.12-0.21 0.17-0.34 0.09-0.24 0.12-0.36c0.03-0.12 0.05-0.21 0.05-0.28 0-0.19-0.02-0.4-0.06-0.61 -0.04-0.21-0.08-0.41-0.11-0.6 -0.02-0.06-0.04-0.14-0.06-0.25 -0.02-0.11-0.04-0.17-0.06-0.2 -0.01-0.03-0.05-0.06-0.12-0.09 -0.07-0.03-0.16-0.05-0.25-0.08 -0.1-0.02-0.19-0.04-0.28-0.05 -0.09-0.01-0.16-0.03-0.22-0.04h-2.98c-0.02 0-0.05 0.03-0.09 0.08 -0.04 0.05-0.08 0.09-0.11 0.13 0 0.02-0.01 0.06-0.02 0.12 -0.02 0.06-0.04 0.1-0.06 0.12 0 0.02-0.02 0.05-0.08 0.1s-0.08 0.08-0.08 0.11c-0.05 0.08-0.08 0.17-0.09 0.25 -0.01 0.08-0.01 0.16-0.01 0.25v0.18c0 0.25 0.01 0.51 0.03 0.79 0.02 0.28 0.1 0.53 0.22 0.74 0.06 0.08 0.15 0.14 0.27 0.18 0.12 0.03 0.24 0.07 0.36 0.1 0.12 0.03 0.22 0.08 0.32 0.15 0.09 0.06 0.14 0.16 0.14 0.3 0 0.1-0.02 0.2-0.08 0.29s-0.11 0.16-0.19 0.22 -0.16 0.11-0.25 0.14c-0.09 0.03-0.18 0.05-0.27 0.05h-3.27c-0.09 0-0.2-0.01-0.31-0.02s-0.22-0.04-0.32-0.09 -0.19-0.11-0.25-0.18c-0.07-0.08-0.1-0.18-0.1-0.3 0-0.08 0-0.15 0.01-0.2 0.01-0.05 0.02-0.09 0.04-0.13 0.02-0.04 0.04-0.06 0.06-0.07l1.16-0.37c0.12-0.02 0.19-0.11 0.22-0.24s0.04-0.25 0.04-0.35v-0.35c0-0.02 0-0.1-0.01-0.22 -0.01-0.12-0.02-0.26-0.03-0.4s-0.02-0.28-0.03-0.4c-0.01-0.12-0.01-0.2-0.01-0.22v-0.88c0-0.01 0-0.04-0.01-0.08 -0.01-0.05-0.02-0.09-0.03-0.15s-0.02-0.1-0.03-0.14c-0.01-0.04-0.01-0.07-0.01-0.08v-0.06c0-0.21 0.03-0.41 0.09-0.61 0.06-0.19 0.09-0.39 0.09-0.58v-0.24c0-0.02 0-0.06-0.01-0.13 -0.01-0.07-0.02-0.14-0.03-0.22s-0.02-0.16-0.03-0.23c-0.01-0.07-0.01-0.12-0.01-0.15v-1.66c-0.02-0.23-0.09-0.37-0.2-0.42 -0.11-0.05-0.24-0.08-0.39-0.09s-0.31-0.03-0.48-0.06 -0.31-0.13-0.45-0.3c-0.07-0.1-0.11-0.18-0.13-0.25 -0.02-0.06-0.02-0.15-0.02-0.26 0-0.09 0.03-0.19 0.09-0.29 0.06-0.1 0.15-0.16 0.27-0.18h1.23c0.02 0 0.06-0.01 0.13-0.02 0.07-0.02 0.14-0.04 0.22-0.06 0.08-0.02 0.16-0.04 0.23-0.06 0.07-0.02 0.12-0.04 0.15-0.04h0.64c0.29 0 0.55 0 0.78 0.01 0.23 0.01 0.49 0.04 0.78 0.09 0.02 0 0.06 0.02 0.13 0.06 0.07 0.04 0.11 0.08 0.14 0.12 0.01 0.03 0.03 0.07 0.05 0.14s0.05 0.14 0.08 0.22 0.05 0.15 0.08 0.22 0.04 0.11 0.05 0.14l0.03 0.09c0 0.08-0.06 0.16-0.16 0.22 -0.11 0.06-0.24 0.12-0.39 0.17 -0.15 0.06-0.29 0.11-0.43 0.18s-0.23 0.14-0.28 0.22c-0.06 0.11-0.1 0.26-0.13 0.44 -0.03 0.19-0.04 0.35-0.04 0.48 0 0.13 0.03 0.23 0.09 0.32 0.06 0.08 0.09 0.2 0.09 0.33s-0.01 0.27-0.04 0.39 -0.04 0.25-0.04 0.39c0 0.2 0.06 0.36 0.18 0.46 0.12 0.11 0.26 0.18 0.43 0.23 0.17 0.05 0.35 0.07 0.54 0.08s0.36 0.01 0.5 0.01c0.35 0 0.7-0.01 1.05-0.04s0.69-0.05 0.99-0.07c0.14-0.01 0.27-0.02 0.4-0.04 0.13-0.02 0.25-0.05 0.35-0.09s0.18-0.11 0.24-0.2c0.06-0.09 0.09-0.22 0.09-0.39v-0.24c-0.01-0.08-0.02-0.2-0.02-0.37 -0.01-0.17-0.02-0.35-0.03-0.53s-0.02-0.36-0.03-0.53c-0.01-0.16-0.02-0.28-0.02-0.34 -0.02-0.14-0.06-0.25-0.13-0.32 -0.07-0.07-0.16-0.12-0.27-0.16 -0.1-0.04-0.22-0.08-0.33-0.11s-0.22-0.08-0.32-0.14 -0.18-0.15-0.25-0.27 -0.09-0.29-0.09-0.51c0-0.18 0.08-0.32 0.24-0.42 0.16-0.11 0.32-0.18 0.48-0.21 0.09 0 0.2 0.03 0.32 0.1 0.12 0.06 0.24 0.1 0.35 0.1 0.27 0 0.54-0.03 0.81-0.09 0.27-0.06 0.54-0.09 0.81-0.09h0.33c0.03 0.01 0.08 0.02 0.15 0.03s0.16 0.02 0.25 0.03 0.18 0.02 0.27 0.03 0.16 0.01 0.21 0.01c0.12 0.02 0.23 0.03 0.34 0.05 0.11 0.02 0.21 0.04 0.28 0.08 0.08 0.04 0.15 0.1 0.2 0.17s0.08 0.18 0.08 0.32c0 0.01 0 0.02-0.01 0.03 0 0.01-0.01 0.02-0.01 0.03v0.04c0 0.03-0.01 0.09-0.04 0.16s-0.04 0.11-0.05 0.11c-0.01 0-0.03 0.01-0.07 0.02s-0.08 0.02-0.13 0.03 -0.1 0.02-0.15 0.03c-0.05 0.01-0.08 0.01-0.09 0.01 -0.19 0.04-0.37 0.11-0.56 0.19s-0.32 0.23-0.4 0.44c-0.01 0.05-0.02 0.15-0.02 0.29 -0.01 0.14-0.02 0.29-0.02 0.44 -0.01 0.16-0.02 0.31-0.03 0.44s-0.02 0.24-0.03 0.3v0.24c0 0.09 0.02 0.18 0.06 0.26s0.06 0.17 0.06 0.26v0.03c-0.02 0.03-0.03 0.09-0.05 0.16 -0.02 0.07-0.04 0.11-0.06 0.12 0.02 0.07 0.03 0.18 0.03 0.34s0 0.32 0 0.5 0 0.35 0 0.51 -0.01 0.27-0.02 0.33c0 0.02 0 0.05-0.01 0.1 -0.01 0.05-0.01 0.1-0.02 0.16 0 0.06-0.01 0.11-0.02 0.16 -0.01 0.05-0.01 0.08-0.01 0.1 0 0.03 0.01 0.09 0.03 0.18 0.02 0.1 0.03 0.15 0.03 0.17 0.01 0.03 0.02 0.11 0.03 0.23s0.02 0.25 0.03 0.39c0.01 0.14 0.02 0.27 0.03 0.39 0.01 0.12 0.02 0.2 0.03 0.22 0 0.06 0.02 0.16 0.06 0.31 0.04 0.15 0.08 0.26 0.11 0.32 0.02 0.04 0.05 0.11 0.1 0.2 0.05 0.09 0.08 0.14 0.1 0.16 0.1 0.08 0.23 0.16 0.37 0.23 0.15 0.07 0.29 0.14 0.43 0.22s0.26 0.18 0.36 0.29 0.15 0.26 0.15 0.44c0 0.06 0 0.11-0.01 0.17 -0.01 0.05-0.03 0.1-0.08 0.14 -0.19 0.16-0.41 0.27-0.66 0.31 -0.25 0.05-0.5 0.07-0.76 0.07 -0.14 0-0.29 0-0.43-0.01s-0.28-0.01-0.41-0.01h-0.76c-0.02 0-0.07-0.01-0.16-0.04 -0.09-0.03-0.16-0.04-0.19-0.04 -0.09-0.01-0.22-0.01-0.39-0.02 -0.17 0-0.34-0.02-0.5-0.05s-0.31-0.08-0.44-0.16S405.56 47.86 405.56 47.71z"/>
      <rect x="331.33" y="23.25" width="87.33" height="31.49" class="s1"/>
    </a>
  </g>
</svg>
